<svg viewBox="0 0 130 41" fill="none" xmlns="http://www.w3.org/2000/svg">
    <path fill-rule="evenodd" clip-rule="evenodd"
          d="M4.60506 35.8811C4.60506 37.2061 3.65228 38.1071 2.32899 38.1071C1.05863 38.1071 0 37.3121 0 35.6691V34.8741C0 33.2841 0.741046 32.1711 2.1702 31.9061L4.23453 31.6411V32.4891L2.32899 32.7011C1.48208 32.8601 1.00569 33.3901 0.952762 34.5561C1.27035 33.9201 1.90554 33.7081 2.48779 33.7081C3.70522 33.7081 4.60506 34.6091 4.60506 35.8811ZM3.65228 35.8811C3.65228 35.0861 3.12296 34.5561 2.32899 34.5561C1.53501 34.5561 0.952762 35.0861 0.952762 35.8811C0.952762 36.6761 1.53501 37.2591 2.32899 37.2591C3.12296 37.2591 3.65228 36.6761 3.65228 35.8811Z"
          fill="#002E8D"/>
    <path fill-rule="evenodd" clip-rule="evenodd"
          d="M6.1401 36.1463C6.19303 36.8353 6.77528 37.3123 7.51632 37.3123C7.9927 37.3123 8.36323 37.1003 8.57495 36.7823H9.52771C9.26306 37.5243 8.46909 38.1073 7.51632 38.1073C6.1401 38.1073 5.18732 37.2063 5.18732 35.8283C5.18732 34.5033 6.08716 33.5493 7.41045 33.5493C8.62788 33.5493 9.58064 34.2913 9.6865 35.7753C9.6865 35.8813 9.6865 36.005 9.6865 36.1463H6.1401ZM8.68081 35.4043C8.62787 34.7683 8.09856 34.3443 7.41045 34.3443C6.72234 34.3443 6.19303 34.7683 6.1401 35.4043H8.68081Z"
          fill="#002E8D"/>
    <path d="M10.0041 37.206C10.3217 37.153 10.6922 36.994 10.6922 36.305V33.6021H14.1328V38.0541H13.18V34.503H11.645V36.305C11.645 37.524 10.9039 38.0541 10.0041 38.0541V37.206Z"
          fill="#002E8D"/>
    <path d="M16.7793 35.6691L18.8966 33.6021H17.785L16.6205 34.768L15.9324 35.4041V33.6021H15.0325H14.9796V38.0541H15.0325H15.9324V35.9871L16.6205 36.676L17.785 38.0541H18.8966L16.7793 35.6691Z"
          fill="#002E8D"/>
    <path fill-rule="evenodd" clip-rule="evenodd"
          d="M23.6075 33.6023V38.0543H22.6018V37.3653C22.2313 37.8423 21.5961 38.1073 21.0138 38.1073C20.9786 38.1073 20.9609 38.1073 20.9609 38.1073C20.3257 38.1073 19.7964 37.8953 19.4259 37.5243C19.4259 37.489 19.4082 37.4713 19.373 37.4713C19.373 37.436 19.373 37.4183 19.373 37.4183C19.0024 37.0473 18.7907 36.4643 18.7907 35.8283C18.7907 35.1923 19.0024 34.6623 19.373 34.2383C19.373 34.2383 19.373 34.2206 19.373 34.1853C19.4082 34.1853 19.4259 34.1676 19.4259 34.1323C19.7964 33.7613 20.3257 33.5493 20.9609 33.5493C20.9609 33.5493 20.9786 33.5493 21.0138 33.5493C21.5961 33.5493 22.2313 33.8143 22.6018 34.2913L22.7606 33.6023H23.6075ZM22.6018 35.8283C22.6018 35.0333 22.0195 34.3973 21.1726 34.3973C20.3787 34.3973 19.7435 34.9803 19.7435 35.8283C19.7435 36.6763 20.3787 37.2593 21.1726 37.2593C22.0195 37.2593 22.6018 36.6233 22.6018 35.8283Z"
          fill="#002E8D"/>
    <path fill-rule="evenodd" clip-rule="evenodd"
          d="M25.3013 33.6023L25.4072 34.2913C25.7777 33.8143 26.4658 33.5493 27.0481 33.5493C27.0481 33.5493 27.0657 33.5493 27.101 33.5493C27.7362 33.5493 28.2125 33.7613 28.5831 34.1323C28.6184 34.1676 28.636 34.1853 28.636 34.1853C28.6713 34.2206 28.6889 34.2383 28.6889 34.2383C29.0595 34.6623 29.2183 35.1923 29.2183 35.8283C29.2183 36.4643 29.0595 37.0473 28.6889 37.4183C28.6889 37.4183 28.6713 37.436 28.636 37.4713C28.636 37.4713 28.6184 37.489 28.5831 37.5243C28.2125 37.8953 27.7362 38.1073 27.101 38.1073C27.0657 38.1073 27.0481 38.1073 27.0481 38.1073C26.4658 38.1073 25.7777 37.8423 25.4072 37.3653V40.0153H24.4544V33.6023H25.3013ZM26.8363 37.2593C27.6303 37.2593 28.2655 36.6763 28.2655 35.8283C28.2655 34.9803 27.6303 34.3973 26.8363 34.3973C25.9894 34.3973 25.4072 35.0333 25.4072 35.8283C25.4072 36.6233 25.9894 37.2593 26.8363 37.2593Z"
          fill="#002E8D"/>
    <path d="M36.5228 35.2983V38.0543H35.57V35.5103C35.57 34.7153 35.1466 34.3973 34.6173 34.3973C34.035 34.3973 33.6116 34.7683 33.6116 35.5103V38.0543H32.6588V35.5103C32.6588 34.7153 32.2353 34.3973 31.706 34.3973C31.1238 34.3973 30.7003 34.7683 30.7003 35.5103V38.0543H29.7476V33.6023H30.5945L30.7003 34.2383C30.965 33.8143 31.3884 33.5493 32.0236 33.5493C32.6059 33.5493 33.0822 33.7613 33.3469 34.2383C33.6645 33.8143 34.1409 33.5493 34.829 33.5493C35.8347 33.5493 36.5228 34.1853 36.5228 35.2983Z"
          fill="#002E8D"/>
    <path d="M16.7794 22.3129L12.1214 26.8709C11.8038 27.1889 11.8038 27.5599 11.9626 27.8249C12.0684 28.0899 12.3331 28.3549 12.7566 28.3549L20.8551 28.4079C21.4903 28.4079 22.0196 27.8779 22.0196 27.2949C22.0196 27.2596 22.0196 27.2243 22.0196 27.1889C22.0196 25.3869 21.3315 23.6379 20.0611 22.3659C19.1613 21.4649 17.6792 21.4119 16.7794 22.3129Z"
          fill="#32A8FF"/>
    <path d="M11.4332 18.8679L4.97554 18.8149C4.55209 18.8149 4.28743 19.0799 4.18157 19.3449C4.0757 19.6099 4.02278 20.0339 4.34037 20.2989L10.057 26.0759C10.5334 26.5529 11.2215 26.5529 11.6979 26.1289C11.7331 26.0936 11.7508 26.0583 11.7508 26.0229C13.0212 24.8039 13.7622 23.0549 13.7622 21.2529C13.8151 19.9809 12.7565 18.9209 11.4332 18.8679Z"
          fill="#32A8FF"/>
    <path d="M5.1873 17.9672C5.22258 17.9672 5.25788 17.9672 5.29316 17.9672C7.09284 17.9672 8.83958 17.2782 10.1099 16.0062C11.0098 15.1052 11.0627 13.6212 10.1629 12.6672L5.61076 8.05616C5.29317 7.73816 4.92264 7.73816 4.65798 7.84416C4.39332 7.95016 4.12866 8.26816 4.12866 8.69216L4.07574 16.8012C4.07574 17.4372 4.60505 17.9672 5.1873 17.9672Z"
          fill="#32A8FF"/>
    <path d="M6.45766 7.68499C7.67509 8.95699 9.42183 9.69899 11.2215 9.69899C12.4919 9.75199 13.5505 8.69199 13.6034 7.36699L13.6563 0.900994C13.6563 0.476994 13.3917 0.211994 13.127 0.105994C12.8624 -6.21192e-06 12.4389 -0.0530061 12.1743 0.264994L6.40473 5.98899C5.92834 6.46599 5.92834 7.15499 6.35179 7.63199C6.38708 7.66733 6.42237 7.68499 6.45766 7.68499Z"
          fill="#32A8FF"/>
    <path d="M19.7435 6.042L24.4014 1.537C24.719 1.219 24.6661 0.848 24.5602 0.583C24.4544 0.318 24.1897 0.053 23.7663 0H15.6677C15.0326 0 14.5032 0.53 14.5032 1.113C14.5032 1.14833 14.5032 1.18367 14.5032 1.219C14.5032 3.021 15.1914 4.77 16.4617 6.042C17.3615 6.943 18.8436 6.996 19.7435 6.042Z"
          fill="#32A8FF"/>
    <path d="M25.0896 9.53995L31.5472 9.59295C31.9707 9.59295 32.2353 9.32795 32.3412 9.06295C32.447 8.79795 32.5 8.37395 32.1824 8.05595L26.4658 2.33195C25.9894 1.85495 25.3013 1.85495 24.8249 2.27895C24.7896 2.31429 24.772 2.34962 24.772 2.38495C23.5016 3.60395 22.7606 5.35295 22.7606 7.15495C22.7076 8.42695 23.7663 9.48695 25.0896 9.53995Z"
          fill="#32A8FF"/>
    <path d="M31.3355 10.4409C31.3002 10.4409 31.2649 10.4409 31.2296 10.4409C29.43 10.4409 27.6832 11.1299 26.4129 12.4019C25.513 13.3029 25.4601 14.7869 26.3599 15.6879L30.9121 20.3519C31.2296 20.6699 31.6002 20.6169 31.8648 20.5109C32.1295 20.4049 32.3941 20.1399 32.3941 19.7159L32.4471 11.6069C32.4471 10.9709 31.9178 10.4409 31.3355 10.4409Z"
          fill="#32A8FF"/>
    <path d="M30.0651 20.7229C28.8477 19.4509 27.101 18.7089 25.3013 18.7089C24.0309 18.6559 22.9723 19.7159 22.9194 21.0409L22.8665 27.5069C22.8665 27.9309 23.1311 28.1959 23.3958 28.3019C23.6604 28.4079 24.0839 28.4079 24.3485 28.1429L30.1181 22.3659C30.5945 21.9419 30.5945 21.1999 30.171 20.7759C30.1357 20.7406 30.1004 20.7229 30.0651 20.7229Z"
          fill="#32A8FF"/>
    <path d="M69.3021 28.5673C68.3493 27.6133 66.7614 27.5603 65.8086 28.5143L60.9389 33.2843C60.6213 33.6023 60.6213 34.0263 60.7272 34.2913C60.8331 34.5563 61.1506 34.8213 61.5741 34.8743H70.0961C70.7313 34.8743 71.3135 34.3443 71.3135 33.7083C71.3135 33.6729 71.3135 33.6376 71.3135 33.6023C71.3135 31.6943 70.5725 29.8923 69.3021 28.5673Z"
          fill="#5756CE"/>
    <path d="M62.6857 27.4009C62.6857 26.0229 61.5741 24.9099 60.2508 24.9099L53.4755 24.8569C52.9992 24.8569 52.7345 25.1219 52.6287 25.3869C52.5228 25.6519 52.4699 26.0759 52.7874 26.3939L58.8217 32.4359C59.2451 32.9129 60.0391 32.9129 60.5154 32.4359C60.5154 32.4359 60.5331 32.4183 60.5684 32.3829C61.8917 31.1109 62.6857 29.2559 62.6857 27.4009Z"
          fill="#5756CE"/>
    <path d="M58.8216 21.9419C59.8273 20.9879 59.8273 19.3979 58.8746 18.4439L54.1107 13.5679C53.7931 13.2499 53.4226 13.2499 53.105 13.3559C52.8403 13.4619 52.5757 13.7799 52.5757 14.2039L52.5228 22.7369C52.5228 23.4259 53.0521 23.9559 53.6873 23.9559C53.7226 23.9559 53.7578 23.9559 53.7931 23.9559C55.6987 23.9559 57.4983 23.2139 58.8216 21.9419Z"
          fill="#5756CE"/>
    <path d="M65.4381 11.4481C66.3909 12.4551 67.9788 12.4551 68.9316 11.5011L73.8013 6.73111C74.1189 6.41311 74.1189 6.04211 74.013 5.72411C73.8542 5.45911 73.5896 5.19411 73.1661 5.19411L64.6441 5.14111C63.956 5.14111 63.4267 5.67111 63.4267 6.30711C63.4267 6.34245 63.4267 6.37778 63.4267 6.41311C63.4267 8.32111 64.1678 10.1231 65.4381 11.4481Z"
          fill="#5756CE"/>
    <path d="M72.0545 12.614C72.0545 13.992 73.1661 15.105 74.4893 15.105L81.2646 15.158C81.741 15.158 82.0056 14.893 82.1115 14.628C82.2174 14.363 82.2703 13.939 81.9527 13.621L75.9185 7.57902C75.4951 7.10202 74.7011 7.10202 74.2247 7.52602C74.2247 7.56136 74.2071 7.59669 74.1718 7.63202C72.8485 8.95702 72.1074 10.759 72.0545 12.614Z"
          fill="#5756CE"/>
    <path d="M75.9185 18.1261C74.9658 19.0801 74.9128 20.6171 75.8656 21.5711L80.6294 26.4471C80.947 26.7651 81.3705 26.7651 81.6351 26.6591C81.8998 26.5531 82.1645 26.2351 82.2174 25.8111V17.2781C82.2174 16.6421 81.6881 16.0591 81.0529 16.0591C81.0176 16.0591 80.9823 16.0591 80.947 16.0591C79.0415 16.0591 77.2418 16.8011 75.9185 18.1261Z"
          fill="#5756CE"/>
    <path d="M74.754 24.6982C73.3778 24.6982 72.2662 25.8112 72.2662 27.1362L72.2133 33.9202C72.2133 34.3972 72.478 34.6622 72.7426 34.7682C73.0073 34.8742 73.4307 34.9272 73.7483 34.6092L79.7825 28.5672C80.2589 28.1432 80.2589 27.3482 79.7825 26.8712C79.7825 26.8712 79.7649 26.8536 79.7296 26.8182C78.4063 25.4932 76.6066 24.7512 74.754 24.6982Z"
          fill="#5756CE"/>
    <path fill-rule="evenodd" clip-rule="evenodd"
          d="M62.9504 11.236V12.508C62.9504 13.568 62.0505 14.469 60.9919 14.469H60.3567C60.1979 14.469 60.092 14.363 60.092 14.257L59.7745 12.296C59.7745 12.2606 59.8098 12.2253 59.8803 12.19C60.0921 12.031 60.2508 11.766 60.2508 11.448C60.2508 10.971 59.8274 10.547 59.351 10.653C58.9276 10.653 58.6629 10.971 58.61 11.342C58.557 11.713 58.7158 12.031 58.9805 12.19C59.0511 12.2253 59.0864 12.2606 59.0864 12.296L58.7687 14.257C58.7687 14.363 58.6629 14.469 58.5041 14.469H57.8689C56.8103 14.469 55.9105 13.568 55.9105 12.508V11.236C55.9105 10.388 56.4398 9.69895 57.1808 9.43395V8.85095C57.1808 7.63195 58.1865 6.57195 59.4569 6.62495C60.7272 6.62495 61.68 7.68495 61.68 8.90395V9.43395C62.421 9.69895 62.9504 10.388 62.9504 11.236ZM61.2036 8.90395C61.2036 7.94995 60.4096 7.10195 59.4569 7.10195C58.5041 7.10195 57.7101 7.89695 57.7101 8.85095V9.27495C57.7454 9.27495 57.7983 9.27495 57.8689 9.27495C57.9218 9.27495 61.1507 9.27495 61.2036 9.27495V8.90395Z"
          fill="#5756CE"/>
    <path fill-rule="evenodd" clip-rule="evenodd"
          d="M95.4503 12.5609C95.4503 13.8859 94.4446 14.8399 93.0684 14.8399C91.7451 14.8399 90.6865 13.9919 90.6865 12.2959V11.4479C90.6865 9.85789 91.4804 8.63889 92.9096 8.37389L95.0798 8.10889V8.95689L93.1213 9.22189C92.2215 9.38089 91.6922 9.96389 91.6393 11.1299C92.0098 10.4409 92.645 10.2819 93.2272 10.2819C94.5505 10.2819 95.4503 11.1829 95.4503 12.5609ZM94.4975 12.5079C94.4975 11.7129 93.9153 11.1299 93.0684 11.1299C92.2744 11.1299 91.6922 11.7129 91.6922 12.5079C91.6922 13.3559 92.2744 13.9389 93.0684 13.9389C93.9153 13.9389 94.4975 13.3559 94.4975 12.5079Z"
          fill="#1D1D1B"/>
    <path fill-rule="evenodd" clip-rule="evenodd"
          d="M97.0382 12.8258C97.1441 13.5148 97.7263 13.9918 98.4674 13.9918C98.9967 13.9918 99.3672 13.7798 99.6319 13.4618H100.585C100.32 14.2568 99.4731 14.8398 98.4674 14.8398C97.0912 14.8398 96.0325 13.8858 96.0325 12.4548C96.0325 11.1298 97.0382 10.0698 98.3615 10.0698C99.6848 10.0698 100.638 10.9178 100.743 12.4018C100.743 12.5078 100.743 12.6492 100.743 12.8258H97.0382ZM99.6319 12.0308C99.6319 11.3948 99.1025 10.9178 98.3615 10.9178C97.6205 10.9178 97.0911 11.3948 97.0382 12.0308H99.6319Z"
          fill="#1D1D1B"/>
    <path d="M101.061 13.8858C101.432 13.8858 101.802 13.6738 101.802 12.9318V10.1758H105.401V14.7868H104.396V11.0768H102.755V12.9848C102.755 14.2568 102.014 14.8398 101.061 14.7868V13.8858Z"
          fill="#1D1D1B"/>
    <path d="M108.154 12.2958L110.324 10.1758H109.16L107.942 11.3418L107.254 12.0308V10.1758H106.301H106.248V14.7868H106.301H107.254V12.6138L107.942 13.3558L109.16 14.7868H110.324L108.154 12.2958Z"
          fill="#1D1D1B"/>
    <path fill-rule="evenodd" clip-rule="evenodd"
          d="M115.194 10.1758V14.7868H114.188V14.0978C113.818 14.5748 113.129 14.8398 112.494 14.8398C111.806 14.8398 111.277 14.6278 110.853 14.2038C110.853 14.2038 110.836 14.1862 110.8 14.1508C110.43 13.7268 110.218 13.1438 110.218 12.4548C110.218 11.8188 110.43 11.2358 110.8 10.8118C110.8 10.8118 110.8 10.7942 110.8 10.7588C110.836 10.7588 110.853 10.7412 110.853 10.7058C111.277 10.3348 111.806 10.0698 112.494 10.0698C113.129 10.0698 113.818 10.3878 114.188 10.8648L114.347 10.1758H115.194ZM114.135 12.4548C114.135 11.6598 113.553 11.0238 112.706 11.0238C111.806 11.0238 111.171 11.6068 111.171 12.4548C111.171 13.3028 111.806 13.9388 112.706 13.9388C113.553 13.9388 114.135 13.3028 114.135 12.4548Z"
          fill="#1D1D1B"/>
    <path fill-rule="evenodd" clip-rule="evenodd"
          d="M116.994 10.1758L117.099 10.8648C117.47 10.3878 118.158 10.0698 118.793 10.0698C118.793 10.0698 118.811 10.0698 118.846 10.0698C119.481 10.0698 120.064 10.3348 120.434 10.7058C120.434 10.7412 120.452 10.7588 120.487 10.7588C120.487 10.7942 120.487 10.8118 120.487 10.8118C120.91 11.2358 121.069 11.8188 121.069 12.4548C121.069 13.1438 120.858 13.7268 120.487 14.1508C120.452 14.1862 120.434 14.2038 120.434 14.2038C120.011 14.6278 119.481 14.8398 118.846 14.8398C118.811 14.8398 118.793 14.8398 118.793 14.8398C118.158 14.8398 117.47 14.5748 117.099 14.0978V16.8538H116.094V10.1758H116.994ZM118.581 13.9388C119.428 13.9388 120.064 13.3028 120.064 12.4548C120.064 11.6068 119.428 11.0238 118.581 11.0238C117.735 11.0238 117.099 11.6598 117.099 12.4548C117.099 13.3028 117.735 13.9388 118.581 13.9388Z"
          fill="#1D1D1B"/>
    <path d="M128.638 11.9248V14.7868H127.633V12.1368C127.633 11.3418 127.209 10.9708 126.627 10.9708C126.045 10.9708 125.621 11.3418 125.621 12.1368V14.7868H124.616V12.1368C124.616 11.3418 124.192 10.9708 123.663 10.9708C123.028 10.9708 122.604 11.3418 122.604 12.1368V14.7868H121.599V10.1758H122.498L122.604 10.8648C122.869 10.3878 123.292 10.0698 123.98 10.0698C124.616 10.0698 125.092 10.3348 125.357 10.8648C125.674 10.3878 126.204 10.0698 126.945 10.0698C127.95 10.0698 128.638 10.7588 128.638 11.9248Z"
          fill="#1D1D1B"/>
    <path d="M94.127 18.2852H94.9739V22.7902H94.0741V19.7692L91.6392 22.7902H90.7923V18.2852H91.6921V21.3062L94.127 18.2852Z"
          fill="#1D1D1B"/>
    <path d="M98.9437 18.2852H99.8436V22.7902H98.9437V21.1472H96.7206V22.7902H95.8207V18.2852H96.7206V20.1932H98.9437V18.2852Z"
          fill="#1D1D1B"/>
    <path d="M126.892 22.7369V19.0269H125.41V18.2319H129.274V19.0269H127.844V22.7369H126.892Z"
          fill="#1D1D1B"/>
    <path fill-rule="evenodd" clip-rule="evenodd"
          d="M105.613 20.8292C105.666 21.5182 106.248 22.0482 106.989 22.0482C107.519 22.0482 107.889 21.7832 108.101 21.5182H109.054C108.789 22.2602 107.995 22.8432 106.989 22.8432C105.613 22.8432 104.607 21.9422 104.607 20.5112C104.607 19.1862 105.56 18.1792 106.884 18.1792C108.154 18.1792 109.054 18.9742 109.16 20.4582C109.16 20.5642 109.16 20.6879 109.16 20.8292H105.613ZM108.207 20.0872C108.207 19.4512 107.677 18.9742 106.936 18.9742C106.248 18.9742 105.666 19.4512 105.613 20.0872H108.207Z"
          fill="#1D1D1B"/>
    <path fill-rule="evenodd" clip-rule="evenodd"
          d="M121.546 20.8292C121.599 21.5182 122.181 22.0482 122.922 22.0482C123.451 22.0482 123.822 21.7832 124.033 21.5182H124.986C124.721 22.2602 123.927 22.8432 122.922 22.8432C121.546 22.8432 120.54 21.9422 120.54 20.5112C120.54 19.1862 121.493 18.1792 122.869 18.1792C124.086 18.1792 125.039 18.9742 125.145 20.4582C125.145 20.5642 125.145 20.6879 125.145 20.8292H121.546ZM124.086 20.0872C124.086 19.4512 123.557 18.9742 122.816 18.9742C122.128 18.9742 121.599 19.4512 121.546 20.0872H124.086Z"
          fill="#1D1D1B"/>
    <path d="M118.899 18.2852H119.799V22.7902H118.899V21.1472H116.623V22.7902H115.776V18.2852H116.623V20.1932H118.899V18.2852Z"
          fill="#1D1D1B"/>
    <path d="M101.961 22.7369V19.0269H100.532V18.2319H104.396V19.0269H102.967V22.7369H101.961Z"
          fill="#1D1D1B"/>
    <path fill-rule="evenodd" clip-rule="evenodd"
          d="M110.906 18.232L111.012 18.868C111.436 18.391 112.071 18.126 112.706 18.126C112.706 18.126 112.724 18.126 112.759 18.126C113.394 18.126 113.923 18.338 114.294 18.762C114.294 18.762 114.312 18.7796 114.347 18.815C114.347 18.815 114.364 18.815 114.4 18.815C114.717 19.239 114.929 19.822 114.929 20.458C114.929 21.094 114.717 21.677 114.4 22.101C114.364 22.101 114.347 22.1186 114.347 22.154C114.312 22.154 114.294 22.1716 114.294 22.207C113.923 22.578 113.394 22.79 112.759 22.79C112.724 22.79 112.706 22.79 112.706 22.79C112.071 22.79 111.436 22.525 111.012 22.048V24.751H110.059V18.232H110.906ZM112.441 21.889C113.341 21.889 113.923 21.306 113.923 20.458C113.923 19.61 113.288 19.027 112.441 19.027C111.594 19.027 111.012 19.663 111.012 20.458C111.012 21.306 111.594 21.889 112.441 21.889Z"
          fill="#1D1D1B"/>
    <path d="M94.921 26.3413V30.8463H93.9153V27.1363H91.798V30.8463H90.7923V26.3413H94.921Z"
          fill="#1D1D1B"/>
    <path fill-rule="evenodd" clip-rule="evenodd"
          d="M119.481 27.7193C120.54 27.7193 121.228 28.3023 121.228 29.3093C121.228 30.2633 120.487 30.8463 119.481 30.8463H117.629V26.3413H118.475V27.7193H119.481ZM119.375 29.9983C119.958 29.9983 120.381 29.7333 120.381 29.3093C120.381 28.8323 119.958 28.5673 119.375 28.5673H118.528V29.9983H119.375Z"
          fill="#1D1D1B"/>
    <path fill-rule="evenodd" clip-rule="evenodd"
          d="M99.6848 26.3414H100.585V30.8464H99.5789V30.1574C99.2084 30.6344 98.5203 30.8994 97.938 30.8994C97.9028 30.8994 97.8851 30.8994 97.8851 30.8994C97.2499 30.8994 96.7206 30.6874 96.3501 30.3164C96.3148 30.281 96.2972 30.2634 96.2972 30.2634C96.2972 30.228 96.2795 30.2104 96.2442 30.2104C95.8737 29.7864 95.7149 29.2564 95.7149 28.6204V28.5674C95.7149 27.9314 95.8737 27.4014 96.2442 26.9774C96.2795 26.942 96.2972 26.9244 96.2972 26.9244C96.2972 26.9244 96.3148 26.9067 96.3501 26.8714C96.7206 26.5004 97.2499 26.2354 97.8851 26.2354C97.8851 26.2354 97.9028 26.2354 97.938 26.2354C98.5203 26.2354 99.2084 26.5534 99.5789 27.0304L99.6848 26.3414ZM99.5789 28.6204C99.5789 27.7724 98.9967 27.1364 98.1498 27.1364C97.3029 27.1364 96.6677 27.7724 96.6677 28.6204C96.6677 29.4154 97.3029 30.0514 98.1498 30.0514C98.9967 30.0514 99.5789 29.4154 99.5789 28.6204Z"
          fill="#1D1D1B"/>
    <path fill-rule="evenodd" clip-rule="evenodd"
          d="M102.49 26.2881L102.596 26.9771C102.967 26.4471 103.655 26.1821 104.237 26.1821C104.272 26.1821 104.29 26.1821 104.29 26.1821C104.925 26.1821 105.454 26.4471 105.825 26.8181C105.86 26.8181 105.878 26.8358 105.878 26.8711C105.913 26.8711 105.931 26.8888 105.931 26.9241C106.301 27.2951 106.513 27.8781 106.513 28.5141V28.5671C106.513 29.2031 106.301 29.7331 105.931 30.1571C105.931 30.1925 105.913 30.2101 105.878 30.2101C105.878 30.2101 105.86 30.2278 105.825 30.2631C105.454 30.6341 104.925 30.8991 104.29 30.8991C104.29 30.8991 104.272 30.8991 104.237 30.8991C103.655 30.8991 102.967 30.5811 102.596 30.1041V32.8071H101.59V26.2881H102.49ZM104.078 29.9981C104.925 29.9981 105.507 29.3621 105.507 28.5141C105.507 27.7191 104.925 27.0831 104.078 27.0831C103.231 27.0831 102.596 27.7191 102.596 28.5141C102.596 29.3621 103.231 29.9981 104.078 29.9981Z"
          fill="#1D1D1B"/>
    <path d="M112.441 29.9983C112.812 29.9983 113.182 29.7863 113.182 29.0443V26.3413H116.729V30.8993H115.723V27.2423H114.135V29.0973C114.135 30.3693 113.394 30.9523 112.441 30.8993V29.9983Z"
          fill="#1D1D1B"/>
    <path fill-rule="evenodd" clip-rule="evenodd"
          d="M111.912 28.5674C111.912 29.9454 110.906 30.8994 109.53 30.8994C108.101 30.8994 107.095 29.9454 107.095 28.5674C107.095 27.2424 108.101 26.2354 109.53 26.2354C110.906 26.2354 111.912 27.2424 111.912 28.5674ZM110.906 28.5674C110.906 27.7194 110.324 27.1364 109.53 27.1364C108.683 27.1364 108.101 27.7724 108.101 28.5674C108.101 29.4154 108.683 29.9984 109.53 29.9984C110.324 29.9984 110.906 29.4154 110.906 28.5674Z"
          fill="#1D1D1B"/>
</svg>
