<svg viewBox="0 0 66 17" fill="none" xmlns="http://www.w3.org/2000/svg">
    <path fill-rule="evenodd" clip-rule="evenodd"
          d="M17.5203 13.886C14.3444 13.886 11.6449 11.077 11.6449 7.36698L16.4087 2.22598C20.4845 1.96098 23.2898 4.92898 23.2898 8.10898C23.2898 8.60365 23.2193 9.09831 23.0781 9.59298H14.8737C15.403 10.494 16.3558 11.077 17.5203 11.077H21.7548V13.886H17.5203ZM14.8737 6.67798H20.114C19.5846 5.72398 18.6319 5.14098 17.5203 5.14098C16.3558 5.14098 15.403 5.72398 14.8737 6.67798Z"
          fill="#1D1D1B"/>
    <path fill-rule="evenodd" clip-rule="evenodd"
          d="M2.91124 3.445C3.38762 3.021 4.55211 2.544 5.71661 2.544C8.8925 2.544 11.4862 5.141 11.4862 8.321C11.4862 11.501 8.8925 14.098 5.71661 14.098C2.59364 14.098 0 11.501 0 8.321V0H2.91124V3.445ZM8.68079 8.321C8.68079 6.678 7.35749 5.353 5.71661 5.353C4.07573 5.353 2.75245 6.678 2.75245 8.321C2.75245 9.964 4.07573 11.289 5.71661 11.289C7.35749 11.289 8.68079 9.964 8.68079 8.321Z"
          fill="#1D1D1B"/>
    <path fill-rule="evenodd" clip-rule="evenodd"
          d="M65.2646 0V10.017L60.5008 14.045C56.2133 14.045 53.7784 11.501 53.7784 8.321C53.7784 5.141 56.3721 2.544 59.548 2.544C60.7654 2.544 61.877 3.021 62.4063 3.392V0H65.2646ZM62.5122 8.321C62.5122 6.678 61.1889 5.353 59.548 5.353C57.9071 5.353 56.5838 6.678 56.5838 8.321C56.5838 9.964 57.9071 11.289 59.548 11.289C61.1889 11.289 62.5122 9.964 62.5122 8.321Z"
          fill="#1D1D1B"/>
    <path fill-rule="evenodd" clip-rule="evenodd"
          d="M27.7361 16.4298H24.8778V8.10877C24.8778 4.92877 27.4185 2.38477 30.5944 2.38477C33.7703 2.38477 36.364 4.92877 36.364 8.10877C36.364 11.2888 33.7703 13.8858 30.5944 13.8858C29.4299 13.8858 28.2654 13.4088 27.7361 12.9848V16.4298ZM33.5586 8.16176C33.5586 6.51876 32.2353 5.19377 30.5944 5.19377C28.9535 5.19377 27.6303 6.51876 27.6303 8.16176C27.6303 9.80476 28.9535 11.1298 30.5944 11.1298C32.2353 11.1298 33.5586 9.80476 33.5586 8.16176Z"
          fill="#1D1D1B"/>
    <path fill-rule="evenodd" clip-rule="evenodd"
          d="M45.2565 11.13L42.3982 13.992C39.1693 13.992 36.5757 11.395 36.5757 8.16203C36.5757 4.98203 39.1693 2.33203 42.3982 2.33203C45.627 2.33203 48.2206 4.98203 48.2206 8.16203V13.886H45.2565V11.13ZM45.4153 8.21503C45.4153 6.57203 44.039 5.19403 42.3982 5.19403C40.7573 5.19403 39.3811 6.57203 39.3811 8.21503C39.3811 9.85803 40.7573 11.236 42.3982 11.236C44.039 11.236 45.4153 9.85803 45.4153 8.21503Z"
          fill="#1D1D1B"/>
    <path d="M49.5969 5.19385H52.4552V13.8858H49.5969V5.19385Z" fill="#1D1D1B"/>
    <path d="M49.5969 0H52.4552V2.862H49.5969V0Z" fill="#FF8E09"/>
</svg>
