<svg viewBox="0 0 42 36" fill="none" xmlns="http://www.w3.org/2000/svg">
    <path d="M18.778 5.87278C22.2217 3.72984 25.8056 1.31408 29.7541 2.23092C33.898 3.19317 37.1915 6.4849 38.6371 10.4841C40.0064 14.2723 38.6373 18.2255 36.8399 21.8338C34.9106 25.7071 32.7476 30.2641 28.4673 30.9008C24.2404 31.5296 21.3065 27.3677 18.0278 24.6322C14.5211 21.7065 9.1518 19.5025 9.33437 14.9376C9.5177 10.3537 14.8803 8.29827 18.778 5.87278Z" fill="#F6B960" fill-opacity="0.5"/>
    <path fill-rule="evenodd" d="M5.01482 7.04826C8.83456 3.17271 15.0877 3.17272 18.9074 7.04826C21.8926 10.0774 22.5707 14.6917 20.5832 18.4516L13.6135 31.6361C12.9118 32.9633 11.0105 32.9633 10.3088 31.6361L3.33904 18.4516C1.35144 14.6917 2.02961 10.0774 5.01482 7.04826ZM11.9611 9.34513C9.48396 9.34513 7.47576 11.3533 7.47576 13.8305C7.47602 16.3074 9.48412 18.3149 11.9611 18.3149C14.4381 18.3148 16.4462 16.3074 16.4465 13.8305C16.4465 11.3533 14.4382 9.34516 11.9611 9.34513Z" fill="#00D3E8" stroke="#1D1D1B" stroke-linecap="round"/>
    <path d="M4.48535 32.8921H19.4363" stroke="#1D1D1B" stroke-linecap="round"/>
    <path fill-rule="evenodd" d="M28.3352 16.366C31.1281 13.5323 35.7005 13.5323 38.4934 16.366C40.6764 18.5808 41.1723 21.9555 39.719 24.7048L35.0667 33.5046C34.365 34.8319 32.4636 34.8319 31.762 33.5046L27.1106 24.7048C25.6572 21.9555 26.1522 18.5808 28.3352 16.366ZM33.4143 18.0456C31.6033 18.0458 30.1352 19.514 30.135 21.3249C30.135 23.1361 31.6032 24.6051 33.4143 24.6052C35.2256 24.6052 36.6946 23.1362 36.6946 21.3249C36.6944 19.5139 35.2254 18.0456 33.4143 18.0456Z" fill="#C8E600" stroke="#1D1D1B" stroke-linecap="round"/>
    <path d="M27.9485 35.2632H38.8804" stroke="#1D1D1B" stroke-linecap="round"/>
</svg>