<svg viewBox="0 0 97 79" fill="none"
     xmlns="http://www.w3.org/2000/svg">
    <path d="M58.0612 1.99509V36.7561H0.5V1.9951C0.5 1.16938 1.16938 0.5 1.9951 0.5H56.5661C57.3918 0.5 58.0612 1.16938 58.0612 1.99509Z"
          fill="#C8E600" stroke="#1D1D1B" stroke-linecap="round"/>
    <path fill-rule="evenodd" clip-rule="evenodd"
          d="M0.5 44.6052H11.7132C9.32107 46.2 8.47385 49.2566 8.34925 50.5856H5.35906C2.67547 50.5856 0.5 48.4101 0.5 45.7265V44.6052ZM66.2842 50.5856H26.2904C25.9914 47.3961 23.7986 45.2697 22.7396 44.6052H70.022C67.0318 46.2 66.2842 49.2566 66.2842 50.5856ZM84.2254 50.5856H90.2058C93.0958 50.5856 95.4386 48.2428 95.4386 45.3528V44.6052H80.8614C81.9204 45.2697 84.0759 47.3961 84.2254 50.5856Z"
          fill="#00D3E8"/>
    <path d="M61.9858 7.97534H69.33C74.4039 7.97534 79.0883 10.6334 82.0243 14.7715C84.9823 18.9405 88.937 24.0036 92.4652 26.8227C94.2007 28.2093 95.6255 30.2001 95.6255 32.4214C95.6255 36.2361 95.6255 42.0813 95.6255 46.1052C95.6255 48.5823 93.6174 50.5856 91.1402 50.5856H84.5992M63.294 50.5856H30.0281M61.9858 44.4183H27.9724M6.85416 44.4183H0.5M0.5 44.4183V37.1297M0.5 44.4183V46.1003C0.5 48.5774 2.50813 50.5856 4.98529 50.5856H8.34925"
          stroke="#1D1D1B" stroke-linecap="round"/>
    <circle cx="75.2548" cy="51.3331" r="8.84435" stroke="#1D1D1B" stroke-linecap="round"/>
    <circle cx="17.3198" cy="51.3332" r="3.73774" fill="#1D1D1B"/>
    <circle cx="75.2548" cy="51.3332" r="3.73774" fill="#1D1D1B"/>
    <circle cx="17.3198" cy="51.3331" r="8.84435" stroke="#1D1D1B" stroke-linecap="round"/>
    <path d="M90.1123 34.7002H95.4386V39.3724H90.1123C88.8221 39.3724 87.7762 38.3265 87.7762 37.0363C87.7762 35.7461 88.8221 34.7002 90.1123 34.7002Z"
          fill="#00D3E8" stroke="#1D1D1B" stroke-linecap="round"/>
    <path d="M65.3498 16.1985V25.7297C65.3498 26.349 65.8518 26.851 66.4711 26.851H82.4066C83.3548 26.851 83.875 25.7472 83.2713 25.0159L75.4043 15.4847C75.1913 15.2266 74.8741 15.0771 74.5395 15.0771H66.4711C65.8518 15.0771 65.3498 15.5792 65.3498 16.1985Z"
          fill="#00D3E8" stroke="#1D1D1B" stroke-linecap="round"/>
    <path d="M65.3498 32.6445H70.3957" stroke="#1D1D1B" stroke-linecap="round"/>
    <path d="M38.5147 49.03C42.3345 45.1545 48.5876 45.1545 52.4073 49.03C55.3928 52.0592 56.0708 56.6743 54.0831 60.4343L47.1134 73.6189C46.4117 74.9458 44.5104 74.9458 43.8087 73.6189L36.839 60.4343C34.8512 56.6742 35.5292 52.0592 38.5147 49.03ZM45.461 51.3269C42.984 51.3269 40.9758 53.3352 40.9757 55.8123C40.9757 58.2894 42.9839 60.2976 45.461 60.2976C47.9381 60.2976 49.9464 58.2894 49.9464 55.8123C49.9462 53.3353 47.9381 51.327 45.461 51.3269Z"
          fill="#00D3E8"/>
    <path d="M54.0827 60.434L47.113 73.6183C46.4113 74.9455 44.5102 74.9455 43.8085 73.6183L36.8388 60.434C34.8511 56.6739 35.5293 52.0593 38.5148 49.0301C42.3345 45.1545 48.587 45.1545 52.4067 49.0301C55.3923 52.0592 56.0705 56.6739 54.0827 60.434Z"
          stroke="#1D1D1B" stroke-linecap="round"/>
    <circle cx="45.4609" cy="55.8124" r="3.98529" stroke="#1D1D1B" stroke-linecap="round"/>
    <path d="M37.9854 74.8748H52.9364" stroke="#1D1D1B" stroke-linecap="round"/>
    <path d="M61.8351 58.3484C64.628 55.5147 69.2004 55.5148 71.9933 58.3484C74.1763 60.5632 74.6722 63.938 73.2189 66.6873L68.5665 75.4871C67.8649 76.8143 65.9635 76.8143 65.2618 75.4871L60.6105 66.6873C59.1571 63.9379 59.6521 60.5633 61.8351 58.3484ZM66.9142 60.0281C65.1032 60.0282 63.6351 61.4964 63.6349 63.3074C63.6349 65.1185 65.103 66.5875 66.9142 66.5876C68.7254 66.5876 70.1945 65.1186 70.1945 63.3074C70.1942 61.4963 68.7253 60.0281 66.9142 60.0281Z"
          fill="#C8E600"/>
    <path d="M73.2186 66.6868L68.5665 75.4868C67.8649 76.8141 65.9637 76.8141 65.2621 75.4868L60.6101 66.6868C59.1567 63.9375 59.6526 60.5634 61.8356 58.3485C64.6285 55.5148 69.2001 55.5148 71.9931 58.3485C74.1761 60.5634 74.672 63.9375 73.2186 66.6868Z"
          stroke="#1D1D1B" stroke-linecap="round"/>
    <circle cx="66.9143" cy="63.3076" r="2.77957" stroke="#1D1D1B" stroke-linecap="round"/>
    <path d="M61.4485 77.2458H72.3804" stroke="#1D1D1B" stroke-linecap="round"/>
</svg>