<svg class="footer__payment-icon" viewBox="0 0 69 24" fill="none" xmlns="http://www.w3.org/2000/svg">
    <path fill-rule="evenodd" clip-rule="evenodd"
          d="M35.517 8.85079C36.4698 9.98145 36.805 11.3065 36.5227 12.8258H29.4299C29.7475 13.9918 30.7003 14.6808 31.9706 14.6808C33.0293 14.6808 33.7703 14.2568 34.2467 13.4088L36.2052 14.3098C35.4112 15.7938 33.8232 16.8008 31.8647 16.8008C30.4356 16.8008 29.2711 16.3238 28.3713 15.4228C27.4185 14.5041 26.9421 13.3558 26.9421 11.9778C26.9421 10.5998 27.4009 9.45145 28.3183 8.53278C29.2711 7.61412 30.4356 7.15479 31.8118 7.15479C33.3468 7.15479 34.5643 7.73779 35.517 8.85079ZM29.4828 10.9708H34.1408C33.7703 9.91079 32.9234 9.27479 31.8118 9.27479C30.7003 9.27479 29.8004 9.91079 29.4828 10.9708Z"
          fill="#1E4078"/>
    <path fill-rule="evenodd" clip-rule="evenodd"
          d="M46.368 8.53278C47.2149 9.45145 47.6384 10.5998 47.6384 11.9778C47.6384 13.3558 47.2149 14.5041 46.368 15.4228C45.5211 16.3415 44.4625 16.8008 43.1921 16.8008C42.0277 16.8008 41.0572 16.3768 40.2809 15.5288V20.1928H37.8461V7.36679H40.2809V8.42679C41.0572 7.57879 42.0277 7.15479 43.1921 7.15479C44.4625 7.15479 45.5211 7.61412 46.368 8.53278ZM42.7158 14.5748C43.4215 14.5748 44.0038 14.3275 44.4625 13.8328C44.886 13.3558 45.1507 12.7198 45.1507 11.9778C45.1507 11.2358 44.886 10.5998 44.4625 10.1228C44.0038 9.62812 43.4215 9.38079 42.7158 9.38079C42.01 9.38079 41.4278 9.62812 40.969 10.1228C40.5103 10.6175 40.2809 11.2358 40.2809 11.9778C40.2809 12.7198 40.4927 13.3558 40.969 13.8328C41.4278 14.3275 42.01 14.5748 42.7158 14.5748Z"
          fill="#1E4078"/>
    <path d="M51.2907 13.0912L55.684 7.36719H58.013V16.5892H55.631V10.8652L51.1848 16.5892H48.8558V7.36719H51.2907V13.0912Z"
          fill="#1E4078"/>
    <path d="M62.4063 16.5892H59.9715V7.36719H68.811V16.5892H66.3762V9.48719H62.4063V16.5892Z"
          fill="#1E4078"/>
    <path d="M5.55782 0L11.1686 6.837L8.36322 10.229L0 0H5.55782Z" fill="url(#paint0_linear_312_1097)"/>
    <path d="M15.8795 4.399L13.921 6.837L8.36322 0H13.18C13.6564 0 14.1328 0.212 14.4504 0.583L15.8795 2.385C16.3559 2.968 16.4088 3.816 15.8795 4.399Z"
          fill="url(#paint1_linear_312_1097)"/>
    <path d="M22.8664 12.9852L14.8738 22.7372C14.6091 23.1082 14.1327 23.3202 13.6564 23.3202H8.83954L20.908 8.5332L22.8664 10.9182C23.3428 11.5012 23.3428 12.4022 22.8664 12.9852Z"
          fill="url(#paint2_linear_312_1097)"/>
    <path d="M18.6849 7.84376L6.0342 23.3198H0.423462L13.921 6.83677L15.8795 4.39877C16.4088 3.81577 16.3558 2.96777 15.8795 2.38477L18.6849 5.77677C19.1612 6.41277 19.1612 7.26077 18.6849 7.84376Z"
          fill="url(#paint3_linear_312_1097)"/>
    <defs>
        <linearGradient id="paint0_linear_312_1097" x1="0.173086" y1="1.22642" x2="15.8734" y2="10.1854"
                        gradientUnits="userSpaceOnUse">
            <stop stop-color="#F6B960" offset=""/>
            <stop offset="1" stop-color="#E7362F"/>
        </linearGradient>
        <linearGradient id="paint1_linear_312_1097" x1="6.62178" y1="-0.68794" x2="22.3222" y2="8.27065"
                        gradientUnits="userSpaceOnUse">
            <stop offset="0.047" stop-color="#F6B960"/>
            <stop offset="0.761" stop-color="#E7362F"/>
        </linearGradient>
        <linearGradient id="paint2_linear_312_1097" x1="10.7631" y1="24.4507" x2="22.827" y2="9.55491"
                        gradientUnits="userSpaceOnUse">
            <stop stop-color="#E7362F" offset=""/>
            <stop offset="1" stop-color="#F6B960"/>
        </linearGradient>
        <linearGradient id="paint3_linear_312_1097" x1="1.7891" y1="24.4783" x2="16.9736" y2="5.55419"
                        gradientUnits="userSpaceOnUse">
            <stop stop-color="#E7362F" offset=""/>
            <stop offset="1" stop-color="#F6B960"/>
        </linearGradient>
    </defs>
</svg>
