<svg viewBox="0 0 42 36" fill="none" xmlns="http://www.w3.org/2000/svg">
    <path fill-rule="evenodd" clip-rule="evenodd" d="M18.778 5.55832C22.2217 3.41539 25.8056 0.999622 29.7541 1.91647C33.898 2.87871 37.1915 6.17045 38.6371 10.1697C40.0064 13.9578 38.6373 17.911 36.8399 21.5193C34.9106 25.3927 32.7476 29.9497 28.4673 30.5864C24.2404 31.2152 21.3065 27.0533 18.0278 24.3177C14.5211 21.392 9.1518 19.188 9.33437 14.6232C9.5177 10.0392 14.8803 7.98382 18.778 5.55832Z" fill="#FB442C" fill-opacity="0.5"/>
    <path d="M18.835 8.75C19.7972 7.08335 22.2028 7.08335 23.165 8.75L35.2891 29.75C36.2513 31.4167 35.0485 33.5 33.124 33.5H8.87598C7.01152 33.5 5.82425 31.5447 6.62695 29.9072L6.71094 29.75L18.835 8.75Z" fill="#FB442C" stroke="black"/>
    <path d="M21.7812 25.9375H20.3984L20.0234 18H22.1562L21.7812 25.9375ZM19.9297 28.4531C19.9297 28.026 20.0391 27.7266 20.2578 27.5547C20.4818 27.3776 20.7552 27.2891 21.0781 27.2891C21.3958 27.2891 21.6667 27.3776 21.8906 27.5547C22.1146 27.7266 22.2266 28.026 22.2266 28.4531C22.2266 28.8698 22.1146 29.1719 21.8906 29.3594C21.6667 29.5417 21.3958 29.6328 21.0781 29.6328C20.7552 29.6328 20.4818 29.5417 20.2578 29.3594C20.0391 29.1719 19.9297 28.8698 19.9297 28.4531Z" fill="white"/>
</svg>