<svg viewBox="0 0 54 29" fill="none" xmlns="http://www.w3.org/2000/svg">
    <path d="M38.9047 0H14.0798C6.35178 0 0 6.36 0 14.151C0 21.889 6.35178 28.249 14.0798 28.249H38.9047C46.6857 28.249 53.0374 21.889 53.0374 14.151C53.0374 6.36 46.6857 0 38.9047 0Z"
          fill="white"/>
    <path fill-rule="evenodd" clip-rule="evenodd"
          d="M53.0374 14.151C53.0374 21.889 46.6857 28.249 38.9047 28.249H14.0798C6.35178 28.249 0 21.889 0 14.151C0 6.36 6.35178 0 14.0798 0H38.9047C46.6857 0 53.0374 6.36 53.0374 14.151ZM14.0798 1.166C12.386 1.166 10.6922 1.484 9.05129 2.173C7.51627 2.809 6.14008 3.763 4.97558 4.982C3.75816 6.148 2.80536 7.526 2.17018 9.116C1.48207 10.706 1.1645 12.402 1.1645 14.151C1.1645 15.847 1.48207 17.543 2.17018 19.186C2.80536 20.723 3.75816 22.101 4.97558 23.267C6.14008 24.486 7.51627 25.44 9.05129 26.076C10.6922 26.765 12.386 27.083 14.0798 27.083H38.9047C40.6515 27.083 42.3453 26.765 43.9332 26.076C45.5212 25.44 46.8974 24.486 48.0619 23.267C49.2793 22.101 50.1791 20.723 50.8672 19.186C51.5554 17.543 51.873 15.847 51.873 14.151C51.873 12.402 51.5554 10.706 50.8672 9.116C50.1791 7.526 49.2793 6.148 48.0619 4.982C46.8974 3.763 45.5212 2.809 43.9332 2.173C42.3453 1.484 40.6515 1.166 38.9047 1.166H14.0798Z"
          fill="#3C4043"/>
    <path fill-rule="evenodd" clip-rule="evenodd"
          d="M25.3013 19.3981H23.925V8.85107H27.5244C28.4419 8.85107 29.2182 9.15141 29.8534 9.75207C30.4886 10.3527 30.8061 11.0947 30.8061 11.9781C30.8061 12.8967 30.4886 13.6387 29.8534 14.2041C29.2182 14.8047 28.4419 15.1051 27.5244 15.1051H25.3013V19.3981ZM25.3013 13.8331H27.5244C28.089 13.8331 28.5477 13.6564 28.9006 13.3031C29.2535 12.9497 29.4299 12.5257 29.4299 12.0311C29.4299 11.5364 29.2535 11.0947 28.9006 10.7061C28.5477 10.3527 28.089 10.1761 27.5244 10.1761H25.3013V13.8331Z"
          fill="#3C4043"/>
    <path fill-rule="evenodd" clip-rule="evenodd"
          d="M34.3526 11.9253C35.3406 11.9253 36.1346 12.208 36.7345 12.7733C37.2991 13.3033 37.5814 14.0276 37.5814 14.9463V19.3983H36.311V18.3913H36.2581C35.6935 19.2393 34.9348 19.6456 33.982 19.6103C33.2057 19.6456 32.5529 19.416 32.0236 18.9213C31.4943 18.462 31.2296 17.879 31.2296 17.1723C31.2296 16.4303 31.5119 15.8296 32.0765 15.3703C32.6411 14.9463 33.3822 14.7343 34.2997 14.7343C35.1113 14.7343 35.7817 14.8756 36.311 15.1583V14.8403C36.311 14.381 36.117 13.9923 35.7288 13.6743C35.3759 13.321 34.9348 13.1443 34.4055 13.1443C33.6645 13.1443 33.0822 13.4623 32.6587 14.0983L31.4414 13.3563C32.1118 12.4023 33.0822 11.9253 34.3526 11.9253ZM32.6058 17.1723C32.6058 17.5256 32.7646 17.826 33.0822 18.0733C33.3645 18.3206 33.6998 18.4443 34.0879 18.4443C34.6878 18.4443 35.1995 18.2323 35.623 17.8083C36.0817 17.3843 36.311 16.872 36.311 16.2713C35.8876 15.9533 35.2877 15.7943 34.5113 15.7943C33.982 15.7943 33.5409 15.918 33.1881 16.1653C32.7999 16.448 32.6058 16.7836 32.6058 17.1723Z"
          fill="#3C4043"/>
    <path d="M44.9389 12.1899L40.4397 22.5779H39.0635L40.7044 18.9209L37.7402 12.1899H39.2223L41.3395 17.3839H41.3925L43.4568 12.1899H44.9389Z"
          fill="#3C4043"/>
    <path d="M19.9023 14.2569C19.9023 13.8329 19.867 13.4089 19.7964 12.9849H14.1328V15.3169H17.3616C17.2557 16.1119 16.8323 16.7479 16.1441 17.2249V18.7089H18.1026C19.2671 17.6489 19.9023 16.1119 19.9023 14.2569Z"
          fill="#4285F4"/>
    <path d="M16.1441 17.2247C15.6148 17.5957 14.9267 17.8077 14.1327 17.8077C12.5448 17.8077 11.2215 16.6947 10.7451 15.2637H8.7337V16.8537C9.68647 18.8147 11.7508 20.1927 14.1327 20.1927C15.7207 20.1927 17.0969 19.6627 18.1026 18.7087L16.1441 17.2247Z"
          fill="#34A853"/>
    <path d="M10.5334 14.151C10.5334 13.727 10.6039 13.3384 10.7451 12.985V11.395H8.7337C8.31024 12.243 8.09851 13.144 8.09851 14.151C8.09851 15.105 8.31024 16.006 8.7337 16.854L10.7451 15.264C10.6039 14.9107 10.5334 14.5397 10.5334 14.151Z"
          fill="#FABB05"/>
    <path d="M14.1327 10.4939C14.9796 10.4939 15.8265 10.7589 16.4088 11.3949L18.1555 9.64589C17.0969 8.69189 15.7207 8.10889 14.1327 8.10889C11.7508 8.10889 9.68647 9.43389 8.7337 11.3949L10.7451 12.9849C11.2215 11.5539 12.5448 10.4939 14.1327 10.4939Z"
          fill="#E94235"/>
</svg>