<svg viewBox="0 0 64 64" fill="none" xmlns="http://www.w3.org/2000/svg">
    <path d="M57 32.44C57 30.5542 56.8343 28.7408 56.5265 27H32V37.2998H46.0152C45.3996 40.6122 43.553 43.4168 40.7831 45.3027V52H49.2348C54.1591 47.3578 57 40.5397 57 32.44Z"
          fill="#4285F4"/>
    <path d="M31.9708 58C38.9181 58 44.7427 55.6876 49 51.7236L40.6491 45.1876C38.3567 46.7449 35.4327 47.6888 31.9708 47.6888C25.2807 47.6888 19.5965 43.1348 17.5614 37H9V43.7011C13.2339 52.1719 21.9123 58 31.9708 58Z"
          fill="#34A853"/>
    <path d="M17 37.0872C16.5 35.4807 16.2045 33.7769 16.2045 32C16.2045 30.2231 16.5 28.5193 17 26.9128V20H8.68182C6.97727 23.6024 6 27.6673 6 32C6 36.3327 6.97727 40.3976 8.68182 44L15.1591 38.5963L17 37.0872Z"
          fill="#FBBC05"/>
    <path d="M31.8638 16.3232C35.6356 16.3232 38.9884 17.6431 41.6659 20.1886L49 12.7643C44.553 8.56902 38.7788 6 31.8638 6C21.8522 6 13.2142 11.8215 9 20.3064L17.5215 27C19.5471 20.8721 25.2049 16.3232 31.8638 16.3232Z"
          fill="#EA4335"/>
</svg>