<svg viewBox="0 0 1413 571" fill="none" xmlns="http://www.w3.org/2000/svg">
    <path d="M533.846 168.5C263.446 202.5 63.8456 467 43.3456 548.5C90.8456 445 397.969 316.789 632.846 431C869.346 546 1189.35 577.5 1475.35 413.5V0C1426.35 0 1449.75 100.7 1249.35 213.5C998.846 354.5 871.846 126 533.846 168.5Z" fill="#C8E600" fill-opacity="0.3"/>
    <g clip-path="url(#clip0_312_192)">
        <path d="M97.5778 501.957L70.461 554.86C66.9949 561.623 58.7222 564.288 51.96 560.822L19.5417 544.206C12.7796 540.74 10.1137 532.467 13.5798 525.705L40.6966 472.801L97.5778 501.957Z" fill="#F1F2F1"/>
        <path d="M51.9091 560.922L19.4908 544.305C12.6292 540.788 10.0143 532.416 13.4803 525.654L40.5972 472.75C40.6481 472.651 40.7985 472.602 40.898 472.653L97.6798 501.758C97.7792 501.809 97.8277 501.959 97.7767 502.059L70.6599 554.962C67.1938 561.724 58.7706 564.439 51.9091 560.922ZM40.9874 473.704L14.3293 525.712C10.9652 532.275 13.5342 540.247 20.0974 543.612L52.118 560.024C58.6812 563.388 66.6531 560.819 70.0172 554.256L96.6753 502.248L40.9874 473.704Z" fill="#1D1D1B" stroke="#1D1D1B"/>
        <path d="M85.7415 521.129C85.3847 521.825 82.2594 524.493 81.4639 524.085C80.6683 523.677 82.6003 520.398 82.9571 519.702C83.3139 519.006 84.2163 518.715 85.0119 519.123C85.8074 519.531 86.0983 520.433 85.7415 521.129Z" fill="#C8E600"/>
        <path d="M75.5174 491.585C73.3047 492.962 71.4697 496.542 70.858 497.736C69.9405 499.526 66.7209 501.642 65.1448 499.328C63.6682 497.064 66.8394 494.797 67.0123 492.5C67.1852 490.202 64.0005 488.821 63.6747 491.417C63.3998 493.913 59.2082 493.271 57.2044 493.751C55.2005 494.23 53.6539 498.963 53.6289 501.461C53.6039 503.96 48.8876 505.812 46.5644 503.24C44.3407 500.719 48.1595 498.658 50.1834 496.179C52.2582 493.601 52.4102 488.405 51.7875 485.7C51.1649 482.995 48.6973 484.87 42.2955 485.355C37.5942 485.708 39.719 478.133 41.1587 474.099L75.4664 491.685L75.5174 491.585Z" fill="#C8E600"/>
        <path d="M94.6591 501.442C93.1325 504.175 86.5417 503.56 85.2875 504.047C83.8828 504.582 81.5531 507.658 80.1743 510.592C78.7956 513.527 75.7873 514.497 74.0124 512.08C72.2374 509.663 78.8397 504.132 81.1159 501.406C82.4311 499.82 81.6631 496.664 80.0895 494.099L94.6081 501.541L94.6591 501.442Z" fill="#C8E600"/>
        <path d="M55.9371 507.987C55.6313 508.584 52.7684 510.005 52.2712 509.75C51.6746 509.444 52.1458 507.3 52.4516 506.703C52.7575 506.106 53.3591 505.912 53.9558 506.218C54.453 506.473 56.243 507.391 55.9371 507.987Z" fill="#C8E600"/>
        <path d="M76.355 500.245C76.1386 501.892 75.4735 503.435 74.4106 504.774L72.8429 506.607C72.2873 507.201 72.4786 508.053 73.1747 508.41L73.5725 508.613C74.2686 508.97 75.0716 508.628 75.2296 507.83L76.0626 504.49C76.2715 503.593 76.7787 502.848 77.3854 502.155L78.2929 501.364C78.948 500.821 78.8076 499.87 78.012 499.462C77.3669 499.006 76.5129 499.447 76.355 500.245Z" fill="#C8E600"/>
        <path d="M50.8894 522.98C31.1998 512.887 22.2236 490.958 30.9397 473.953C31.0416 473.754 31.3425 473.657 31.5413 473.759L38.204 477.174C38.4029 477.276 38.4998 477.577 38.3979 477.776C38.2959 477.975 37.9951 478.072 37.7962 477.97L31.4319 474.708C23.2205 491.218 32.0538 512.446 51.2462 522.283C70.4386 532.121 92.8813 526.798 101.491 510.492L94.8278 507.077C94.629 506.975 94.532 506.674 94.634 506.475C94.7359 506.276 95.0367 506.179 95.2356 506.281L102.197 509.849C102.395 509.951 102.492 510.252 102.39 510.451C93.6234 527.555 70.5791 533.072 50.8894 522.98Z" fill="#1D1D1B" stroke="#1D1D1B"/>
        <path d="M94.0658 508.319C93.2702 507.911 92.9794 507.008 93.3872 506.213C93.795 505.417 94.6974 505.127 95.493 505.534" fill="#1D1D1B"/>
        <path d="M39.0095 476.583C39.8051 476.99 40.0959 477.893 39.6881 478.688C39.2804 479.484 38.3779 479.775 37.5823 479.367" fill="#1D1D1B"/>
    </g>
    <defs>
        <clipPath id="clip0_312_192">
            <rect width="80.2329" height="73.5282" fill="white" transform="translate(33.5392 468.881) rotate(27.1384)"/>
        </clipPath>
    </defs>
</svg>
