<svg viewBox="0 0 42 36" fill="none" xmlns="http://www.w3.org/2000/svg">
    <path d="M18.778 5.55832C22.2217 3.41539 25.8056 0.999622 29.7541 1.91647C33.898 2.87871 37.1915 6.17045 38.6371 10.1697C40.0064 13.9578 38.6373 17.911 36.8399 21.5193C34.9106 25.3927 32.7476 29.9497 28.4673 30.5864C24.2404 31.2152 21.3065 27.0533 18.0278 24.3177C14.5211 21.392 9.1518 19.188 9.33437 14.6232C9.5177 10.0392 14.8803 7.98382 18.778 5.55832Z" fill="#87C7F9" fill-opacity="0.5"/>
    <path d="M9.5592 21.7312L7.11395 17.4959L3.90942 19.3461C1.99625 20.4506 1.34075 22.897 2.44532 24.8102L3.41074 26.4823C4.47393 28.3238 6.82863 28.9548 8.67013 27.8916L12.0044 25.9665L9.5592 21.7312ZM31.677 20.2556L21.896 3.31445L20.6359 4.52335L19.8845 5.24423L29 21.0327L30 20.7425L31.677 20.2556Z" fill="#C8E600"/>
    <path d="M7.11395 17.4959L9.5592 21.7312L12.0044 25.9665L29 21.0327L19.8845 5.24423L7.11395 17.4959ZM13.5031 28.5623L12.0044 25.9665L8.67013 27.8916L12.3774 34.3128L15.7118 32.3878L13.5031 28.5623Z" fill="#00D3E8"/>
    <path d="M7.11395 17.4959L9.5592 21.7312L12.0044 25.9665M7.11395 17.4959L3.90942 19.3461C1.99625 20.4506 1.34075 22.897 2.44532 24.8102L3.41074 26.4823C4.47393 28.3238 6.82863 28.9548 8.67013 27.8916M12.0044 25.9665L29 21.0327L30 20.7425L31.677 20.2556L21.896 3.31445L20.6359 4.52335L19.8845 5.24423L7.11395 17.4959M12.0044 25.9665L13.5031 28.5623L15.7118 32.3878L12.3774 34.3128L8.67013 27.8916M12.0044 25.9665L8.67013 27.8916M29 21.0327L19.8845 5.24423" stroke="black"/>
    <path d="M28.4112 7.38665L27.7133 6.98406L31.14 1.04889L31.838 1.45147L28.4112 7.38665ZM38.4463 13.6959L31.593 13.6959L31.5933 12.8902L38.4466 12.8902L38.4463 13.6959ZM36.2649 6.98763L30.3297 10.4143L29.9266 9.71603L35.8617 6.28938L36.2649 6.98763Z" fill="black"/>
</svg>