<svg viewBox="0 0 150 26" fill="none" xmlns="http://www.w3.org/2000/svg">
    <path d="M6.50154 1.12942C8.82421 0.00275159 11.6149 -0.28614 14.0444 0.684527C16.2458 1.45875 18.1611 3.06208 19.1549 5.1912C18.1033 5.77475 17.0402 6.34097 16.0551 7.03142C15.3098 6.11275 14.5009 5.18831 13.4089 4.67697C10.7078 3.33075 7.04466 4.54409 5.7071 7.25097C4.9271 9.18653 4.96177 11.5901 6.23577 13.3147C7.61377 15.2619 10.3235 16.1285 12.5798 15.3774C14.0387 15.0134 15.1538 13.9214 16.0638 12.7832C17.0778 13.5083 18.1698 14.1121 19.2358 14.7563C16.8669 19.5085 10.156 21.0165 5.76777 18.2143C3.17643 16.6601 1.42288 13.8492 1.04443 10.8621V9.35697C1.24088 5.92497 3.32954 2.55942 6.50154 1.12942Z"
          fill="#1D1D1B" stroke="#1D1D1B" stroke-width="0.0722222"/>
    <path d="M35.7083 0.462228C37.0458 0.496894 38.3834 0.372671 39.7209 0.465115C39.2212 1.06312 38.7878 1.71312 38.3747 2.37178C37.6352 3.47245 36.9014 4.57889 36.2283 5.72289C35.7372 6.47689 35.2547 7.23378 34.7578 7.98201C34.6221 8.23623 34.4892 8.49045 34.3534 8.74756C34.1685 9.00178 33.9807 9.25312 33.7929 9.50734C33.8565 9.78467 33.8883 10.0793 34.0501 10.3278C35.6852 13.3611 37.5369 16.276 39.2558 19.2602C37.5658 19.292 35.8758 19.3238 34.1858 19.2602C33.5965 18.0151 32.8916 16.8365 32.1867 15.6549C31.4703 14.43 30.8318 13.1502 29.9681 12.0207C28.9165 12.0062 27.8678 12.0005 26.8192 11.9716C26.7903 14.3896 26.8047 16.8104 26.8221 19.2284C25.2938 19.292 23.7627 19.2313 22.2345 19.2891C22.2865 13.0029 22.2403 6.71667 22.2374 0.43045C23.7656 0.453561 25.2938 0.427558 26.8249 0.436224C26.8336 2.94378 26.7209 5.45423 26.8249 7.95889C27.7523 7.956 28.6796 7.99645 29.6041 7.93289C30.0114 7.97623 30.0749 7.47934 30.2829 7.24534C30.7509 6.21689 31.3663 5.26356 32.0249 4.34778C32.3312 3.81334 32.6634 3.29622 33.0187 2.79645C33.4492 2.14934 33.8941 1.50223 34.1714 0.771337C34.5874 0.369781 35.1825 0.485339 35.7083 0.462228Z"
          fill="#1D1D1B" stroke="#1D1D1B" stroke-width="0.0722222"/>
    <path d="M45.7211 0.768544C45.7962 0.690544 45.9464 0.534543 46.0215 0.456543C50.3606 0.499876 54.6997 0.496986 59.0388 0.45943C59.088 6.72832 59.0562 13.0001 59.0475 19.2719C57.5684 19.2777 56.0922 19.2661 54.616 19.2748C54.6477 14.329 54.4253 9.37454 54.6535 4.43743C53.0242 4.63099 51.3284 4.32765 49.7366 4.73499C49.6008 6.24299 49.4188 7.7481 49.3062 9.25899C49.0924 10.871 48.9855 12.4974 48.6677 14.095C48.3355 15.6434 47.4371 17.0503 46.1804 18.0094C45.6691 18.2694 45.1606 18.5323 44.6464 18.7808C44.1726 18.8819 43.696 18.9859 43.2337 19.1303C42.6213 19.1765 42.006 19.1968 41.3935 19.2025C41.4108 17.761 41.4282 16.3165 41.382 14.875C41.8268 14.8663 42.2746 14.8548 42.7224 14.8519C43.2482 14.4214 43.8404 14.0199 44.1611 13.4017C44.4557 12.6419 44.5395 11.8243 44.7157 11.0328C45.0248 7.60943 45.672 4.20921 45.7211 0.768544Z"
          fill="#1D1D1B" stroke="#1D1D1B" stroke-width="0.0722222"/>
    <path fill-rule="evenodd" clip-rule="evenodd"
          d="M68.4018 0.586569C70.4182 -0.100987 72.6629 -0.16454 74.6707 0.598127C75.0693 0.765682 75.468 0.944793 75.8667 1.12102C76.1238 1.36079 76.3838 1.59768 76.6438 1.83457C76.7593 1.84902 76.9905 1.8779 77.106 1.89235C77.0973 1.40413 77.0945 0.913014 77.0916 0.424792C78.6631 0.436347 80.2376 0.433458 81.812 0.433458C81.7427 6.70235 81.7629 12.9741 81.7918 19.243C80.5207 19.2921 79.2409 19.2632 77.9813 19.4799C77.9611 18.6826 77.9553 17.891 77.9698 17.0966C77.652 17.371 77.3256 17.631 76.9962 17.8852C76.2625 18.3128 75.5171 18.7144 74.7689 19.1159C74.376 19.2055 73.9831 19.3008 73.5989 19.4135C71.854 19.8901 70.0658 19.6417 68.3758 19.0726C65.874 17.9719 63.7478 15.9006 62.884 13.2746C61.9162 10.0824 62.3553 6.45968 64.2418 3.68057C65.276 2.25346 66.7465 1.18746 68.4018 0.586569ZM70.0282 4.82168C71.0682 4.38546 72.2093 4.36524 73.3129 4.51835C73.6711 4.67724 74.038 4.82746 74.402 4.98057C75.3669 5.38502 76.1151 6.12457 76.7189 6.95946C77.6058 8.43279 77.7213 10.2846 77.1378 11.8908C76.9905 12.1537 76.8489 12.4223 76.7131 12.691C76.3578 13.2832 75.9013 13.809 75.3698 14.251C74.1449 14.9877 72.6745 15.6261 71.2271 15.239C69.5169 15.0195 68.0927 13.7512 67.3791 12.2317C66.7869 11.027 66.9805 9.64323 67.0845 8.35768C67.2896 7.86657 67.4889 7.37835 67.6882 6.88724C68.2805 6.00612 69.1327 5.36768 70.0282 4.82168Z"
          fill="#1D1D1B" stroke="#1D1D1B" stroke-width="0.0722222"/>
    <path fill-rule="evenodd" clip-rule="evenodd"
          d="M89.4127 7.49684C89.7449 5.16262 90.1234 2.8284 90.2591 0.471069C94.7427 0.49418 99.2262 0.525958 103.707 0.462402C103.71 5.48618 103.727 10.5128 103.684 15.5366C104.594 15.528 105.51 15.5193 106.42 15.45C106.622 16.698 106.463 17.9633 106.552 19.22C99.3822 19.2142 92.212 19.246 85.0447 19.1997C85.0678 17.9402 85.0042 16.6777 85.1805 15.4268C86.2205 15.476 87.2662 15.5164 88.3091 15.4442C88.5691 12.7806 89.1036 10.1546 89.4127 7.49684ZM93.7027 7.77129C93.9165 6.50884 93.9078 5.21462 94.2631 3.97818C95.9647 4.11396 97.7067 3.78174 99.3765 4.18618C99.206 7.96196 99.4545 11.7522 99.206 15.5251C97.0307 15.4673 94.8525 15.4991 92.6771 15.5308C92.732 14.9531 92.7869 14.3753 92.8389 13.8004L92.9602 13.6328C93.0989 11.6655 93.5178 9.73284 93.7027 7.77129Z"
          fill="#1D1D1B" stroke="#1D1D1B" stroke-width="0.0722222"/>
    <path d="M84.9724 22.3225C92.1715 22.3168 99.3706 22.337 106.57 22.3081C106.558 23.4983 106.558 24.6885 106.587 25.8788C99.3793 25.8845 92.1715 25.8759 84.9637 25.8817C84.984 24.6943 84.9869 23.5099 84.9724 22.3225Z"
          fill="#1D1D1B" stroke="#1D1D1B" stroke-width="0.0722222"/>
    <path d="M109.707 0.442137C111.258 0.43636 112.81 0.445028 114.364 0.430584C114.338 2.86881 114.384 5.30414 114.309 7.74236C116.753 7.72792 119.197 7.77992 121.641 7.7048C121.621 5.28392 121.638 2.86014 121.621 0.43925C123.152 0.430583 124.683 0.433471 126.214 0.424805C126.194 6.56947 126.211 12.7141 126.18 18.8559C126.125 18.9455 126.018 19.1188 125.966 19.2055C124.51 19.2979 123.051 19.2719 121.595 19.2979C121.641 16.8539 121.569 14.407 121.656 11.9601C119.18 11.963 116.704 11.9572 114.228 11.9601C114.243 14.3955 114.222 16.8308 114.243 19.2661C112.723 19.2835 111.204 19.2748 109.687 19.2546C109.762 12.9857 109.759 6.71103 109.707 0.442137Z"
          fill="#1D1D1B" stroke="#1D1D1B" stroke-width="0.0722222"/>
    <path fill-rule="evenodd" clip-rule="evenodd"
          d="M132.44 2.54783C133.708 1.3056 135.398 0.597822 137.105 0.193378C139.708 -0.283289 142.441 0.652712 144.437 2.33405C144.423 1.70716 144.411 1.08027 144.4 0.456268C145.916 0.45049 147.436 0.444714 148.956 0.45338V19.2167C148.476 19.2803 147.996 19.3467 147.52 19.4218C146.916 19.3525 146.2 19.6038 145.688 19.1965C145.292 18.6649 145.108 18.0207 144.902 17.4054C143.143 18.3732 141.372 19.4912 139.318 19.6558C134.82 20.0805 130.432 16.5387 129.692 12.1187C129.066 8.75893 129.883 4.94271 132.44 2.54783ZM137.377 4.7896C138.677 4.32449 140.196 4.25804 141.439 4.92827C143.316 5.76316 144.616 7.75938 144.527 9.82493C144.59 11.5352 143.727 13.1905 142.406 14.2478C142.302 14.3172 142.092 14.4616 141.988 14.5309C140.407 15.4554 138.463 15.4438 136.776 14.8227C136.305 14.5049 135.837 14.1843 135.369 13.8665C135.092 13.4678 134.82 13.0663 134.543 12.6705C134.058 11.694 133.829 10.6049 133.852 9.51582C134.066 8.47871 134.344 7.41849 135.02 6.57204C135.589 5.73716 136.519 5.27493 137.377 4.7896Z"
          fill="#1D1D1B" stroke="#1D1D1B" stroke-width="0.0722222"/>
</svg>
