<svg viewBox="0 0 781 675" fill="none" xmlns="http://www.w3.org/2000/svg">
    <path fill-rule="evenodd" clip-rule="evenodd" d="M506.634 275.964C508.893 274.991 509.032 274.791 511.083 274.238C512.589 273.831 514.758 271.212 515.103 269.728C515.717 267.086 517.281 268.538 518.683 265.791C519.647 263.901 519.993 260.847 523.042 260.736C523.515 260.719 525.629 261.413 525.95 262.176C526.346 263.121 528.189 265.229 529.483 265.229C530.702 265.229 532.771 264.413 534.353 264.152C537.069 263.704 540.094 263.803 542.759 262.733C544.322 262.105 545.669 261.128 546.604 262.733C547.501 264.271 547 263.451 547.441 265.026C547.58 265.524 549.457 267.186 550.022 267.232C551.562 267.356 551.477 268.377 553.179 269.109C553.974 269.451 554.191 269.833 555.244 269.905C557.297 270.044 557.225 270.146 556.602 267.835C555.545 263.91 558.318 265.867 559.62 264.974C560.43 264.419 557.471 262.536 559.511 261.105C560.724 260.254 562.855 264.184 563.74 260.274C563.937 259.404 562.71 257.391 564.068 256.866C566.798 256.577 566.022 256.591 567.32 258.052C568.085 258.914 569.715 263.066 571.872 261.053C572.675 260.303 572.991 259.08 573.313 258.88C574.593 258.082 574.607 259.43 577.189 258.109C579.182 257.089 580.125 256.91 581.133 258.988C582.216 261.224 576.385 264.136 578.505 267.232C579.066 268.051 581.776 267.372 582.454 266.945C584.129 265.888 584.407 265.953 585.98 265.167C586.913 264.701 590.845 261.386 591.037 263.081C591.245 264.913 590.315 268.582 592.644 269.27C593.894 269.639 596.055 270.251 596.812 271.361C597.94 273.014 599.527 272.47 599.527 269.999C599.527 266.795 600.946 267.048 601.629 264.689C601.883 263.809 605.301 260.754 604.345 260.253C602.907 259.5 601.634 258.109 603.013 256.627C603.937 255.634 610.044 257.879 610.936 251.816C611.456 248.275 613.876 250.92 615.081 250.88C617.692 250.795 617.949 249.765 618.422 252.082C618.712 253.507 620.567 252.8 621.877 253.06C623.957 253.118 625.035 253.073 626.684 251.833C628.214 250.68 628.325 246.362 630.617 248.067C631.503 248.727 633.568 249.44 634.664 249.44C637.128 249.44 636.462 254.294 638.629 253.065C640.354 252.086 641.53 248.306 644.465 247.084C649.032 245.183 647.196 244.676 649.274 242.587C648.312 241.746 647.285 240.268 646.105 239.828C645.432 239.578 644.284 239.922 644.176 238.966C643.991 237.332 642.957 234.517 644.417 233.827C646.341 232.744 647.246 233.003 646.69 230.516C646.477 229.561 647.036 228.238 647.827 227.447C649.813 225.457 652.513 223.911 652.408 220.79C652.388 220.17 651.059 215.433 650.927 215.375C650.059 214.989 643.957 215.332 643.521 216.203C642.748 216.3 642.428 215.35 642.006 214.823C641.419 214.823 641.576 215.995 640.938 215.961C640.151 215.92 639.092 214.952 638.251 214.72C636.297 214.181 634.37 215.526 634.634 212.685C634.983 211.728 637.657 210.274 637.287 209.512C636.273 207.425 634.551 209.385 633.773 208.65C632.939 207.862 632.851 206.657 632.051 205.856C631.535 205.339 629.298 203.466 628.744 203.235C627.998 202.924 627.152 203.3 626.436 202.89C625.562 202.389 624.328 201.224 623.818 200.338C622.153 197.443 618.694 196.938 615.586 196.061L616.964 192.233C617.384 191.343 619.41 185.605 620.546 185.99C621.534 186.324 621.678 185.343 621.373 184.645C620.887 183.536 620.751 183.158 621.752 182.299C623.019 181.211 622.296 180.831 622.062 179.23C621.741 177.039 619.214 175.916 622.337 175.643C623.708 175.523 625.172 175.533 626.539 175.677C628.837 175.921 627.823 174.484 628.951 174.298C630.642 174.018 631.656 174.861 630.983 172.159C630.746 171.207 631.489 171.521 632.016 171.125C633.063 170.337 630.155 167.885 629.846 166.986C627.155 164.307 631.046 163.455 633.187 163.813C636.12 164.304 637.183 165.446 637.183 161.433C637.183 158.59 637.385 160.248 635.909 158.984C635.241 158.413 634.463 154.775 634.738 153.88C635.104 152.686 635.407 152.638 634.841 151.5C634.42 150.652 636.065 149.001 635.771 148.706C635.443 148.379 634.46 148.517 634.014 148.189C632.748 147.261 635.361 145.225 634.634 144.499C634.332 144.196 632.981 144.337 632.981 143.843C632.981 143.246 633.298 141.863 632.878 141.463L631.5 140.153C630.112 138.834 629.498 140.82 629.123 138.187C629.123 136.46 627.992 134.701 628.399 133.152C628.767 131.757 626.098 132.681 625.816 130.841C625.582 129.315 625.588 129.4 624.025 129.082C622.229 128.715 620.871 129.011 621.269 126.805C621.632 124.8 621.191 122.402 622.337 120.666C623.048 119.59 624.438 119.901 625.196 118.907C625.969 117.894 626.934 116.219 627.814 115.389C628.293 114.938 629.105 114.997 629.433 114.596C630.421 113.388 629.576 110.509 629.915 109.112C629.389 108.058 628.519 106.865 628.365 105.698C628.263 104.921 628.437 104.048 628.399 103.249C628.34 102.004 625.765 101.022 628.227 100.869C629.279 100.804 630.271 100.08 630.914 99.2825C631.358 98.7326 632.568 97.565 632.568 96.8683C630.855 96.3018 629.261 94.7876 629.261 92.8674C630.173 91.7231 630.929 91.7488 632.154 91.3155C632.749 91.1049 631.606 89.1945 631.431 88.6597C630.599 86.1247 630.57 83.7735 630.57 81.0373C630.57 79.6968 630.344 78.9167 629.157 80.1063C627.601 81.6668 626.612 79.5005 625.127 78.9336C624.699 78.7702 622.191 78.2072 623.267 79.4511C624.585 80.9739 622.847 80.5055 622.199 81.5547C621.858 82.1095 622.458 82.4209 621.511 82.7273C621.105 82.8587 620.267 82.6443 620.305 83.3482C620.356 84.2992 620.532 85.0302 619.134 84.797C618.227 84.6457 617.305 83.9697 616.482 83.5897C615.053 82.9311 616.055 82.7058 616.309 81.5894C616.16 79.6126 615.492 77.1867 614.656 75.4155C613.917 73.8523 613.087 74.4588 611.728 74.7947C611.624 75.3242 610.498 78.3634 609.799 78.2094C608.644 77.9543 609.447 75.4419 609.041 74.8294C608.532 74.061 607.758 74.6943 608.318 73.3462C608.671 72.497 609.076 71.6015 607.663 71.8287C606.152 72.0717 607.305 69.1412 607.147 68.0693C606.665 64.8169 605.191 64.2704 602.875 62.3094C601.544 61.1821 600 61.5018 598.397 61.1368C596.299 60.6586 596.028 59.4234 594.918 57.55C593.467 55.9154 598.667 56.2698 596.537 54.5492C595.803 53.9567 593.353 52.3765 592.507 52.3765C591.137 52.3765 589.616 52.8626 588.27 52.7905C587.622 52.7558 587.485 52.135 586.892 52.135C585.752 52.135 585.675 52.823 584.86 53.0317C582.933 53.5257 583.178 49.0999 581.553 49.0999C580.603 49.0999 578.453 50.1457 577.937 49.3414C577.205 48.2013 577.79 46.3539 577.282 45.1337C576.864 44.1317 573.061 44.6243 571.84 44.237C570.971 44.3084 569.823 45.082 568.981 44.8231C568.595 44.7046 568.561 43.0901 567.741 43.4437C567.727 43.5158 567.73 43.5181 567.672 43.5471C567.672 44.4714 568.083 45.4477 568.016 46.3407C567.951 47.2083 566.295 47.2046 565.846 47.8929C565.537 48.367 565.835 49.1327 565.054 49.4448C562.29 50.5484 559.738 47.0766 557.648 46.0305C556.397 45.4043 553.784 45.6297 552.963 44.4782C551.341 44.4782 550.858 46.5033 549.312 46.6513C547.805 46.7951 546.878 46.3754 545.523 46.3754C544.74 47.3163 544.781 48.5025 543.938 49.4105C543.503 50.12 542.854 51.8629 542.044 52.1006C540.016 52.6965 542.057 52.9754 541.252 53.9284C540.794 54.4696 540.264 54.7119 539.839 55.3425C537.621 58.6384 535.758 57.256 535.189 54.3424C534.827 52.4863 530.482 55.943 529.988 55.9633C528.838 56.0105 527.949 55.8418 526.819 56.1705C525.486 56.5589 525.674 57.4118 523.925 57.4118C521.618 57.4118 520.275 63.6533 518.827 65.1724C517.793 66.2574 515.659 69.0276 514.143 68.4486C511.716 67.5213 510.977 65.974 510.078 63.8617C508.971 61.2557 502.741 60.7594 502.741 59.8265C502.741 58.2595 502.472 53.7016 503.189 53.0317C504.913 51.4221 505.162 51.3152 504.188 49.3071C504.658 47.3295 505.026 44.494 506.944 43.4781C508.376 42.7191 505.41 39.9686 505.497 39.6153C507.451 39.1353 510.206 38.4156 511.732 36.8905C513.018 35.6047 508.312 33.5501 507.598 33.3727C506.47 33.0919 509.458 31.0064 509.458 30.9237C508.599 30.6396 507.637 29.5005 506.461 29.1994C504.506 28.6978 502.599 29.9183 500.985 28.3027C500.002 27.3184 499.685 26.5292 498.16 26.3711C496.837 26.2341 495.285 25.5929 494.233 25.7159C490.338 26.173 491.547 27.7932 489.204 24.3365C488.016 23.4455 486.741 21.2667 485.208 21.2667C483.559 21.2667 482.493 23.3696 481.626 22.819C480.715 22.2412 480.996 20.9844 480.179 20.4391C479.379 19.9054 476.382 20.958 475.46 21.1977C472.506 21.9657 475.536 23.5179 471.533 22.7499C470.9 22.6288 468.702 23.5342 468.055 23.8191C466.496 24.5049 469.118 25.8269 468.123 25.9575C467.033 26.1009 465.148 26.6885 464.231 26.647C461.289 26.5138 461.888 27.195 461.234 29.8545C460.406 33.2251 460.286 31.2491 458.685 29.8893C456.733 28.2313 452.419 30.9607 451.59 29.5787C450.466 27.7049 449.117 25.0555 449.281 22.7843C449.143 20.6712 447.531 19.7454 445.94 18.6457C444.721 17.8018 445.652 16.3805 444.7 15.1966C442.294 12.206 447.825 13.2605 447.215 10.7817C447.186 10.7745 446.879 10.5194 446.87 10.5058C445.533 10.5058 444.295 9.65476 443.047 10.4024C441.724 11.1953 438.622 9.47021 437.329 8.95393C435.753 8.32404 435.613 9.43436 434.126 9.88498C432.232 10.7368 430.439 9.908 428.786 10.7817C427.411 11.5086 426.451 14.3599 425.893 11.6788C425.692 10.7164 425.019 10.5564 424.549 9.71288C423.296 7.46393 422.446 11.0919 422.345 12.0924C422.259 12.9333 424.058 12.8744 423.861 13.7134C423.364 15.8257 421.977 17.2979 419.968 16.1967C418.95 15.6389 417.673 17.1847 416.317 15.5068C415.581 14.5957 414.801 12.945 414.801 11.7475C414.053 11.9362 412.635 15.3679 412.046 12.2649C411.889 11.4403 411.604 9.19282 412.011 8.47122C412.932 6.83971 407.32 5.11195 406.121 4.884C404.013 4.48358 404.717 2.41276 404.261 0.538574L402.435 0.711046C401.427 1.72022 400.406 3.11888 399.68 4.29789C398.665 5.94413 397.784 4.84399 396.648 5.6773C395.902 6.22529 396.275 7.11521 395.512 7.6432C394.693 8.20931 393.115 7.6232 392.308 7.26391C390.319 6.3789 390.113 8.43273 389.277 9.64382C388.72 10.4507 387.771 11.0436 387.382 12.0233C387.007 12.9687 386.903 13.9107 386.418 14.8863C386.034 15.6562 385.49 17.6821 385.006 18.1282C383.633 18.9234 383.173 17.0379 381.492 18.2316C380.001 19.2906 378.769 19.3756 377.118 19.7835C377.118 20.4587 378.544 21.3615 378.978 21.8532C379.495 22.4404 377.309 24.0731 376.911 24.3365C375.509 25.2634 377.758 28.2227 373.708 28.9578C371.718 29.319 372.317 27.4928 370.125 29.9236C368.939 31.2404 363.612 34.9235 363.684 36.5112C363.741 37.7751 363.924 38.6179 362.892 39.6497C360.07 42.4704 364.195 45.3681 362.581 48.6862L360.938 55.7856C357.155 56.1147 353.365 56.0951 349.458 55.3425C345.962 54.6689 343.597 53.4593 341.463 51.6825L339.053 53.2668C337.711 54.2745 335.702 56.7887 333.817 56.3019C332.587 55.9845 330.917 54.6024 330.58 53.4049C330.227 52.1553 329.323 51.7791 328.581 50.7491C327.302 48.9746 326.281 49.315 324.517 48.576C323.683 48.2262 324.008 47.3246 323.38 46.817C322.929 46.4528 321.469 47.3427 320.866 47.4725C319.436 47.7801 319.217 48.045 318.971 49.0935C318.654 50.4434 317.161 50.3464 316.146 50.2317C314.408 50.0355 312.863 50.6314 311.117 50.5076C309.536 51.8262 308.301 52.977 307.328 54.8191C306.33 56.7076 306.151 55.786 304.607 56.3019C303.149 56.7887 304.119 60.7945 302.334 61.855C300.491 62.9491 301.49 64.3289 301.128 65.8559C300.721 67.5708 296.71 68.3735 295.169 69.0634C293.1 69.9899 294.23 70.3711 293.653 71.7883C293.39 72.4344 290.95 71.0667 290.518 71.0293C288.57 70.8602 288.92 68.9925 287.832 68.5807C286.772 68.1795 283.732 67.8561 282.596 67.8561C282.575 67.9433 282.581 67.9127 282.492 67.9252C282.315 68.8313 281.396 70.7795 280.842 71.5528L280.805 73.7885C280.204 75.3374 281.266 76.1971 282.079 77.4101C282.585 78.166 282.637 79.4333 282.562 80.3417C282.449 81.6989 282.742 84.9944 282.286 86.0326C281.794 87.1524 280.459 88.0431 279.427 88.6541C277.903 89.5549 277.2 92.187 275.603 93.1724C274.995 93.5479 273.777 93.4943 273.777 94.2072C273.777 95.1707 274.738 95.8172 272.985 96.0697C272.888 96.4637 272.908 96.7909 272.813 97.2076C272.946 98.9685 272.979 100.182 274.88 100.588C275.998 100.826 275.787 101.943 275.19 102.726C273.881 104.442 274.471 106.439 275.155 108.382C275.804 110.228 274.382 110.437 274.466 112.004C274.562 113.787 272.324 113.749 271.228 115.212C270.29 116.465 269.712 115.615 268.817 116.212C267.472 117.11 268.743 118.385 266.544 118.592C264.152 118.817 265.794 119.706 267.095 120.144C268.864 120.74 270.516 121.015 272.296 121.696C273.531 121.772 274.632 123.519 275.776 123.351C276.63 123.227 277.415 121.641 277.911 123.076C278.675 125.282 280.977 119.643 280.977 122.145C280.977 124.183 282.347 122.14 282.802 121.558C284.336 119.594 285.79 121.219 287.384 122.282C288.235 122.85 289.571 123.075 290.587 123.11C292.633 123.181 297.002 123.563 297.58 125.938C297.486 127.465 297.322 129.732 295.341 129.732C293.247 129.732 293.753 131.694 292.206 132.009C291.141 132.226 290.588 132.519 289.899 133.423C288.948 134.671 289.037 135.474 289.037 137.01C289.037 138.302 287.504 140.309 286.212 139.838C284.264 139.128 284.781 143.209 286.729 143.563C288.348 143.857 285.195 144.977 284.594 144.977C284.594 147.146 283.373 145.63 282.079 146.288C281.203 146.733 279.627 148.514 278.738 147.15C278.097 146.166 276.661 147.276 275.879 147.46C273.866 148.809 273.191 147.707 272.606 146.081C272.38 145.451 268.749 147.419 268.611 148.116C268.406 149.148 269.094 150.185 267.577 150.185C266.466 150.185 264.999 148.887 263.719 148.668C262.808 148.511 262.383 149.357 261.653 149.357C260.132 149.357 259.289 145.626 256.83 148.392C256.263 149.03 254.823 149.778 254.626 150.461C254.203 151.925 246.253 152.11 249.355 155.221C250.292 156.16 252.078 157.45 250.871 158.601C249.459 159.948 249.505 158.553 249.355 160.67C248.847 162.703 248.832 164.031 248.081 165.913C246.551 166.128 246.767 167.288 246.388 168.275L248.556 169.119C250.922 172.184 250.334 171.685 250.747 175.048C250.863 175.993 251.677 176.605 252.302 177.232C253.55 175.475 253.485 175.269 255.377 175.115C258.135 174.891 256.461 170.367 259.169 170.367C261.363 170.367 261.097 171.723 263.805 171.86C265.064 171.923 265.459 174.571 267.847 174.128C270.918 173.557 270.995 174.718 273.569 175.569C275.873 176.331 276.671 176.479 279.089 175.235C280.985 174.259 279.334 171.347 282.164 170.538C282.927 170.321 283.821 171.369 285.285 171.615C288.37 172.134 286.399 173.402 289.343 174.158C291.107 174.61 291.018 173.146 293.301 173.045C294.128 173.009 298.212 172.671 296.33 171.184C295.51 170.536 295.352 168.896 295.774 168.058C296.531 166.55 295.871 165.655 297.546 166.935C297.653 167.016 298.709 167.42 298.811 167.434C301.357 166.398 302.608 166.194 304.866 167.512C304.904 167.534 306.349 169.494 307.067 170.05C309.137 171.65 308.865 173.398 312.342 172.535C313.216 172.318 314.471 171.171 315.854 171.059C316.618 170.998 317.067 169.497 318.804 169.016C320.575 168.525 319.569 169.916 322.981 168.885C323.808 168.635 326.589 168.552 327.319 169C328.803 169.909 332.959 169.025 332.959 171.184C332.959 174.177 332.927 174.105 335.201 175.911C336.649 177.06 335.099 180.097 336.2 180.545C336.692 180.745 338.152 183.01 338.453 183.536C340.282 185.343 339.615 185.363 340.451 186.287C343.145 189.268 348.503 186.645 349.388 190.121C349.819 191.812 351.554 190.894 351.438 194.327C351.339 197.225 355.728 192.842 356.001 195.855C356.104 196.994 353.28 201.498 357.583 200.964C358.306 200.874 362.102 201.151 362.691 201.463C363.829 202.065 364.565 202.748 365.791 203.2C369.841 204.693 367.919 207.97 367.919 211.541C367.919 215.26 370.075 212.503 370.853 217.361C371.142 219.3 371.824 220.17 372.804 221.73C373.783 223.287 377.312 222.217 378.558 220.992C379.121 220.439 381.916 218.772 382.522 219.483C383.678 220.842 382.854 223.387 385.149 223.29C387.286 223.2 388.792 224.279 389.774 226.042C390.982 228.209 393.563 224.974 394.221 223.811C395.632 221.317 396.96 221.268 399.638 220.794C401.897 220.394 403.088 221.713 403.003 218.064C402.968 216.553 405.775 216.169 407.167 215.296C408.35 214.554 410.24 213.884 410.844 215.641C411.526 217.622 414.074 220.28 415.603 221.719C416.15 222.235 416.374 223.069 417.53 223.941C418.583 224.735 419.638 225.969 420.171 227.186C421.08 229.261 422.102 230.74 424.536 231.075C426.772 231.383 426.949 228.438 427.772 226.964C430.842 221.461 425.806 218.08 430.409 215.739C433.263 215.87 433.26 215.963 435.773 215.63C437.169 215.445 438.131 215.567 439.757 215.255C440.237 215.164 442.908 215.091 443.27 215.489C444.712 217.073 444.041 217.672 445.08 218.979C445.56 219.583 446.211 224.623 446.677 225.307C447.981 227.224 450.137 228.283 452.433 228.283C455.431 228.283 460.564 230.085 462.788 229.645C464.638 229.28 462.38 227.94 463.564 224.975C463.89 224.16 464.436 222.377 465.51 223.082C468.337 224.937 470.601 224.957 473.501 226.145C476.533 227.387 475.921 223.045 477.787 222.552C478.646 222.325 478.787 223.82 481.361 220.981C483.164 218.993 483.343 220.731 484.895 220.56C487.174 220.31 486.308 220.557 488.5 219.795C489.31 219.514 491.668 219.251 491.823 220.409C492.015 221.856 492.137 222.882 492.468 224.321C492.726 225.436 492.269 226.166 492.775 226.972C494.936 229.029 495.257 229.284 497.561 227.721C498.545 227.054 498.955 227.567 500.449 227.181C502.28 226.707 501.851 227.279 504.075 226.327C504.945 225.955 507.502 227.071 508.361 224.392C508.696 223.345 509.399 222.567 510.448 223.337C510.875 223.65 510.61 224.302 512.025 224.866C514.899 226.013 511.009 228.793 511.067 230.576C511.145 232.983 509.948 235.445 509.631 238.086C509.548 238.77 508.487 241.148 507.92 241.695C506.311 243.252 507.702 244.448 508.382 246.371C509.479 249.47 508.756 247.858 508.274 250.718C507.918 252.825 510.333 253.19 506.477 256.554C505.672 257.257 504.734 257.276 503.638 258.427C503.684 264.283 505.138 261.259 505.261 264.839C505.283 265.488 503.931 268.33 503.388 268.849C502.728 269.48 501.515 271.585 501.515 272.672C501.515 273.449 502.049 275.317 503.201 275.277C503.573 275.264 506.601 275.934 506.634 275.964Z" fill="white" stroke="#1D1D1B" stroke-opacity="0.3" stroke-miterlimit="22.9256"/>
    <path fill-rule="evenodd" clip-rule="evenodd" d="M506.634 275.964C508.893 274.991 509.032 274.791 511.083 274.238C512.589 273.831 514.758 271.212 515.103 269.728C515.717 267.086 517.281 268.538 518.683 265.791C519.647 263.901 519.993 260.847 523.042 260.736C523.515 260.719 525.629 261.414 525.95 262.177C526.347 263.122 528.189 265.229 529.483 265.229C530.702 265.229 532.771 264.413 534.353 264.152C537.07 263.704 540.094 263.803 542.759 262.733C544.322 262.105 545.669 261.128 546.604 262.733C547.501 264.272 547 263.451 547.441 265.026C547.58 265.525 549.457 267.187 550.022 267.232C551.562 267.356 551.477 268.377 553.179 269.109C553.974 269.451 554.191 269.833 555.244 269.905C557.297 270.044 557.225 270.147 556.602 267.835C555.545 263.91 558.318 265.867 559.62 264.974C560.43 264.419 557.471 262.537 559.511 261.105C560.724 260.254 562.855 264.184 563.74 260.274C563.937 259.405 562.71 257.392 564.068 256.867C566.798 256.578 566.023 256.591 567.32 258.052C568.085 258.914 569.715 263.066 571.872 261.053C572.676 260.304 572.991 259.08 573.313 258.88C574.593 258.083 574.607 259.431 577.189 258.109C579.182 257.09 580.125 256.91 581.133 258.988C582.216 261.224 576.385 264.137 578.505 267.232C579.066 268.051 581.776 267.372 582.454 266.945C584.129 265.888 584.407 265.953 585.98 265.167C586.913 264.701 590.845 261.386 591.037 263.081C591.245 264.914 590.315 268.582 592.644 269.27C593.894 269.639 596.055 270.251 596.813 271.362C597.94 273.014 599.527 272.47 599.527 269.999C599.527 266.795 600.946 267.048 601.629 264.689C601.883 263.809 605.301 260.754 604.345 260.253C602.907 259.5 601.634 258.109 603.013 256.628C603.937 255.634 610.045 257.879 610.936 251.817C611.456 248.275 613.876 250.92 615.081 250.881C617.692 250.795 617.949 249.765 618.422 252.083C618.712 253.507 620.567 252.8 621.877 253.06C623.957 253.118 625.035 253.074 626.684 251.833C628.214 250.681 628.325 246.362 630.617 248.067C631.503 248.727 633.568 249.44 634.664 249.44C637.128 249.44 636.462 254.294 638.629 253.065C640.354 252.086 641.53 248.307 644.465 247.085C649.032 245.184 647.196 244.676 649.274 242.588C650.748 243.876 650.578 241.863 651.72 241.863C652.536 241.863 651.822 243.45 652.787 243.45C654.927 243.45 654.607 244.29 655.198 246.451C655.796 248.635 657.988 251.261 657.127 253.624C656.292 255.917 656.843 255.637 658.608 256.556C660.575 257.578 661.086 258.485 661.778 260.557C661.53 261.794 658.636 263.592 658.815 264.316C662.192 265.151 661.47 263.233 661.157 267.214C660.979 269.477 660.307 272.37 661.364 274.491C662.61 274.648 662.236 273.793 663.844 274.939C665.08 275.82 664.727 275.441 665.532 274.456C666.738 272.981 666.775 275.93 666.807 276.457C666.886 277.783 668.212 276.987 669.114 277.215C669.114 277.359 669.248 277.614 669.287 277.767C668.84 278.211 667.897 277.835 667.392 278.112C666.875 278.396 666.772 278.919 666.738 279.457C666.707 279.949 670.432 279.642 671.112 279.802C672.56 280.143 672.492 283.251 674.936 283.251C678.293 283.251 674.948 285.387 677.554 286.838C678.136 287.066 680.287 287.082 680.447 287.562C681.23 289.906 682.762 289.659 685.132 289.839C686.107 289.912 686.405 289.826 687.267 289.459C688.804 288.806 688.268 288.627 689.024 289.908C689.288 290.353 690.23 290.874 690.23 291.391C690.23 292.169 690.291 294.021 691.401 293.943C692.468 293.868 693.177 292.195 694.501 292.529L694.846 293.667C695.511 293.802 697.507 293.149 698.497 293.149C698.513 293.212 698.502 293.203 698.566 293.219C698.566 294.387 697.02 295.46 697.463 296.909C697.647 297.509 698.396 297.15 698.841 297.15C700.223 297.15 700.039 298.569 701.253 296.633C702.763 294.225 702.966 297.036 703.974 296.944C704.457 296.899 704.744 296.123 705.455 296.323C705.981 296.471 706.025 297.398 706.936 296.944L708.406 297.115C708.367 297.493 708.354 297.929 708.242 298.116C707.969 298.574 707.485 299.182 707.485 299.737C707.485 300.848 708.322 301.52 708.518 302.462C709.031 304.924 704.217 306.311 706.21 308.808C707.679 310.648 708.771 309.111 708.036 312.154C707.735 313.4 707.514 313.609 706.314 314.085C705.77 314.3 705.08 314.657 704.867 315.223C703.905 317.774 706.881 320.398 703.489 322.293C702.671 322.75 703.324 323.367 703.144 324.087C702.974 324.766 701.281 325.138 701.801 325.915C702.086 326.341 702.915 326.376 703.041 326.881C703.638 329.265 698.922 327.438 699.252 329.433C699.416 330.428 700.136 331.345 698.701 331.502C696.993 331.689 697.573 332.202 698.322 333.261C698.89 334.063 698.255 335.517 697.852 336.416C697.752 336.641 697.654 336.707 697.929 336.603L699.39 336.055C701.606 334.628 700.75 335.49 702.766 336.296C703.857 336.733 704.756 338.193 705.797 338.193C707.238 338.193 707.188 338.415 708.036 339.263C708.791 340.017 709.038 337.998 709.413 337.676C710.273 336.938 711.836 338.764 713.409 337.848C713.894 337.566 714.453 337.565 714.959 337.4C715.859 337.107 715.338 335.607 716.819 335.607C718.342 335.607 719.746 335.917 721.09 335.917C721.911 335.917 722.286 335.221 723.226 335.469C724.28 335.746 724.927 334.244 725.741 333.778C728.687 333.935 727.604 335.059 730.15 336.331C731.532 337.022 733.025 336.14 734.317 336.71C734.933 336.982 733.977 340.302 736.384 340.78C737.907 341.083 738.444 338.792 740.345 339.435C740.345 339.771 740.24 339.715 740.173 339.987C739.653 340.06 738.573 341.419 739.415 341.47C741.55 341.598 742.384 340.147 744.031 341.953C745.195 343.229 745.529 343.395 745.615 345.126C745.781 348.438 748.502 345.548 750.059 345.815C751.796 346.114 753.019 344.152 754.675 344.712C754.675 345.472 754.044 346.575 754.95 347.23C755.913 347.925 757.499 348.315 757.499 349.713C757.499 352.375 757.235 351.154 755.811 352.3C754.994 352.958 754.678 353.883 753.4 353.61C749.612 352.802 750.716 358.887 751.437 358.887C751.458 358.8 751.452 358.831 751.54 358.818C751.68 358.11 752.032 357.401 752.229 356.818C752.325 356.818 752.376 356.816 752.401 356.921C754.785 357.51 752.178 360.421 751.816 361.474C751.293 362.992 753.106 364.927 753.986 366.371C754.858 367.805 755.639 366.561 755.639 368.613C755.639 371.288 758.582 371.178 760.496 372.511C761.234 373.025 760.94 374.129 761.357 374.545C761.675 374.863 764.206 374.542 764.905 374.89C766.404 375.922 765.705 377.785 766.076 379.374C766.667 381.905 767.879 379.933 768.177 378.581C768.229 378.347 768.684 376.506 769.039 376.787C771.085 378.415 771.772 380.343 774.756 381.34C777.514 382.261 778.559 385.444 777.374 387.824C775.627 391.334 779.785 389.337 779.785 391.928C778.133 392.346 778.264 391.322 777.099 392.894C774.906 395.85 776.87 396.091 777.753 399.24C777.965 399.994 775.841 399.264 775.48 399.344C774.866 399.48 774.358 400.033 773.723 399.792C770.87 398.713 770.148 403.771 768.901 400.792C768.687 400.282 766.421 397.976 766.421 399.447C766.421 400.283 767.394 400.838 767.351 401.758C767.322 402.362 766.02 402.433 765.525 402.792C765.525 403.161 764.821 405.014 764.526 405.31C764.025 405.814 763.362 404.418 762.804 404.276C760.701 403.737 761.872 405.926 760.014 403.586C759.941 403.495 756.742 403.62 756.535 403.758C756.111 404.041 758.872 404.805 758.808 405.655C758.687 407.258 756.073 410.806 755.226 412.381C754.65 413.452 753.823 415.891 752.815 416.588C751.269 417.658 751.755 417.752 751.127 419.382C750.977 419.77 746.539 419.982 745.409 420.831C744.703 421.361 744.215 422 744.651 422.797C745.086 423.589 743.83 424.872 743.377 425.418C742.293 427.992 740.676 427.108 738.864 427.108C733.97 427.108 738.621 434.558 732.63 430.419C731.73 429.797 732.303 431.797 731.493 432.385C729.99 433.476 725.451 434.351 723.571 434.351C721.962 434.351 719.866 432.904 718.783 431.764C718.102 431.049 716.381 431.371 716.199 432.385C715.916 433.964 713.184 433.316 711.756 433.316C709.328 433.316 710.918 430.92 708.621 429.695C704.988 429.935 704.347 430.926 701.663 428.039C700.374 426.653 699.976 424.186 699.665 422.383C699.279 420.138 698.408 421.303 697.564 419.382C696.699 417.414 696.827 418.761 695.704 418.761C694.846 418.761 694.163 417.776 693.672 417.175C693.223 416.626 690.849 416.761 689.986 416.243C689.414 415.9 687.011 413.829 686.645 413.829C686.486 414.937 683.872 417.758 682.89 418.416C681.176 419.566 678.171 418.621 676.897 417.347C676.491 416.941 669.663 416.432 669.078 416.623C669.078 419.152 669.787 420.487 668.148 422.865C667.606 423.651 665.289 425.764 665.289 426.384C665.289 426.945 665.264 427.209 665.392 427.66C666.849 427.843 667.347 428.493 667.631 429.764C668.337 432.918 664.762 431.928 662.947 432.73C661.139 430.087 660.728 430.579 658.693 430.083C657.636 429.825 656.012 429.821 655.468 429.141C653.885 427.162 654.786 428.258 652.295 426.167C651.59 426.157 651.383 426.048 650.729 425.912C649.015 425.555 646.475 426.415 645.917 425.475C644.399 422.92 648.275 420.16 644.117 418.303C641.201 417.001 642.699 416.924 641.376 415.625C638.838 413.134 641.685 410.822 636.766 410.212C633.206 409.77 637.836 405.097 638.135 403.751C638.362 402.726 634.742 403.405 634.036 403.491C631.475 403.804 627.718 403.018 625.685 404.085C623.827 405.06 622.839 405.794 620.644 406.196C616.935 406.874 618.556 405.04 615.578 406.351C613.207 407.395 613.224 408.43 612.111 409.14C609.832 410.595 608.923 408.387 608.283 406.679C607.403 404.33 605.334 405.613 603.476 404.012C601.556 402.357 601.608 400.53 601.462 400.324C601.249 400.023 598.181 402.383 597.624 402.691C594.85 404.222 592.717 408.528 589.492 407.61C587.93 407.165 586.628 407.71 585.606 409.005C584.315 410.638 582.176 411.612 580.133 411.756C577.994 411.906 578.709 411.707 575.821 412.312L575.466 412.469C572.668 413.706 568.323 416.645 567.263 412.125C566.725 409.836 566.959 410.871 565.982 408.897C565.251 407.421 564.86 406.885 564.079 405.551C563.183 404.021 562.48 404.072 561.519 403.247C560.002 401.943 559.076 402.1 557.623 401.1C553.117 397.998 552.941 405.037 549.788 403.825C546.884 402.708 548.419 400.011 547.733 399.326C546.441 398.035 544.515 399.912 543.749 399.835C541.816 399.641 544.153 396.678 541.751 398.067C540.433 398.829 539.127 399.185 538.123 399.784C536.158 400.956 536.461 404.792 536.548 406.81C536.621 408.52 536.53 408.771 536.361 410.418C536.181 412.166 536.381 413.509 536.906 415.167C538.2 419.244 535.188 420.383 535.633 421.964C536.23 424.086 536.15 424.027 536.116 426.479C535.582 427.014 534.884 427.391 534.151 427.572C530.659 428.434 530.122 424.737 528.042 426.688C525.273 429.284 528.349 429.741 526.087 431.326C523.967 432.81 526.468 434.881 527.908 435.425C530.964 436.58 528.372 438.833 527.689 440.765C527.313 441.826 528.652 443.981 529.421 444.749C530.713 446.041 533.98 450.828 530.457 451.495C526.441 452.254 526.404 450.04 523.288 450.944C520.427 451.774 521.352 448.539 516.166 451.115C513.93 452.225 513.938 452.516 512.085 453.716C508.609 455.968 508.607 455.364 505.619 453.408C500.741 450.213 498.223 452.417 495.461 450.954C492.067 449.157 492.668 448.24 488.234 449.945C487.94 449.92 485.716 452.548 485.248 452.951C482.079 455.682 483.697 459.042 482.027 460.774C480.171 462.698 478.563 461.916 477.079 462.302C473.462 463.242 472.745 464.423 471.259 467.601C470.522 469.176 470.145 469.116 469.5 470.119C467.597 473.081 467.62 472.785 465.214 475.117C464.36 475.945 460.388 476.973 459.096 476.849C457.191 476.666 459.658 480.384 460.011 480.984C461.031 482.718 459.625 483.019 458.331 483.578C456.986 484.159 453.891 485.344 452.484 485.399C451.412 485.441 448.354 486.34 448.025 486.164C444.9 484.496 443.297 487.912 439.93 487.312C436.46 486.693 434.751 486.554 431.502 488.249C431.378 487.642 429.355 485.404 428.818 484.951C428.345 484.553 424.787 481.713 424.692 481.592C423.512 480.089 422.745 478.174 424.621 476.828C427.009 475.115 425.909 476.627 428.194 473.395C428.589 470.636 429.067 467.684 427.298 465.28C425.479 462.807 429.287 462.576 430.816 460.164C432.076 458.175 429.247 454.65 428.126 452.773C426.365 449.825 431.522 449.278 431.513 448.727C431.498 447.738 431.326 448.139 432.46 448.453C433.37 448.704 434.916 449.321 435.585 448.941C438.42 447.331 435.455 442.415 435.826 439.912C436.138 437.809 435.368 433.922 434.618 431.939C433.618 429.293 433.574 427.341 432.813 424.716C432.775 424.258 432.599 423.943 432.186 423.728C430.741 422.979 430.31 423.384 428.875 423.411C427.541 423.436 425.994 424.581 424.277 424.238C422.089 423.801 422.818 424.929 421.612 424.914C420.234 424.896 420.261 422.744 420.453 421.794C420.736 420.388 420.809 418.568 418.715 418.906C416.154 419.32 414.984 419.25 412.435 419.053C407.051 418.637 407.621 418.103 404.091 414.741C402.629 413.349 401.657 411.758 400.231 410.267C398.967 408.946 400.64 408.563 401.642 408.755C403.626 409.136 405.524 408.299 407.468 409.176C410.998 410.77 412.43 410.299 416.118 410.299C417.504 410.299 418.781 411.055 419.432 410.383C422.792 406.914 423.74 409.079 426.587 407.117C427.196 406.696 428.027 401.775 427.965 401.682C426.958 400.145 423.199 402.908 423.199 399.494C423.199 397.716 420.122 396.006 423.422 392.909C426.879 389.664 424.151 387.353 424.807 385.045C425.901 381.188 420.491 381.743 422.076 380.858C424.522 379.492 424.162 381.494 427.507 377.909C428.518 377.48 429.164 376.314 430.473 375.782C432.064 375.135 432.754 374.024 434.385 374.612C438.518 376.103 438.363 371.061 434.711 372.199C431.072 373.334 432.226 369.935 435.883 369.437C437.611 369.202 438.917 368.215 440.446 368.235C444.212 368.286 443.408 363.544 445.356 363.612C446.241 363.642 451.486 366.713 452.739 366.675C454.794 366.613 455.819 366.752 457.239 365.053C459.778 362.013 459.78 364.609 461.359 365.245C463.039 365.922 462.451 366.333 463.631 367.3C465.094 368.498 466.139 371.409 466.671 371.679C467.385 372.04 469.221 374.154 470.11 373.369C470.938 372.638 470.827 372.347 471.004 371.228C471.287 369.428 470.074 366.371 471.53 365.973C471.754 365.911 474.451 366.167 475.998 365.66C477.213 365.263 478.962 365.62 479.806 364.7C481.395 362.965 478.835 360.485 479.385 358.874C479.911 357.33 482.905 359.567 481.991 354.823C481.667 353.146 482.159 351.595 483.926 352.883C485.148 353.774 485.903 353.918 487.272 354.698C490.351 356.453 491.463 355.663 494.18 353.32L494.31 353.19C495.985 351.515 497.65 351.093 498.546 350.116C500.603 347.872 500.867 349.128 500.667 346.506C500.187 340.219 502.504 345.318 503.45 345.82C506.505 347.443 506.175 344.79 506.831 343.277C507.334 342.12 507.06 342.124 507.244 341.359C507.451 340.496 506.229 338.245 507.098 338.545C509.583 339.403 509.885 338.568 512.55 337.878C515.356 337.151 510.789 334.914 509.958 334.613C508.117 333.946 510.021 332.792 506.139 331.835C503.028 331.068 506.09 329.656 506.587 328.277C507.852 324.768 506.441 325.89 505.776 323.613C505.735 323.474 504.86 319.653 504.856 319.619C504.502 316.813 503.894 315.591 503.669 312.442C503.669 309.597 502.976 308.836 501.672 306.434C501.144 305.463 502.502 304.59 503.336 304.35C505.563 303.708 507.864 302.099 507.212 299.477C506.543 296.793 509.038 295.646 509.038 294.343C509.038 292.396 508.029 291.599 507.852 290.91C507.652 290.134 508.905 287.953 509.163 287.353C509.367 287.043 509.94 283.612 509.912 283.297C509.809 282.154 511.641 278.042 510.395 277.924C508.154 277.713 508.927 277.585 506.634 275.964Z" fill="white" stroke="#1D1D1B" stroke-opacity="0.3" stroke-miterlimit="22.9256"/>
    <path fill-rule="evenodd" clip-rule="evenodd" d="M62.0777 474.778L67.6473 474.652C70.1974 473.691 69.6202 473.902 71.7052 474.158C72.5263 474.259 74.7707 472.264 75.3883 471.594C75.8605 471.082 77.0297 470.323 77.1936 471.656C77.4106 473.426 78.4647 472.773 79.134 473.762C79.5436 474.367 80.723 474.803 81.5852 476.405C81.6392 476.505 83.6937 478.456 84.0195 478.599C85.454 479.229 85.9395 478.854 87.4941 478.963C88.9042 479.063 90.3236 478.836 91.6982 479.192C93.2781 479.601 97.8279 477.304 99.2576 476.457C100.939 475.46 99.8367 478.958 103.216 478.958C104.701 478.958 106.377 478.886 107.814 479.161C109.659 479.515 111.215 477.552 112.251 476.228C112.548 475.85 112.069 475.693 112.596 474.994C114.329 472.691 115.106 469.404 115.863 466.637C116.321 464.962 113.469 465.743 114.775 462.946C115.859 460.625 118.131 460.69 118.209 458.825C118.276 457.22 119.322 458.528 118.73 454.936C118.248 452.013 122.214 451.838 123.214 449.422C124.054 447.394 125.8 446.06 127.489 448.283C128.454 449.554 127.201 451.441 130.512 451.56C134.17 451.256 133.522 452.207 136.318 452.668C137.81 452.914 140.701 452.3 142.133 451.759C142.964 451.444 146.668 450.23 147.159 451.186C147.336 451.529 148.26 455.72 148.242 456.287C148.189 457.965 148.574 459.526 150.351 457.94C150.78 457.557 153.295 454.89 153.689 455.628C154.458 457.065 154.488 457 154.365 458.925C154.27 460.433 153.965 461.873 154.61 463.449C155.585 465.832 154.467 468.504 158.828 464.525C159.641 463.784 161.935 463.862 162.726 464.832C164.216 466.661 167.113 465.564 168.032 463.334C168.934 461.145 171.306 459.46 172.652 462.591C173.179 463.819 174.076 464.055 174.999 465.312C176.247 467.012 178.04 465.098 176.397 463.128C175.959 462.601 174.588 460.327 175.159 459.731C178.576 456.17 175.08 457.584 175.206 454.068C175.251 452.815 176.771 453.335 177.937 452.99C180.912 452.111 181.776 453.693 183.78 450.78C185.71 447.974 183.841 446.458 188.014 444.118C189.464 443.305 191.777 440.755 193.492 439.73C193.907 439.481 194.737 438.965 195.001 438.579C196.871 436.213 197.403 434.901 196.265 432.276C195.912 431.458 199.087 429.402 198.013 425.894C197.851 425.363 198.102 424.911 197.539 423.856C197.288 423.386 196.795 421.313 196.25 420.277C194.74 417.414 197.031 417.273 197.919 414.988C198.02 414.729 197.077 413.717 197.94 411.806C199.043 409.363 196.801 408.334 200.261 406.36C202.693 404.972 199.711 403.39 201.556 400.166C202.42 398.653 202.445 398.553 202.946 396.936C203.28 395.853 206.154 392.131 207.502 392.022C210.015 391.819 208.807 392.564 210.166 392.907C212.168 393.411 216.384 391.25 218.677 390.92C220.736 390.624 221.04 390.329 223.136 390.983C225.58 391.744 226.9 391.158 229.04 393.292C230.402 394.649 235.784 394.561 237.62 394.372C239.076 394.222 240.341 394.33 241.759 394.206C245.029 394.085 244.548 393.966 247.066 395.039C248.145 395.499 251.984 394.224 254.552 395.954C255.717 396.739 257.994 395.767 259.115 395.704L261.308 396.023C261.387 398.122 261.183 400.299 261.666 402.327C261.914 403.367 262.24 407.114 261.603 408.068C261.152 408.744 260.503 408.637 259.497 409.691C258.681 410.545 257.551 409.767 256.46 412.952C255.56 415.578 254.789 415.376 253.92 417.123C253.325 418.316 257.881 423.563 258.743 424.753C259.458 425.74 259.515 425.896 260.121 426.9C261.008 428.367 261.946 429.117 263.664 429.22C264.307 429.258 267.138 429.517 267.577 429.751C269.202 430.619 268.148 432.197 271.473 434.082C272.883 434.882 275.167 438.196 270.547 436.98C269.06 436.588 268.485 437.906 267.925 439.023C267.528 441.643 267.504 442.642 265.381 443.891C265.005 444.113 261.972 446.145 261.891 446.325C261.626 446.914 262.828 449.873 263.175 450.506C263.856 451.751 264.766 452.949 265.224 454.314C265.697 455.718 267.056 456.488 265.865 457.803C265.454 458.257 264.628 459.953 263.742 460.872C262.176 462.497 260.721 465.83 262.963 467.498C264.462 468.614 266.814 472.08 268.02 469.811C268.651 468.621 269.929 465.281 271.774 466.546C273.528 467.748 274.046 466.461 275.313 465.021C276.348 463.845 277.297 458.689 279.048 460.893C279.868 461.925 283.144 463.463 284.472 464.074C286.604 465.056 285.158 467.051 288.624 466.5C293.31 465.753 293.14 469.032 296.048 471.71C297.481 473.028 297.861 475.308 300.637 477.041C301.903 477.831 303.145 477.947 304.492 479.058C306.415 480.645 307.104 480.114 308.919 478.3C309.766 477.454 311.342 475.403 312.686 476.281C314.434 477.425 313.436 478.712 313.815 480.987L313.872 481.586C314.777 484.995 314.633 483.841 315.723 486.137C316.536 487.848 313.516 489.014 313.101 490.245C312.409 492.303 314.247 490.901 313.481 494.277C313.149 495.741 311.812 497.312 311.812 497.859C311.812 498.448 314.875 500.21 314.99 504.298C315.048 506.337 316.133 513.386 318.758 513.545C324.998 513.925 320.908 517.214 323.751 519.531C326.052 521.405 324.785 523.559 327.091 523.458C328.909 523.378 330.459 523.976 331.602 525.382C331.85 525.687 331.846 525.63 332.163 525.835L333.662 526.583C333.06 529.709 332.211 531.798 334.084 534.54C334.635 535.348 337.047 534.999 338.156 535.623C340.262 536.807 340.159 535.293 341.496 538.176C342.449 540.229 346.305 539.223 348.29 540.73C348.856 541.159 349.468 541.523 350.028 542.045C350.792 542.76 352.982 543.981 353.67 544.683C354.974 546.012 355.564 547.349 355.885 549.16C356.289 551.433 353.586 553.264 354.574 557.211C355.221 559.793 351.6 565.722 355.817 568.61C356.364 568.985 359.471 572.184 359.824 572.76C360.63 574.076 360.652 574.921 361.145 575.871C360.379 578.235 360.068 578.415 358.539 579.944C357.819 580.664 357.116 581.941 356.23 582.549C355.554 583.012 354.091 584.783 354.091 585.794C354.091 589.433 357.162 586.219 353.529 593.112C352.202 595.63 352.746 596.721 354.237 598.802C354.689 599.433 354.319 599.799 355.521 601.074C358.66 604.402 354.151 605.243 356.208 608.834C356.964 610.154 356.546 610.824 355.625 612.022C353.924 614.235 351.482 611.711 350.606 618.269L350.595 618.622C351.134 620.647 351.203 620.585 351.803 622.116C352.202 623.138 352.927 623.71 353.024 625.05C353.04 625.27 353.086 625.854 353.086 626.25C352.976 626.257 352.848 626.34 352.696 626.528C352.353 626.95 352.339 629.867 353.247 630.045C353.247 631.06 351.87 632.823 350.801 631.908C349.888 631.126 350.471 629.075 349.148 629.355C347.732 629.655 347.659 628.528 346.943 628.528C345.862 628.528 345.205 630.114 343.464 630.114C340.899 630.114 341.425 627.958 338.607 629.907C337.32 630.797 332.04 630.776 330.478 630.39C329.553 626.649 336.705 621.221 327.826 622.044L327.309 608.42L310.878 608.731C309.762 609.504 309.128 610.276 308.192 611.214C307.645 611.762 306.629 612.597 305.78 612.421C304.519 612.159 304.114 610.741 302.715 610.49C301.716 610.31 299.36 610.88 298.822 609.869C298.301 608.888 298.056 609.33 296.962 609.282C296.062 609.733 294.85 611.617 294.138 610.455C293.493 609.402 292.394 608.693 291.417 607.903C289.805 606.601 291.495 602.833 288.661 602.833C286.128 602.833 286.312 601.488 284.045 601.488C281.703 601.488 278.621 600.463 277.363 602.281C276.645 603.318 275.108 602.45 274.504 603.936C273.856 605.529 271.698 604.899 270.267 604.765C267.057 604.463 268.465 603.434 266.753 602.488C264.956 601.494 264.653 599.904 262.413 600.074C261.222 600.164 261.794 598.851 261.655 597.97C261.655 597.004 261.979 595.761 261.759 594.866C258.941 594.866 255.832 598.835 252.906 595.383C252.44 594.832 250.183 595.107 249.427 595.107C247.593 595.107 247.436 596.207 245.741 595.935C243.151 595.518 242.841 596.002 241.401 594.004C240.748 593.097 237.464 589.983 236.648 589.658C235.162 589.064 233.324 590.249 233.031 588.209C231.458 587.419 229.692 587.183 227.968 587.519C225.847 588.582 224.119 589.769 221.733 588.968C220.227 588.463 216.497 588.331 215.498 587.588C214.923 587.16 216.36 585.772 215.085 585.726C214.369 585.7 210.946 585.085 210.848 585.553C210.326 588.056 212.778 588.296 208.678 588.761C204.154 589.273 199.03 588.683 194.658 587.416C193.402 587.052 191.678 585.402 190.869 586.692C188.976 589.711 189.286 587.161 187.253 588.519C184.824 588.519 181.52 588.766 179.33 587.761C177.828 587.071 175.448 586.692 174.335 585.76C173.326 584.915 172.457 583.663 171.235 583.07C169.035 582.001 168.585 583.513 166.551 583.174C165.591 583.013 164.991 582.415 163.864 582.415C162.724 582.415 161.568 583.754 160.557 584.139C159.603 584.504 157.373 584.611 156.217 584.864C155.045 585.964 141.853 595.553 141.853 590.451C141.748 590.391 141.765 590.425 141.75 590.313C140.199 589.429 136.396 591.798 135.963 591.486C135.629 591.245 136.164 590.327 135.446 589.968C134.525 589.508 133.682 590.099 132.931 590.589C131.458 591.551 131.056 592.483 129.142 592.865C125.958 594.091 125.796 591.161 122.942 592.003C120.343 592.769 118.183 590.053 114.779 591.693C112.464 592.807 111.671 593.13 109.026 593.21C105.547 593.316 101.177 593.195 97.8657 594.21C96.473 594.638 96.148 596.402 94.869 596.659C93.7481 599.288 94.9124 599.559 91.8722 601.557C90.0809 602.69 92.1871 607.275 92.5956 608.869C93.3321 611.745 93.7821 611.708 91.3898 613.421C89.4323 614.824 86.9445 615.885 85.1207 617.387C83.1266 619.029 78.5345 619.831 77.3359 621.94L75.0625 625.941C73.8314 628.108 73.7653 627.993 71.7214 629.287C69.5885 631.028 67.1025 634.374 64.5565 632.356C61.9671 630.304 58.7575 632.924 57.2198 631.77C56.5188 631.243 57.597 628.24 58.0809 627.631C60.1124 625.075 57.691 626.09 55.8075 625.182C52.5227 623.598 49.9254 627.736 49.4003 623.147C49.1296 620.779 45.792 623.102 44.8535 623.699C42.7197 625.056 42.3479 623.606 40.4101 625.458C39.2911 626.529 35.5431 627.203 35.7598 628.666C35.8655 629.382 37.9355 632.376 38.4813 633.149C40.1386 635.498 37.0977 635.908 38.3779 638.116C39.4912 640.036 42.8783 643.254 39.2851 643.855L36.1751 643.667C35.8901 643.042 35.8599 642.259 35.8976 641.427C36.055 637.955 33.5332 640.028 32.3153 638.495C31.6592 637.67 31.7626 635.947 32.2119 635.046C32.8529 633.762 30.82 633.081 30.421 632.149C29.9022 630.937 29.8698 629.618 29.8698 628.286C29.8698 627.508 30.5165 626.097 30.0763 625.458C28.698 623.459 31.6418 623.275 31.3164 621.561C31.079 620.31 30.5882 619.903 31.1099 618.595C31.2968 618.125 31.2183 615.18 30.9374 614.801C30.33 613.982 29.1117 614.411 29.1117 613.283C29.1117 610.975 32.7891 610.004 34.451 609.386C36.0233 608.801 36.3865 607.736 37.2756 606.489C40.0643 602.576 34.2913 601.397 35.1743 598.384C35.5046 597.256 36.3265 597.246 35.7255 596.039C34.7903 594.16 37.2869 594.767 37.2412 593.796C37.2083 593.095 37.6198 592.861 37.6198 592.244C37.6198 590.539 33.1844 589.575 37.2756 587.83C38.6354 587.25 37.8267 585.915 37.8267 584.933C37.8267 583.128 39.5852 583.703 40.2379 582.518C40.8405 581.425 40.8578 580.128 40.8578 578.897C40.8578 577.512 39.9537 576.672 39.5146 575.482C39.2704 574.82 39.6524 573.809 39.6524 573.103C39.6524 572.064 39.2194 571.193 39.0321 570.206C38.7256 568.591 39.3674 567.094 37.5168 566.274C36.6024 565.868 36.0811 565.132 35.5994 564.397C34.5687 563.935 34.4238 562.51 33.1765 562.273C31.7275 561.998 31.0631 563.478 30.111 561.79C29.7105 561.08 29.1162 560.189 28.4918 559.721C27.8901 559.269 26.3558 558.844 25.9428 558.272C25.2561 557.322 28.0871 553.611 25.0474 554.478C23.207 555.003 23.2847 553.199 21.7059 554.72C19.8335 556.523 18.8976 553.024 18.4336 552.271C17.6567 551.01 17.0576 552.129 15.9881 551.788C15.5105 551.636 15.1847 551.098 14.7136 550.891C13.7203 550.454 11.6406 550.784 10.9935 550.098C10.5775 549.656 10.7591 549.099 10.0633 548.925C9.19952 548.709 8.09944 549.029 7.20434 549.029C6.18806 549.029 5.10119 548.703 4.17325 548.546C0.155322 547.868 2.04103 545.367 2.27849 542.752C2.44573 540.912 1.77903 540.742 0.7854 540.85L1.89983 538.165C2.7836 536.006 4.16608 533.842 5.24087 531.75C6.01403 530.244 6.70338 528.262 7.78987 526.99C8.49923 526.159 9.67897 525.574 10.2702 524.679C10.6869 524.048 10.8466 523.365 11.2691 522.748C13.108 515.364 21.6584 505.978 28.0097 502.192C30.3175 500.816 34.0738 500.322 35.9667 498.57C38.1918 497.205 41.2916 497.011 43.8202 496.57C46.3556 496.127 44.6919 499.292 47.6094 496.673C48.7106 495.685 50.0957 494.755 51.0538 493.638C52.6122 491.823 54.9502 490.361 56.703 488.672C57.643 487.732 59.3392 488.049 59.8375 486.913C60.2358 486.006 60.7104 485.221 61.3533 484.499C63.2341 482.387 62.5036 481.142 62.3175 478.359L62.0777 474.778Z" fill="white" stroke="#1D1D1B" stroke-opacity="0.3" stroke-miterlimit="22.9256"/>
    <path fill-rule="evenodd" clip-rule="evenodd" d="M681.257 513.622C680.693 513.779 679.31 513.812 678.983 514.346C678.823 514.608 680.253 514.989 680.464 515.139C680.618 515.248 680.859 515.393 680.947 515.553C681.15 515.926 681.095 516.291 681.498 516.519C681.981 516.793 682.642 516.464 682.944 516.071C683.166 515.781 682.988 515.468 682.875 515.174C682.586 514.422 682.535 514.22 681.773 513.967L681.257 513.622ZM333.509 526.425C336.731 523.203 336.015 524.11 339.273 521.931C340.099 521.38 340.114 520.292 340.314 519.248C340.53 518.116 338.844 514.565 341.057 513.069C342.169 512.318 342.115 512.744 343.123 511.218C343.587 510.514 344.823 507.43 345.74 508.155C346.616 508.848 348.466 509.194 349.631 508.758C351.274 508.143 352.921 508.026 354.501 507.14C356.366 506.094 358.166 507.702 360.269 507.702C365.42 507.702 358.719 511.905 362.834 514.442C364.469 515.45 365.092 514.721 366.887 516.844C367.534 517.61 368.33 518.292 369.031 519.248C371.437 522.528 375.146 519.218 378.134 520.496C378.989 520.861 379.366 521.744 381.063 521.744C382.602 521.744 389.167 521.199 389.132 519.091C389.107 517.552 390.87 511.594 391.77 510.318C391.835 510.227 397.326 509.733 398.013 509.569C398.639 509.42 401.539 508.631 401.873 509.325C402.3 510.213 402.057 509.69 402.555 510.385C403.742 511.965 403.93 513.028 405.692 513.49C406.438 513.685 406.701 513.466 407.777 514.005C409.469 514.854 408.714 516.103 412.184 514.947C416.054 513.657 418.515 512.832 421.804 510.38C423.539 509.087 423.8 509.146 425.731 508.435C427.538 507.77 429.358 504.412 428.671 502.261C428.36 501.288 427.578 494.67 427.724 493.758C427.819 493.164 428.342 491.31 428.712 490.914L431.349 488.09C434.598 486.395 436.307 486.534 439.777 487.153C443.144 487.753 444.747 484.337 447.872 486.005C448.201 486.181 451.259 485.282 452.331 485.24C453.738 485.185 456.833 484 458.178 483.42C459.472 482.861 460.878 482.559 459.858 480.825C459.505 480.225 457.038 476.507 458.943 476.69C460.236 476.814 464.207 475.787 465.061 474.959C467.467 472.627 467.444 472.922 469.347 469.96C469.992 468.957 470.369 469.017 471.106 467.443C472.592 464.264 473.309 463.084 476.926 462.143C478.41 461.757 480.018 462.539 481.874 460.615C483.544 458.883 481.926 455.523 485.095 452.792C485.563 452.389 487.787 449.761 488.081 449.786C492.515 448.081 491.914 448.998 495.309 450.796C498.07 452.258 500.588 450.054 505.466 453.249C508.454 455.205 508.456 455.809 511.932 453.557C513.785 452.357 513.777 452.066 516.013 450.956C521.199 448.381 520.274 451.615 523.135 450.785C526.251 449.881 526.288 452.095 530.304 451.336C533.827 450.67 530.56 445.883 529.268 444.59C528.5 443.822 527.16 441.667 527.536 440.606C528.219 438.674 530.811 436.421 527.755 435.266C526.315 434.722 523.814 432.652 525.934 431.167C528.196 429.583 525.12 429.125 527.889 426.529C529.969 424.578 530.506 428.275 533.998 427.413C534.731 427.232 535.429 426.855 535.963 426.32C535.997 423.868 536.077 423.927 535.48 421.805C535.035 420.224 538.047 419.085 536.754 415.008C536.228 413.35 536.028 412.007 536.208 410.259C536.377 408.612 536.469 408.361 536.395 406.651C536.308 404.633 536.005 400.797 537.97 399.625C538.974 399.026 540.28 398.67 541.598 397.908C544 396.519 541.664 399.482 543.596 399.677C544.362 399.754 546.289 397.876 547.58 399.167C548.266 399.852 546.731 402.549 549.635 403.666C552.788 404.878 552.965 397.839 557.471 400.941C558.923 401.941 559.849 401.784 561.366 403.088C562.327 403.913 563.03 403.862 563.926 405.392C564.707 406.726 565.098 407.262 565.829 408.738C566.806 410.712 566.573 409.677 567.11 411.966C568.17 416.486 572.515 413.547 575.313 412.31L575.668 412.153C578.557 411.548 577.841 411.748 579.981 411.597C582.023 411.454 584.162 410.479 585.453 408.846C586.475 407.552 587.777 407.007 589.34 407.451C592.564 408.369 594.697 404.063 597.471 402.532C598.028 402.224 601.097 399.864 601.31 400.165C601.455 400.371 601.403 402.198 603.323 403.853C605.181 405.454 607.251 404.171 608.13 406.52C608.77 408.228 609.679 410.436 611.958 408.981C613.072 408.271 613.054 407.236 615.425 406.193C618.404 404.881 616.782 406.716 620.491 406.037C622.686 405.635 623.674 404.901 625.532 403.926C627.566 402.859 631.322 403.645 633.883 403.332C634.589 403.246 638.209 402.568 637.982 403.593C637.683 404.938 633.053 409.611 636.614 410.053C641.532 410.663 638.685 412.975 641.223 415.466C642.546 416.765 641.048 416.842 643.964 418.145C648.122 420.001 644.247 422.761 645.764 425.316C646.322 426.256 648.862 425.396 650.576 425.753C651.23 425.89 651.437 425.998 652.142 426.008C654.633 428.099 653.732 427.003 655.315 428.982C655.859 429.662 657.483 429.666 658.54 429.924C660.575 430.42 660.986 429.928 662.794 432.571C662.694 432.615 662.981 434.475 662.931 434.985C662.828 436.049 662.897 437.186 662.897 438.262C662.897 441.791 658.075 437.739 656.284 439.538C654.481 441.348 656.192 441.167 657.696 442.228C659.097 443.216 661.01 445.262 662.622 445.643C663.236 446.092 664.688 446.297 664.688 446.988C664.688 448.766 666.239 449.624 666.239 450.471C666.239 452.206 665.652 457.574 668.339 457.162C669.595 456.97 671.403 460.773 672.163 461.715C674.025 464.023 680.266 462.764 679.19 465.716C678.652 467.191 677.454 466.882 678.949 468.785C680.141 470.303 681.06 470.468 681.911 472.165C682.445 472.552 682.58 472.337 683.151 472.337C683.151 473.455 682.97 475.508 683.358 476.511C683.88 477.859 685.012 478.003 683.943 479.339C682.399 481.271 682.391 482.994 680.085 483.96C678.953 484.435 678.105 485.175 676.813 485.237C674.976 485.324 676.948 486.606 677.399 487.444C678.5 489.493 680.289 491.28 681.36 493.238C681.87 494.171 681.739 497.985 681.739 499.136C684.316 499.448 684.518 501.495 686.217 502.516C686.967 502.966 690.102 502.863 690.247 503.24C690.335 503.472 688.641 505.841 688.352 506.034C687.489 506.609 686.478 503.969 686.079 505.275C685.734 506.403 684.324 509.296 683.117 509.242C681.546 509.171 681.237 508.857 681.601 511.207C681.805 512.529 683.39 511.346 684.322 511.346C684.837 511.346 686.167 513.787 685.907 514.346C685.649 514.9 685.433 515.774 684.977 516.139C684.585 516.453 683.427 516.884 683.427 517.484C683.949 517.559 685.661 518.563 684.942 519.209C683.597 520.416 684.798 521.058 684.529 522.417C684.929 523.148 685.176 522.707 685.803 522.865C685.803 523.789 686.237 524.768 686.217 525.797L686.079 532.764C686.047 534.392 685.516 534.28 684.012 534.522C682.179 534.817 683.094 534.889 683.771 535.868C684.318 536.658 684.606 537.707 684.942 538.592C685.603 540.332 686.64 538.679 687.594 539.558C687.91 539.849 688.065 540.409 688.421 540.765C689.095 541.438 689.864 541.219 690.729 541.49C692.166 542.282 693.476 541.575 692.796 543.283C691.941 545.431 693.521 547.014 692.899 549.146C692.665 549.948 690.732 553.884 693.485 553.319C695.312 552.945 695.267 552.617 697.067 553.216C697.884 553.488 698.608 553.098 698.755 554.009C698.987 555.459 699.04 556.843 699.409 558.286C699.737 559.567 700.347 560.162 699.65 561.563L699.171 563.08L697.414 564.115C696.74 564.157 696.189 564.721 695.52 564.873C695.029 564.985 694.61 565.171 694.107 565.08C693.109 564.9 693.472 564.401 692.867 563.839C692.379 563.385 691.658 563.33 691.041 563.149C689.672 563.057 688.91 562.765 687.528 563.114C686.534 563.365 685.36 563.504 684.325 563.39C682.114 563.148 680.054 561.818 677.987 561.563C677.616 561.043 673.567 564.187 672.854 560.769C672.775 560.387 672.882 559.355 672.372 559.355C671.369 559.355 670.051 559.59 669.099 559.389C667.799 559.116 667.766 560.877 666.344 560.597L666.275 560.631L666.24 560.666C666.24 561.238 667.049 561.572 666.585 562.149C666.36 562.428 664.731 563.025 664.346 563.218C663.793 564.105 662.271 563.615 661.625 565.08C661.209 566.023 661.521 566.58 661.521 567.495C661.521 568.865 660.252 570.948 659.076 571.599C653.785 574.53 654.369 568.961 651.05 568.254C650.301 568.094 648.551 568.047 648.019 567.426C647.431 566.739 647.514 565.399 647.02 564.839C646.878 564.678 644.498 565.7 644.092 565.908C642.798 566.57 641.086 566.28 639.579 566.839C638.083 567.394 634.994 568.178 633.414 567.667C632.704 567.438 632.81 566.109 632.38 566.219C631.178 566.527 631.748 567.244 631.588 568.15L629.84 568.389C630.096 568.751 630.283 569.122 630.245 569.564C630.152 570.662 631.362 571.505 630.21 572.185C629.08 572.852 629.194 573.248 629.728 574.393C630.755 576.595 625.7 576.481 628.97 578.014C630.352 578.662 627.623 579.61 627.076 579.635C625.323 579.714 627.846 582.126 624.768 582.291C624.357 582.313 623.96 583.102 623.597 583.256C622.805 583.593 621.92 583.647 621.082 583.843C620.336 585.632 620.47 585.285 620.979 586.947C621.355 588.177 621.045 588.811 620.359 589.775C618.922 591.792 618.031 591.628 615.984 590.81C614.491 590.214 614.174 592.766 613.78 593.603C613.303 594.616 612.805 594.857 612.092 595.638C611 596.835 611.07 597.314 610.783 598.812C610.392 600.848 608.381 599.941 607.545 601.157C606.368 602.869 608.429 604.702 607.924 606.675C607.499 608.335 605.734 607.096 604.823 607.434C602.412 608.329 607.149 609.481 607.2 609.745C607.435 610.947 606.175 611.412 605.65 612.4C605.036 613.558 605.495 616.113 603.722 616.401C602.756 616.558 601.682 615.269 600.793 616.16C599.215 617.741 602.338 620.922 600.414 621.712C599.413 622.124 597.838 620.004 596.936 620.678C595.732 621.577 597.521 622.33 597.521 623.541C597.521 624.361 596.231 625.121 595.73 625.713C595.173 626.371 599.419 629.043 598.968 629.956C598.722 630.453 595.437 629.13 595.868 630.611C596.266 631.98 598.131 632.512 599.175 633.129C599.981 633.605 597.944 634.252 597.831 634.715C597.418 636.401 597.457 636.378 598.727 637.647C599.473 638.393 599.881 638.045 600.518 637.405C601.859 636.059 602.206 639.84 600.966 641.061C599.616 642.39 601.296 642.725 601.965 643.683C602.259 644.105 601.986 644.759 602.068 645.269C602.338 646.955 605.704 647.386 604.823 648.615C604.226 649.448 602.283 649.918 601.93 650.546C601.505 651.304 602.379 653.711 603.342 653.857C605.13 654.128 605.505 654.794 605.892 656.582C606.123 657.652 607.445 658.306 607.372 659.41C607.312 660.341 606.238 660.926 606.201 661.583C606.13 662.835 607.718 664.435 605.96 665.066C604.798 665.484 604.476 665.932 603.652 666.825C602.197 668.404 604.686 668.793 604.686 669.757C604.686 671.443 602.361 672.925 600.897 673.206C599.964 673.384 599.752 673.835 599.733 674.38C598.543 674.349 596.237 673.113 595.179 672.551C594.093 671.974 591.166 673.308 591.39 672.137C591.493 671.598 592.276 670.254 592.182 669.86C591.892 668.637 589.473 669.011 588.324 668.791C587.334 668.601 584.404 665.466 583.674 664.652L580.953 661.617C580.28 660.868 582.227 660.473 582.606 659.755C583.248 658.538 582.831 656.682 582.641 655.375C582.641 653.522 582.181 652.945 580.746 651.926C579.23 650.849 578.46 649.743 577.302 648.339C575.269 645.874 571.665 643.87 569.069 642.062C567.903 641.25 568.459 645.473 567.278 644.717C566.634 644.305 566.036 643.469 565.28 643.234C563.994 642.835 564.922 644.707 564.212 645.062C563.72 645.308 562.662 644.852 562.18 644.683C560.75 644.683 559.422 643.75 558.081 643.475C557.754 643.409 555.741 642.975 555.704 643.269C555.645 643.727 556.177 644.249 555.876 644.752C555.351 645.63 549.848 647.438 549.331 646.511C548.419 644.873 546.561 644.464 545.405 646.269C543.637 649.027 545.629 651.453 541.616 649.684C540.554 649.216 539.44 650.455 538.963 649.684C537.877 647.93 537.524 650.594 537.103 650.925C535.744 651.995 529.894 645.302 532.453 644.269C534.073 643.614 533.383 641.33 533.383 639.716C531.267 639.716 529.579 640.883 528.079 642.268C527.544 642.763 522.678 644.416 522.533 644.338C521.398 645.348 522.875 647.89 521.293 647.89C519.875 650.724 517.279 644.001 516.712 646.787C516.256 649.027 515.058 650.531 515.058 652.754C515.058 654.065 514.077 655.708 513.646 656.961C513.414 657.633 508.37 655.698 507.514 655.409C504.638 654.436 502.263 659.237 499.247 659.237C498.572 656.508 499.177 652.075 497.766 649.684C497.106 648.565 495.114 649.311 494.942 648.408C494.815 647.747 495.122 646.996 494.873 646.338C493.858 643.659 492.317 643.772 493.495 640.234C493.969 638.807 494.394 635.066 492.427 634.577C489.939 633.958 489.893 634.362 489.775 631.473C489.712 629.941 488.557 630.085 487.742 629.197C487.29 628.704 488.151 628.322 487.915 627.852C487.597 627.219 486.227 627.852 486.227 626.713C486.227 625.698 487.122 624.844 487.122 623.955C487.06 623.939 487.069 623.949 487.054 623.885L482.403 623.575C480.293 623.434 481.515 625.879 480.612 626.713C479.748 627.512 478.569 626.671 478.097 628.059C477.432 630.02 476.856 630.337 475.548 631.887C474.685 632.91 471.027 636.345 470.313 632.922C469.97 631.276 470.229 631.755 468.246 631.991C466.453 632.203 464.911 632.241 463.32 633.198C461.643 634.206 460.053 636.147 458.326 636.819L454.674 644.372C453.907 645.96 454.418 647.689 455.26 649.201C455.87 650.295 455.277 650.371 454.778 651.408C454.569 651.841 452.248 654.723 451.953 654.65C451.471 652.688 451.609 650.692 451.609 648.649L451.505 648.615C450.814 647.232 449.458 650.342 449.439 650.374C448.702 651.567 448.074 651.756 447.648 650.305L445.133 641.751C444.566 639.824 443.489 637.161 443.583 635.198C443.64 633.988 443.061 634.659 441.895 634.129C441.311 634.163 437.494 634.78 437.348 634.094C437.102 632.941 436.577 632.697 435.316 632.646C434.109 632.596 434.513 632.233 433.732 631.852C430.661 630.356 427.934 633.2 425.775 634.853C424.322 635.966 422.432 637.946 420.711 638.371C420.421 637.983 420.382 635.267 420.16 634.508C419.582 632.771 418.301 631.841 417.197 630.473C416.482 629.586 415.581 628.211 414.614 627.714C414.075 627.437 413.325 627.955 412.788 627.955C412.4 627.304 412.948 625.16 413.098 624.437C413.247 623.724 413.745 620.599 413.34 620.057C412.451 620.057 410.166 622.441 409.103 622.851C407.141 624.165 405.871 624.597 405.796 626.852C405.768 627.675 404.588 630.543 403.453 630.162C401.419 629.481 401.775 635.481 397.494 633.577C397.037 633.373 396.008 634.862 395.6 635.129C394.476 635.865 388.384 636.222 387.057 635.888C387.057 634.306 389.606 632.819 389.606 631.163C388.154 631.163 387.501 632.181 386.851 633.232C386.37 634.009 385.199 632.47 385.266 631.749C385.503 629.194 383.687 625.352 380.306 626.645C375.857 628.344 379.641 628.322 378.342 630.99C378.056 632.646 377.201 633.37 378.239 634.991C378.801 635.868 379.384 636.852 379.445 637.923C379.571 640.152 376.433 638.984 375.484 640.889C374.728 642.404 373.551 643.428 372.969 645.062C372.666 645.914 372.856 646.66 371.833 646.924C371.286 647.066 370.483 646.983 370.179 646.442C369.459 645.16 364.037 641.619 364.909 640.613C365.717 639.68 367.086 637.937 367.389 636.75C368.931 635.079 369.903 634.582 369.903 632.059C369.903 628.754 367.961 631.212 367.217 629.714C366.799 628.876 365.517 629.109 364.702 628.748C362.82 627.915 361.807 630.049 360.5 629.99C358.921 629.919 356.683 625.861 355.884 626.058C355.707 626.68 355.199 627.318 354.644 627.645C353.637 628.234 353.535 626.05 352.933 626.091C352.933 625.695 352.887 625.111 352.871 624.891C352.774 623.551 352.049 622.98 351.65 621.958C351.05 620.426 350.981 620.488 350.442 618.463L350.453 618.11C351.329 611.552 353.771 614.076 355.472 611.863C356.393 610.666 356.811 609.996 356.055 608.675C353.998 605.084 358.507 604.243 355.369 600.915C354.167 599.641 354.536 599.274 354.084 598.644C352.593 596.562 352.049 595.472 353.376 592.953C357.009 586.06 353.938 589.274 353.938 585.636C353.938 584.625 355.401 582.854 356.077 582.39C356.964 581.782 357.666 580.505 358.386 579.785C359.915 578.257 360.226 578.076 360.992 575.713C360.499 574.762 360.477 573.917 359.671 572.601C359.318 572.025 356.212 568.826 355.665 568.452C351.447 565.563 355.068 559.634 354.421 557.052C353.433 553.105 356.136 551.274 355.732 549.001C355.411 547.19 354.821 545.853 353.517 544.524C352.829 543.823 350.639 542.601 349.875 541.887C349.315 541.364 348.703 541 348.138 540.571C346.153 539.064 342.296 540.07 341.343 538.017C340.006 535.135 340.109 536.649 338.003 535.464C336.894 534.84 334.482 535.189 333.931 534.382C332.058 531.64 332.907 529.55 333.509 526.425Z" fill="white" stroke="#1D1D1B" stroke-opacity="0.3" stroke-miterlimit="22.9256"/>
    <path fill-rule="evenodd" clip-rule="evenodd" d="M355.776 331.368C355.014 331.368 354.387 331.289 353.702 331.277C352.533 331.256 351.599 331.021 350.524 330.928C350.054 330.888 349.859 330.764 349.637 330.741C349.122 330.689 348.22 330.386 347.78 330.117C347.031 329.659 345.602 328.912 345.444 327.943C345.375 327.516 345.105 327.179 345.098 327.093C345.021 326.143 343.677 326.729 343.589 326.836C343.307 327.178 342.71 327.213 342.291 327.311C341.714 326.598 341.624 326.72 341.891 326.094C342.079 325.652 344.308 325.668 344.497 325.4C344.859 324.884 344.323 324.815 344.351 323.912C344.353 323.874 344.102 323.319 344.102 322.724C344.102 322.213 344.13 321.227 344.312 320.789C344.479 320.386 344.721 319.435 345.009 319.135C345.169 318.97 346.479 316.119 346.682 315.672C346.98 315.012 348.718 313.873 349.377 313.643C350.735 313.17 352.018 313.081 353.427 312.84C353.57 312.815 353.537 312.861 353.684 312.801C354.941 312.643 354.778 312.646 355.711 312.676C356.278 312.694 356.702 312.429 357.521 312.605C358.295 312.772 359.161 312.931 359.834 313.394C360.015 313.519 361.782 314.337 362.18 314.538C363.33 315.117 363.498 316.352 365.434 315.35C365.963 315.076 366.5 314.229 367.299 314.301C367.8 314.346 370.009 313.934 370.262 314.265C370.493 314.566 370.559 316.12 370.197 316.452C369.452 317.135 369.242 317.214 368.985 318.339C368.753 319.354 369.846 318.605 370.301 318.605C372.209 318.605 369.533 320.735 371.899 321.359C373.246 321.714 373.451 322.698 375.03 322.721C375.618 322.73 375.603 322.598 376.19 322.633C378.256 322.758 379.926 320.977 379.145 325.056C378.867 326.508 378.094 325.701 377.132 325.821C376.354 325.919 375.844 325.832 375.027 325.964C374.324 326.077 372.745 325.876 372.418 326.903C372.267 327.378 373.565 326.971 374.125 327.085C375.854 327.438 374.818 327.319 375.391 328.146C375.753 328.668 377.268 329.033 376.395 330.031C375.53 331.022 374.698 329.895 373.861 331.815C373.556 332.517 372.557 333.226 371.791 332.707C371.333 332.396 370.767 332.123 370.241 331.963C369.299 331.676 368.966 330.86 368.407 331.589C368.163 331.907 366.895 331.726 367.513 332.758C367.986 333.55 367.698 333.871 367.13 334.517C366.471 335.265 365.509 334.949 365.369 333.742C365.268 332.861 364.579 333.795 365.132 332.198C365.367 331.521 365.046 330.265 364.341 330.393C363.827 330.485 363.222 331.102 362.5 331.292C360.758 331.751 360.576 331.7 358.809 331.739C358.553 331.745 357.13 331.738 357.024 331.773L355.776 331.368ZM397.923 325.259L392.383 319.05L391.961 319.393L394.411 322.342C394.411 322.527 394.399 322.793 394.226 322.915C393.481 323.442 393.546 322.428 392.46 322.229C392.003 322.145 392.055 322.155 391.743 322.545L395.988 327.413C396.412 327.024 396.294 327.045 396.27 326.513C396.256 326.18 396.069 325.421 396.561 325.279C397.013 325.149 396.869 326.088 397.677 325.708C397.715 325.69 397.735 325.675 397.767 325.65L397.923 325.259ZM382.63 326.413C382.028 326.335 382.093 326.348 381.861 325.943C381.775 325.793 382.404 325.698 382.51 324.934C382.605 324.253 384.05 323.518 383.898 324.464C383.805 325.044 384.516 324.986 384.343 325.772C384.287 326.028 383.76 326.232 383.548 326.343C383.446 326.396 383.337 326.443 383.223 326.46L382.63 326.413ZM252.302 177.232C253.867 178.682 253.863 179.562 255.464 180.815C255.768 181.052 258.067 182.991 258.186 183.167C259.17 184.612 257.821 188.386 257.744 190.342C257.561 194.991 257.847 194.134 262.246 193.364C264.714 192.932 265.106 192.122 266.693 195.035C267.023 195.642 270.536 201.194 270.77 201.358C272.899 202.855 276.364 202.756 275.058 205.628C273.218 209.675 275.236 211.466 276.665 215.036L276.79 215.348C277.545 216.679 277.711 217.563 278.459 218.588C278.93 219.233 280.955 218.243 281.597 218.718C282.793 219.605 285.451 218.886 284.447 221.543C282.948 225.509 286.734 224.176 283.76 229.515C283.098 230.703 284.744 230.828 281.847 231.466C280.13 231.843 279.376 233.299 280.666 234.758C281.449 235.645 282.489 238.094 282.237 239.422C281.601 242.776 283.315 244.669 282.658 247.24C282.404 248.232 279.833 250.222 278.875 250.444C276.471 251 276.332 251.621 274.897 253.516C274.079 254.597 272.958 257.096 272.295 258.348C271.855 259.661 269.917 265.715 268.907 266.695C266.615 268.92 266.044 268.148 265.173 268.828C263.731 269.953 263.337 271.409 262.14 273.014C261.679 273.633 258.933 277.405 258.498 277.57C253.759 279.373 250.1 275.947 248.811 275.947C246.997 275.947 242.257 282.998 238.355 281.898C236.883 281.482 233.956 282.82 233.48 284.59C232.917 286.689 232.049 286.532 232.387 289.751C232.608 291.854 233.412 293.922 235.872 292.372C237.273 291.49 236.679 288.554 239.349 288.554C241.861 288.554 239.637 293.642 242.126 296.792C245.415 300.955 243.876 303.448 244.759 304.697C245.867 306.265 249.24 302.844 250.591 302.363C251.803 301.932 254.638 300.499 255.32 302.684C255.487 303.221 255.17 304.138 255.19 304.843C255.423 306.745 254.991 308.203 255.268 309.716C255.66 311.861 257.856 310.313 259.638 309.819C260.839 309.487 262.436 308.034 262.759 309.025C262.998 309.756 264.304 314.069 264.304 314.527C264.304 319.743 259.722 317.679 259.866 320.103C259.927 321.129 261.504 322.667 258.862 323.758C257.307 324.401 257.933 323.17 255.803 325.205C255.729 325.276 253.681 326.734 253.664 326.738C253.057 326.889 248.982 328.053 248.979 328.507C248.971 329.665 250.8 329.695 250.127 331.841C249.595 333.54 249.838 335.903 251.683 336.677C253.598 337.481 251.35 340.319 252.983 343.485C253.665 344.807 254.026 345.978 254.877 347.344C256.891 351.759 256.902 349.664 258.732 350.448C260.264 351.105 258.019 353.813 261.125 355.457C264.027 356.993 262.692 356.445 264.366 358.911C266.068 361.418 267.789 363.937 269.548 366.425C270.956 368.416 270.823 369.068 272.889 370.44C274.066 371.222 275.1 372.467 273.934 373.727C271.423 376.44 275.195 377.785 274.714 380.123C273.668 385.194 277.367 385.975 276.961 389.163C276.818 390.283 276.121 390.108 275.063 390.832C274.484 391.229 273.936 391.446 273.294 391.717C267.929 395.355 270.737 391.139 265.469 393.261C265.011 393.445 261.766 395.558 261.479 395.898L261.308 396.023C261.387 398.121 261.183 400.299 261.666 402.326C261.914 403.367 262.24 407.114 261.603 408.068C261.152 408.744 260.503 408.637 259.497 409.691C258.681 410.545 257.551 409.767 256.46 412.952C255.56 415.578 254.789 415.376 253.92 417.123C253.325 418.316 257.881 423.563 258.743 424.753C259.458 425.74 259.515 425.896 260.121 426.9C261.008 428.367 261.946 429.117 263.664 429.219C264.307 429.258 267.138 429.517 267.577 429.751C269.202 430.619 268.148 432.197 271.473 434.082C272.883 434.882 275.167 438.196 270.547 436.98C269.06 436.588 268.485 437.906 267.925 439.023C267.528 441.643 267.504 442.642 265.381 443.891C265.005 444.113 261.972 446.145 261.891 446.325C261.626 446.914 262.828 449.873 263.175 450.506C263.856 451.75 264.766 452.949 265.224 454.313C265.697 455.718 267.056 456.488 265.865 457.803C265.454 458.257 264.628 459.953 263.742 460.872C262.176 462.497 260.721 465.83 262.963 467.498C264.462 468.614 266.814 472.08 268.02 469.81C268.651 468.62 269.929 465.281 271.774 466.546C273.528 467.748 274.046 466.461 275.313 465.021C276.348 463.844 277.297 458.689 279.048 460.893C279.868 461.925 283.144 463.462 284.472 464.074C286.604 465.056 285.158 467.051 288.624 466.499C293.31 465.753 293.14 469.032 296.048 471.71C297.481 473.028 297.861 475.308 300.637 477.041C301.903 477.831 303.145 477.947 304.492 479.058C306.415 480.645 307.104 480.114 308.919 478.3C309.766 477.454 311.342 475.403 312.686 476.281C314.434 477.425 313.436 478.712 313.815 480.987L313.872 481.586C314.777 484.995 314.633 483.841 315.723 486.137C316.536 487.848 313.516 489.014 313.101 490.245C312.409 492.303 314.247 490.901 313.481 494.277C313.149 495.741 311.812 497.311 311.812 497.859C311.812 498.448 314.875 500.21 314.99 504.298C315.048 506.337 316.133 513.385 318.758 513.545C324.998 513.925 320.908 517.214 323.751 519.531C326.052 521.405 324.785 523.558 327.091 523.458C328.909 523.378 330.459 523.976 331.602 525.382C331.85 525.687 331.846 525.63 332.163 525.835L333.662 526.583C336.884 523.362 336.168 524.269 339.426 522.09C340.252 521.538 340.267 520.45 340.466 519.406C340.683 518.275 338.997 514.723 341.21 513.228C342.322 512.477 342.268 512.903 343.276 511.377C343.74 510.673 344.976 507.589 345.892 508.313C346.769 509.006 348.619 509.352 349.784 508.916C351.427 508.301 353.074 508.184 354.654 507.299C356.518 506.253 358.318 507.86 360.422 507.86C365.572 507.86 358.872 512.063 362.987 514.601C364.622 515.609 365.245 514.88 367.04 517.003C367.687 517.769 368.482 518.45 369.183 519.406C371.59 522.687 375.298 519.377 378.287 520.654C379.142 521.02 379.519 521.903 381.216 521.903C382.754 521.903 389.32 521.357 389.285 519.249C389.26 517.711 391.023 511.753 391.923 510.476C391.987 510.385 397.479 509.891 398.166 509.727C398.792 509.578 401.692 508.79 402.026 509.483C402.453 510.372 402.21 509.849 402.707 510.544C403.895 512.124 404.083 513.186 405.845 513.649C406.591 513.844 406.854 513.624 407.93 514.164C409.622 515.012 408.867 516.262 412.337 515.105C416.206 513.816 418.668 512.99 421.957 510.539C423.691 509.245 423.953 509.304 425.884 508.593C427.691 507.928 429.511 504.571 428.824 502.42C428.513 501.447 427.731 494.829 427.877 493.916C427.972 493.323 428.495 491.468 428.865 491.072L431.502 488.248C431.378 487.642 429.355 485.403 428.818 484.951C428.345 484.553 424.787 481.713 424.692 481.592C423.512 480.089 422.745 478.173 424.621 476.827C427.009 475.115 425.909 476.627 428.194 473.395C428.589 470.636 429.067 467.684 427.298 465.28C425.479 462.807 429.287 462.576 430.816 460.164C432.076 458.175 429.247 454.65 428.126 452.773C426.365 449.825 431.522 449.278 431.513 448.727C431.498 447.738 431.326 448.139 432.46 448.453C433.37 448.704 434.916 449.321 435.585 448.941C438.42 447.33 435.455 442.415 435.826 439.911C436.138 437.808 435.368 433.922 434.618 431.939C433.618 429.293 433.574 427.341 432.813 424.716C432.775 424.258 432.599 423.942 432.186 423.728C430.741 422.979 430.31 423.383 428.875 423.41C427.541 423.436 425.994 424.581 424.277 424.238C422.089 423.8 422.818 424.928 421.612 424.913C420.234 424.896 420.261 422.744 420.453 421.793C420.736 420.388 420.809 418.568 418.715 418.906C416.154 419.32 414.984 419.25 412.435 419.053C407.051 418.637 407.621 418.103 404.091 414.741C402.629 413.349 401.657 411.758 400.231 410.267C398.967 408.945 400.64 408.563 401.642 408.755C403.626 409.136 405.525 408.298 407.468 409.176C410.998 410.77 412.43 410.299 416.118 410.299C417.504 410.299 418.781 411.055 419.432 410.383C422.792 406.913 423.74 409.078 426.587 407.116C427.196 406.696 428.027 401.775 427.965 401.681C426.958 400.145 423.2 402.908 423.2 399.493C423.2 397.716 420.122 396.006 423.422 392.908C426.879 389.663 424.151 387.353 424.807 385.045C425.901 381.187 420.491 381.743 422.076 380.858C424.522 379.492 424.162 381.494 427.507 377.909C428.518 377.479 429.164 376.314 430.473 375.781C432.064 375.135 432.754 374.024 434.385 374.612C438.518 376.103 438.363 371.061 434.711 372.199C431.072 373.334 432.226 369.935 435.883 369.437C437.611 369.202 438.917 368.214 440.446 368.235C444.212 368.286 443.408 363.544 445.356 363.612C446.241 363.642 451.486 366.713 452.739 366.675C454.794 366.613 455.819 366.752 457.239 365.053C459.778 362.013 459.78 364.608 461.359 365.245C463.039 365.922 462.451 366.332 463.631 367.299C465.094 368.497 466.139 371.409 466.671 371.679C467.385 372.04 469.221 374.154 470.11 373.369C470.938 372.637 470.827 372.346 471.004 371.227C471.287 369.427 470.074 366.37 471.53 365.973C471.754 365.911 474.451 366.166 475.998 365.66C477.213 365.263 478.962 365.619 479.806 364.699C481.395 362.965 478.835 360.485 479.385 358.874C479.911 357.329 482.905 359.566 481.991 354.823C481.667 353.146 482.159 351.594 483.926 352.883C485.148 353.774 485.903 353.918 487.272 354.698C490.351 356.453 491.463 355.662 494.18 353.319L494.31 353.189C495.985 351.515 497.65 351.093 498.546 350.115C500.603 347.872 500.867 349.128 500.667 346.506C500.187 340.219 502.504 345.318 503.45 345.82C506.505 347.442 506.175 344.79 506.831 343.277C507.334 342.12 507.06 342.124 507.244 341.358C507.451 340.496 506.229 338.245 507.098 338.544C509.583 339.403 509.885 338.568 512.55 337.878C515.356 337.151 510.789 334.913 509.958 334.613C508.117 333.945 510.021 332.792 506.139 331.835C503.028 331.068 506.09 329.656 506.587 328.277C507.852 324.767 506.441 325.89 505.776 323.613C505.735 323.474 504.86 319.653 504.856 319.618C504.502 316.813 503.894 315.591 503.669 312.441C503.669 309.597 502.976 308.836 501.672 306.434C501.144 305.463 502.502 304.59 503.336 304.35C505.563 303.708 507.864 302.099 507.212 299.476C506.543 296.792 509.038 295.646 509.038 294.343C509.038 292.396 508.029 291.599 507.852 290.91C507.652 290.134 508.905 287.952 509.163 287.353C509.367 287.043 509.94 283.611 509.912 283.296C509.809 282.154 511.641 278.041 510.395 277.924C508.154 277.713 508.927 277.585 506.634 275.964C506.601 275.934 503.573 275.264 503.201 275.277C502.049 275.316 501.515 273.449 501.515 272.672C501.515 271.585 502.728 269.48 503.388 268.849C503.931 268.33 505.283 265.488 505.261 264.839C505.138 261.259 503.684 264.283 503.638 258.426C504.734 257.276 505.672 257.257 506.477 256.554C510.333 253.19 507.918 252.825 508.274 250.718C508.756 247.858 509.479 249.47 508.382 246.371C507.702 244.448 506.311 243.252 507.92 241.695C508.487 241.147 509.548 238.77 509.631 238.086C509.948 235.445 511.145 232.983 511.067 230.576C511.009 228.793 514.899 226.013 512.025 224.866C510.61 224.302 510.875 223.65 510.448 223.337C509.399 222.567 508.696 223.345 508.361 224.392C507.502 227.071 504.945 225.955 504.075 226.327C501.851 227.279 502.28 226.706 500.449 227.181C498.955 227.567 498.545 227.054 497.561 227.721C495.258 229.284 494.936 229.029 492.775 226.972C492.269 226.166 492.726 225.436 492.468 224.321C492.137 222.882 492.015 221.856 491.823 220.409C491.668 219.251 489.31 219.514 488.5 219.795C486.308 220.557 487.174 220.31 484.895 220.56C483.343 220.731 483.164 218.993 481.361 220.981C478.788 223.82 478.646 222.325 477.787 222.552C475.921 223.045 476.533 227.387 473.501 226.145C470.601 224.957 468.337 224.936 465.51 223.082C464.436 222.377 463.89 224.16 463.564 224.975C462.38 227.94 464.638 229.28 462.788 229.645C460.564 230.085 455.431 228.283 452.433 228.283C450.137 228.283 447.981 227.224 446.677 225.307C446.211 224.623 445.56 219.583 445.08 218.979C444.041 217.672 444.712 217.073 443.27 215.489C442.908 215.091 440.237 215.164 439.757 215.255C438.131 215.567 437.169 215.445 435.773 215.63C433.26 215.963 433.263 215.87 430.409 215.739C425.806 218.08 430.842 221.461 427.772 226.963C426.949 228.438 426.772 231.383 424.536 231.075C422.102 230.74 421.081 229.261 420.171 227.186C419.638 225.969 418.583 224.735 417.53 223.941C416.374 223.069 416.15 222.235 415.603 221.719C414.074 220.28 411.526 217.622 410.844 215.641C410.24 213.884 408.35 214.554 407.167 215.296C405.776 216.169 402.968 216.553 403.003 218.064C403.088 221.713 401.897 220.394 399.638 220.794C396.96 221.268 395.632 221.317 394.221 223.811C393.563 224.974 390.982 228.209 389.774 226.041C388.792 224.279 387.286 223.2 385.149 223.29C382.855 223.386 383.678 220.842 382.522 219.483C381.916 218.772 379.121 220.439 378.558 220.992C377.312 222.216 373.783 223.287 372.804 221.73C371.824 220.17 371.142 219.3 370.853 217.361C370.075 212.503 367.919 215.26 367.919 211.541C367.919 207.97 369.841 204.693 365.791 203.199C364.565 202.748 363.829 202.065 362.691 201.463C362.102 201.151 358.306 200.874 357.583 200.964C353.28 201.498 356.104 196.994 356.001 195.855C355.728 192.842 351.339 197.225 351.438 194.327C351.554 190.894 349.819 191.812 349.388 190.121C348.503 186.645 343.145 189.268 340.451 186.287C339.615 185.363 340.282 185.343 338.453 183.536C338.152 183.01 336.692 180.745 336.2 180.545C335.099 180.097 336.649 177.06 335.201 175.911C332.927 174.105 332.959 174.177 332.959 171.184C332.959 169.025 328.803 169.909 327.319 169C326.589 168.552 323.808 168.635 322.981 168.885C319.569 169.916 320.575 168.525 318.804 169.016C317.067 169.497 316.618 170.998 315.854 171.059C314.471 171.171 313.216 172.318 312.342 172.535C308.866 173.398 309.137 171.65 307.067 170.05C306.349 169.494 304.904 167.534 304.866 167.512C302.609 166.194 301.357 166.398 298.811 167.434C298.709 167.42 297.653 167.016 297.546 166.935C295.871 165.655 296.531 166.55 295.774 168.058C295.352 168.896 295.51 170.536 296.33 171.184C298.212 172.671 294.128 173.009 293.301 173.045C291.018 173.146 291.107 174.61 289.343 174.158C286.399 173.402 288.37 172.133 285.285 171.615C283.821 171.369 282.927 170.32 282.164 170.538C279.334 171.347 280.985 174.259 279.089 175.235C276.671 176.479 275.873 176.331 273.569 175.569C270.996 174.718 270.918 173.557 267.847 174.128C265.459 174.571 265.064 171.923 263.805 171.859C261.097 171.723 261.363 170.367 259.169 170.367C256.461 170.367 258.135 174.891 255.377 175.115C253.485 175.269 253.55 175.475 252.302 177.232Z" fill="white" stroke="#1D1D1B" stroke-opacity="0.3" stroke-miterlimit="22.9256"/>
    <path fill-rule="evenodd" clip-rule="evenodd" d="M252.302 177.232C253.867 178.681 253.863 179.562 255.464 180.814C255.768 181.052 258.067 182.991 258.186 183.166C259.17 184.612 257.821 188.386 257.744 190.341C257.561 194.99 257.847 194.133 262.246 193.364C264.714 192.932 265.106 192.121 266.693 195.034C267.023 195.642 270.536 201.193 270.77 201.358C272.899 202.854 276.364 202.755 275.058 205.628C273.218 209.675 275.236 211.465 276.665 215.036L276.79 215.348C277.545 216.678 277.711 217.563 278.459 218.588C278.93 219.233 280.955 218.242 281.597 218.718C282.793 219.604 285.451 218.886 284.447 221.542C282.948 225.509 286.734 224.176 283.76 229.515C283.098 230.703 284.744 230.828 281.847 231.466C280.13 231.843 279.376 233.298 280.666 234.757C281.449 235.644 282.489 238.094 282.237 239.422C281.601 242.775 283.315 244.668 282.658 247.239C282.404 248.232 279.833 250.221 278.875 250.443C276.471 250.999 276.332 251.62 274.897 253.515C274.079 254.597 272.958 257.095 272.295 258.348C271.855 259.66 269.917 265.715 268.907 266.695C266.615 268.919 266.044 268.147 265.173 268.827C263.731 269.952 263.337 271.408 262.14 273.014C261.679 273.633 258.933 277.404 258.498 277.57C253.759 279.372 250.099 275.947 248.811 275.947C246.997 275.947 242.257 282.997 238.355 281.898C236.883 281.482 233.956 282.82 233.48 284.59C232.917 286.689 232.049 286.531 232.387 289.75C232.608 291.854 233.412 293.922 235.872 292.372C237.273 291.489 236.679 288.554 239.349 288.554C241.861 288.554 239.637 293.642 242.126 296.792C245.415 300.954 243.876 303.447 244.759 304.696C245.867 306.264 249.24 302.843 250.591 302.362C251.803 301.931 254.638 300.499 255.32 302.683C255.487 303.221 255.17 304.137 255.19 304.843C255.423 306.744 254.991 308.202 255.268 309.716C255.66 311.861 257.856 310.313 259.638 309.819C260.839 309.487 262.436 308.034 262.759 309.024C262.998 309.755 264.304 314.069 264.304 314.527C264.304 319.743 259.722 317.678 259.866 320.103C259.927 321.128 261.504 322.667 258.862 323.758C257.307 324.4 257.933 323.17 255.803 325.204C255.729 325.275 253.681 326.734 253.664 326.738C253.057 326.888 248.982 328.053 248.979 328.506C248.971 329.665 250.8 329.695 250.127 331.841C249.595 333.54 249.838 335.903 251.683 336.677C253.598 337.481 251.35 340.319 252.983 343.485C253.665 344.806 254.026 345.977 254.877 347.344C256.891 351.759 256.902 349.663 258.732 350.448C260.264 351.105 258.019 353.813 261.125 355.457C264.027 356.993 262.692 356.445 264.366 358.911C266.068 361.417 267.789 363.937 269.548 366.424C270.956 368.416 270.823 369.067 272.889 370.44C274.066 371.222 275.1 372.466 273.934 373.727C271.423 376.44 275.195 377.784 274.714 380.123C273.668 385.194 277.367 385.975 276.961 389.163C276.818 390.283 276.121 390.108 275.063 390.832C274.484 391.228 273.936 391.446 273.294 391.717C267.929 395.354 270.737 391.139 265.469 393.261C265.011 393.445 261.766 395.558 261.479 395.898L261.308 396.023L259.115 395.704C257.994 395.766 255.717 396.738 254.552 395.953C251.984 394.224 248.145 395.499 247.066 395.039C244.548 393.965 245.029 394.085 241.759 394.206C240.341 394.329 239.076 394.222 237.619 394.372C235.784 394.561 230.402 394.649 229.04 393.291C226.9 391.158 225.58 391.743 223.136 390.982C221.04 390.329 220.736 390.624 218.677 390.92C216.384 391.249 212.168 393.411 210.166 392.906C208.807 392.563 210.015 391.818 207.502 392.021C206.154 392.131 203.28 395.852 202.946 396.936C202.445 398.553 202.42 398.652 201.556 400.165C199.711 403.39 202.693 404.971 200.261 406.359C196.801 408.334 199.043 409.362 197.94 411.805C197.077 413.717 198.02 414.729 197.919 414.988C197.031 417.272 194.74 417.414 196.25 420.277C196.795 421.312 197.288 423.385 197.539 423.855C198.102 424.911 197.851 425.362 198.013 425.894C199.087 429.402 195.912 431.458 196.265 432.275C197.402 434.901 196.871 436.212 195.001 438.579C194.737 438.964 193.907 439.481 193.492 439.729C191.777 440.755 189.464 443.304 188.014 444.117C183.841 446.458 185.71 447.973 183.78 450.779C181.775 453.692 180.912 452.111 177.937 452.99C176.771 453.334 175.251 452.814 175.206 454.067C175.08 457.584 178.576 456.169 175.159 459.73C174.588 460.326 175.959 462.601 176.397 463.127C178.04 465.098 176.247 467.012 174.999 465.311C174.076 464.055 173.179 463.818 172.652 462.59C171.306 459.459 168.934 461.144 168.032 463.334C167.113 465.564 164.216 466.661 162.726 464.832C161.935 463.862 159.641 463.784 158.828 464.525C154.467 468.503 155.585 465.831 154.61 463.448C153.965 461.873 154.27 460.432 154.365 458.924C154.488 456.999 154.458 457.065 153.689 455.627C153.295 454.889 150.78 457.557 150.351 457.94C148.574 459.525 148.189 457.964 148.242 456.287C148.26 455.72 147.336 451.529 147.159 451.186C146.668 450.229 142.964 451.443 142.133 451.758C140.701 452.3 137.81 452.913 136.318 452.667C133.522 452.206 134.17 451.255 130.512 451.56C127.201 451.441 128.454 449.553 127.489 448.283C125.8 446.06 124.054 447.393 123.214 449.422C122.214 451.838 118.248 452.012 118.73 454.935C119.322 458.528 118.276 457.219 118.209 458.825C118.131 460.69 115.859 460.624 114.775 462.945C113.469 465.743 116.321 464.962 115.863 466.636C115.106 469.403 114.329 472.69 112.596 474.994C112.069 475.693 112.548 475.849 112.251 476.228C111.215 477.551 109.659 479.515 107.814 479.161C106.377 478.885 104.701 478.958 103.216 478.958C99.8367 478.958 100.939 475.459 99.2576 476.456C97.8279 477.304 93.2781 479.6 91.6982 479.191C90.3236 478.836 88.9042 479.062 87.4941 478.963C85.9395 478.854 85.454 479.229 84.0195 478.599C83.6937 478.456 81.6392 476.505 81.5852 476.404C80.723 474.802 79.5436 474.366 79.134 473.761C78.4647 472.773 77.4106 473.426 77.1935 471.656C77.0297 470.322 75.8605 471.081 75.3883 471.593C74.7706 472.264 72.5263 474.258 71.7052 474.157C69.6202 473.901 70.1974 473.69 67.6473 474.651L62.0777 474.777L61.9044 472.185C61.7727 470.219 60.8334 467.498 61.1464 465.77C61.3918 464.417 61.4261 462.678 61.3185 461.286C61.3185 459.157 59.2282 453.567 61.1807 452.009C61.5722 451.697 63.0242 450.622 62.9721 450.112C62.8569 448.983 61.3612 448.413 61.2842 446.973C61.1804 445.03 61.1992 443.105 60.8021 441.248C60.6643 440.604 59.6771 440.95 60.1818 439.558C60.2453 439.383 59.3554 438.133 59.3554 437.351C59.3554 437.085 58.204 436.317 57.9775 436.04C56.3976 433.868 57.6921 428.256 59.5619 426.383C60.4559 425.487 60.0304 425.07 59.9753 424.038C59.9451 423.473 60.3544 423.055 60.3544 422.589C60.3544 421.965 57.7265 419.822 57.1507 419.278C55.2748 417.503 55.5871 415.792 55.0842 413.38C54.8637 412.321 53.4899 412.723 52.7761 411.759C50.8919 408.923 50.0685 404.615 48.9182 401.412C47.9669 398.765 45.7108 394.951 45.5081 392.272C45.4046 390.905 44.7009 388.59 44.0614 387.41C43.7741 384.668 42.0277 381.989 41.2712 379.304L39.3768 372.579L36.0701 360.093L33.6589 350.264C33.0319 347.708 33.2829 345.405 33.1421 342.78C33.0711 341.457 30.8385 341.418 30.7309 340.469C30.5036 338.47 30.9128 336.081 30.4209 334.157C30.4209 332.821 31.6853 331.549 30.8687 330.433C30.0891 329.368 31.307 328.436 29.732 327.777C27.0758 326.665 27.7251 322.761 27.8029 320.396L28.0097 314.119C29.5557 314.263 28.4246 315.639 30.0419 315.947C31.4055 316.206 34.8783 315.972 35.2086 317.775C35.6092 319.963 36.2128 318.529 37.9645 317.878C39.102 317.455 40.1292 318.237 41.2712 317.947C43.2464 317.445 44.4155 316.725 46.4036 317.878C48.0896 318.857 48.5392 318.86 48.5392 320.844L49.1062 322.356C50.4388 321.899 52.1879 321.545 52.294 320.568C52.3144 320.378 52.0633 319.935 52.0184 319.844C50.8534 317.505 51.1999 317.785 52.673 315.774C54.8562 312.794 57.9613 317.907 59.6997 314.947C60.0924 314.278 60.0157 313.585 59.9474 312.889L63.8675 314.464C65.8937 318.895 63.4251 319.281 69.758 317.602C71.8456 317.049 76.1648 317.666 76.1648 314.74C77.405 314.426 78.3129 314.931 79.6093 314.153C81.2424 313.173 83.8001 311.604 84.3974 314.119C84.782 315.738 85.4404 316.132 86.9464 314.947C87.5345 314.483 90.0246 318.816 90.8042 319.43L92.9055 321.086C94.6783 322.482 94.8251 320.672 95.7988 320.672C95.7988 322.022 101.063 321.77 102.171 321.568C104.156 321.208 108.089 316.714 109.061 314.877C110.135 313.943 111.572 312.445 112.466 311.325C113.009 310.645 114.222 309.594 115.153 309.738C116.589 309.96 116.875 306.259 119.08 307.255C121.155 308.191 120.94 306.153 122.042 306.082C124.393 305.931 125.032 306.332 123.868 308.669C123.391 309.627 123.11 311.979 123.11 313.084C127.132 314.078 127.327 311.019 130.102 309.048C131.159 308.297 135.614 308.842 135.614 306.461C135.614 303.723 135.528 305.844 137.508 304.392C137.784 304.19 138.189 303.357 137.612 303.357C134.73 303.357 134.384 303.91 133.857 300.632C133.732 299.855 133.849 298.555 133.272 297.977C132.336 297.038 130.961 295.639 130.688 294.321C130.671 293.764 130.433 292.903 130.275 292.424C131.715 292.424 134.179 291.653 133.719 289.906C133.031 287.292 135.323 288.737 137.267 288.181C139.065 287.669 145.605 282.903 146.361 285.939C147.096 288.895 149.508 288.765 151.872 289.251C157.551 290.416 157.031 282.835 160.243 282.835C161.072 282.835 161.414 282.038 161.414 281.249C161.414 280.369 163.709 279.762 164.273 278.834C165.182 277.34 165.885 274.493 166.168 272.798C167.563 271.625 167.035 272.838 167.924 273.385C168.186 273.546 170.061 271.919 170.508 271.695C171.985 270.954 174.087 272.391 175.778 272.143C177.701 271.861 178.678 271.341 180.049 269.97C180.886 269.133 182.031 267.844 183.081 267.349C184.814 266.531 185.202 268.462 187.283 267.591C188.154 267.226 188.217 265.308 189.66 265.418C191.636 265.567 189.376 268.661 191.968 269.591C194.466 270.487 194.637 272.756 195.86 275.006C195.992 275.39 196.593 276.4 196.136 276.731C196.012 276.82 193.588 276.73 193.311 276.662C191.515 276.215 196.344 281.202 192.519 282.007C188.717 282.808 190.128 284.492 192.037 286.56C193.835 288.51 195.366 287.798 197.858 288.423C198.839 288.669 199.144 287.983 199.374 289.182C199.888 291.866 201.517 289.372 202.474 289.078C203.12 288.879 203.818 289.051 204.162 288.319C204.405 287.801 203.421 287.312 204.231 287.181C204.586 287.123 205.45 287.012 205.609 286.595C206.286 284.806 205.733 285.09 207.469 286.008C210.004 287.349 209.476 283.417 211.464 286.077C212.418 287.353 214.295 285.768 212.601 285.25C210.588 284.635 211.975 281.05 210.569 279.283C210.069 278.654 208.325 278.011 210.397 277.524C210.992 277.384 212.694 276.297 212.842 275.696C210.775 275.185 210.48 274.079 209.742 272.143C209.375 271.182 209.051 270.047 207.71 270.522C206.435 270.974 205.426 269.892 205.677 268.694C205.962 267.032 205.681 266.258 204.747 264.9C204.138 264.014 204.125 263.402 203.094 264.176C202.659 264.502 201.62 265.413 201.062 265.107C199.217 264.097 200.604 264.813 198.754 265.314C197.521 265.648 196.902 265.25 196.721 263.969C195.194 263.583 193.346 266.503 193.346 262.865C192.838 262.865 192.067 261.958 191.899 261.52C191.841 261.37 192.687 261.345 192.829 261.313C194.266 260.993 193.909 258.559 195.413 257.519C196.402 256.835 196.59 256.245 196.377 254.932C195.874 251.834 197.54 253.778 198.616 251.621C199.856 249.137 199.515 249.17 199.374 246.448C199.026 245.172 198.013 245.367 197.755 244.654C197.666 244.41 199.252 244.008 199.58 243.723C200.248 243.144 200.774 240.842 201.165 239.929C202.222 237.454 202.529 235.056 204.885 233.514C205.912 232.842 207.201 232.323 208.158 231.513C209.706 230.203 209.603 229.315 210.397 227.616C210.719 225.832 210.412 223.289 209.432 221.787C208.392 220.192 207.336 214.759 208.502 213.199C209.421 211.97 208.502 210.982 208.502 209.612C208.502 208.731 208.862 207.895 208.95 207.025C209.076 205.787 208.847 204.963 208.847 203.818C209.641 200.991 207.878 198.126 208.433 195.505C208.604 194.698 209.105 194.293 209.88 194.195C211.382 194.003 210.243 191.07 211.086 190.056C212.756 188.044 215.238 186.493 217.01 184.606C218.559 182.957 217.461 180.281 219.146 179.053C221.288 177.353 221.065 179.172 223.107 177.708C223.936 177.114 227.376 175.033 228.205 174.983C228.919 174.941 230.32 176.14 231.305 176.329C232.253 176.511 238.046 175.94 236.369 174.259C234.811 172.697 238.381 173.188 239.021 172.259C239.983 170.864 238.433 170.88 240.882 170.5C241.836 170.352 242.112 169.741 243.155 169.741C245.404 169.741 246.086 169.063 246.388 168.275L248.556 169.118C250.922 172.184 250.334 171.684 250.747 175.047C250.863 175.993 251.677 176.605 252.302 177.232Z" fill="white" stroke="#1D1D1B" stroke-opacity="0.3" stroke-miterlimit="22.9256"/>
    <path fill-rule="evenodd" clip-rule="evenodd" d="M397.923 325.26L392.383 319.05L391.961 319.393L394.411 322.342C394.411 322.527 394.399 322.793 394.226 322.916C393.481 323.442 393.546 322.429 392.46 322.229C392.003 322.145 392.055 322.155 391.743 322.545L395.988 327.413C396.412 327.025 396.294 327.045 396.27 326.514C396.256 326.181 396.069 325.421 396.561 325.28C397.013 325.149 396.869 326.088 397.677 325.709C397.715 325.691 397.735 325.675 397.767 325.65L397.923 325.26ZM382.63 326.414C382.028 326.336 382.093 326.348 381.861 325.943C381.775 325.793 382.404 325.698 382.51 324.935C382.605 324.253 384.05 323.518 383.898 324.464C383.805 325.045 384.516 324.987 384.343 325.773C384.287 326.028 383.76 326.232 383.548 326.343C383.446 326.397 383.337 326.444 383.223 326.46L382.63 326.414ZM355.776 331.368C355.014 331.368 354.387 331.29 353.702 331.277C352.533 331.256 351.599 331.022 350.524 330.929C350.054 330.888 349.859 330.764 349.637 330.742C349.122 330.689 348.22 330.386 347.78 330.117C347.031 329.659 345.602 328.912 345.444 327.944C345.375 327.517 345.105 327.179 345.098 327.093C345.021 326.143 343.677 326.729 343.589 326.836C343.307 327.179 342.71 327.214 342.291 327.311C341.714 326.599 341.624 326.72 341.891 326.095C342.079 325.653 344.308 325.668 344.497 325.4C344.859 324.884 344.323 324.815 344.351 323.913C344.353 323.874 344.102 323.319 344.102 322.724C344.102 322.213 344.13 321.228 344.312 320.79C344.479 320.386 344.721 319.435 345.009 319.136C345.169 318.97 346.479 316.12 346.682 315.672C346.98 315.012 348.718 313.873 349.377 313.644C350.735 313.17 352.018 313.082 353.427 312.84C353.57 312.816 353.537 312.862 353.684 312.801C354.941 312.643 354.778 312.647 355.711 312.676C356.278 312.695 356.702 312.429 357.521 312.606C358.295 312.773 359.162 312.931 359.834 313.394C360.015 313.519 361.782 314.338 362.18 314.538C363.33 315.117 363.498 316.352 365.434 315.35C365.963 315.076 366.5 314.229 367.299 314.302C367.8 314.347 370.009 313.934 370.262 314.265C370.493 314.567 370.559 316.121 370.197 316.452C369.452 317.136 369.242 317.214 368.985 318.34C368.753 319.355 369.846 318.605 370.301 318.605C372.209 318.605 369.533 320.735 371.899 321.359C373.246 321.715 373.451 322.698 375.03 322.722C375.618 322.73 375.603 322.598 376.19 322.633C378.256 322.758 379.926 320.978 379.145 325.057C378.867 326.509 378.094 325.701 377.132 325.822C376.354 325.92 375.844 325.833 375.027 325.964C374.324 326.078 372.745 325.876 372.418 326.903C372.267 327.378 373.565 326.971 374.125 327.085C375.854 327.438 374.818 327.319 375.391 328.146C375.753 328.669 377.268 329.034 376.395 330.032C375.53 331.022 374.698 329.896 373.861 331.816C373.556 332.517 372.557 333.226 371.791 332.708C371.333 332.396 370.767 332.124 370.241 331.964C369.299 331.676 368.966 330.86 368.407 331.589C368.163 331.907 366.895 331.727 367.513 332.759C367.986 333.55 367.698 333.872 367.13 334.517C366.471 335.266 365.509 334.949 365.369 333.742C365.268 332.861 364.579 333.796 365.132 332.198C365.367 331.521 365.046 330.266 364.341 330.393C363.827 330.485 363.222 331.102 362.5 331.292C360.758 331.751 360.576 331.701 358.809 331.74C358.553 331.746 357.13 331.738 357.024 331.774L355.776 331.368Z" fill="white" stroke="#1D1D1B" stroke-opacity="0.3" stroke-width="0.377953" stroke-miterlimit="22.9256"/>
</svg>
