<svg viewBox="0 0 108 33" fill="none"
 xmlns="http://www.w3.org/2000/svg">
<path d="M32.2354 29.028H18.2614V3.95898H32.2354V29.028Z" fill="#FF5F00"/>
<path d="M21.3314 22.9328C22.3901 25.1058 23.9251 27.0138 25.7777 28.4978C23.4487 30.3528 20.6433 31.5188 17.6262 31.8368C14.6621 32.1548 11.645 31.6248 8.99837 30.2998C6.29886 28.9748 4.0228 26.9608 2.43486 24.4168C0.846909 21.8728 0 18.9578 0 15.9368C0 12.9688 0.846909 10.0538 2.43486 7.50979C4.0228 4.96579 6.29886 2.89879 8.99837 1.62679C11.645 0.30179 14.6621 -0.22821 17.6262 0.08979C20.6433 0.40779 23.4487 1.57379 25.7777 3.42879C23.9251 4.91279 22.3901 6.82079 21.3314 8.99379C20.2728 11.1668 19.6906 13.5518 19.6906 15.9368C19.6906 18.3748 20.2728 20.7598 21.3314 22.9328Z"
      fill="#EB001B"/>
<path d="M51.079 16.4666C51.079 19.4876 50.2321 22.4026 48.6441 24.9466C47.0562 27.4906 44.7801 29.5046 42.0806 30.8296C39.3811 32.1546 36.364 32.6846 33.3998 32.3666C30.4356 32.0486 27.6303 30.8826 25.2484 29.0276C27.1539 27.5436 28.6889 25.6356 29.7475 23.4626C30.8062 21.2896 31.3355 18.9046 31.3355 16.4666C31.3355 14.0816 30.8062 11.6966 29.7475 9.52357C28.6889 7.35057 27.1539 5.44257 25.2484 3.95858C27.6303 2.10357 30.4356 0.937575 33.3998 0.619575C36.364 0.301575 39.3811 0.831575 42.0806 2.15657C44.7801 3.42858 47.0562 5.49558 48.6441 8.03958C50.2321 10.5836 51.079 13.4986 51.079 16.4666Z"
      fill="#F79E1B"/>
<path fill-rule="evenodd" clip-rule="evenodd"
      d="M63.1474 32.1547H62.4593V24.2047H63.1474V32.1547ZM68.1759 24.2047C68.7758 24.2047 69.3757 24.293 69.9756 24.4697C70.4696 24.6463 70.9107 24.9113 71.2989 25.2647C71.6694 25.6357 71.987 26.0597 72.1458 26.5367C72.5692 27.5967 72.5692 28.7627 72.1458 29.8227C71.987 30.2997 71.6694 30.7237 71.2989 31.0947C70.9284 31.4657 70.452 31.7307 69.9756 31.8897C69.3757 32.1017 68.7758 32.19 68.1759 32.1547H65.2647V24.2047H68.1759ZM66.0057 24.8937V31.5187H68.1759C68.7052 31.5187 69.2169 31.4303 69.7109 31.2537C70.1344 31.1123 70.5049 30.9003 70.8225 30.6177C71.1401 30.2997 71.3694 29.9463 71.5106 29.5577C71.8282 28.6567 71.8282 27.7027 71.5106 26.8017C71.3694 26.413 71.1401 26.0773 70.8225 25.7947C70.5049 25.4767 70.1344 25.247 69.7109 25.1057C69.2169 24.929 68.7052 24.8583 68.1759 24.8937H66.0057ZM80.509 24.1517C80.8618 24.1517 81.1971 24.187 81.5147 24.2577C81.8323 24.3283 82.1322 24.4343 82.4145 24.5757C82.6615 24.717 82.9085 24.8937 83.1555 25.1057C83.3673 25.2823 83.5614 25.4943 83.7378 25.7417L83.1555 26.1657C83.0144 25.9537 82.8556 25.7593 82.6792 25.5827C82.4674 25.406 82.2557 25.2647 82.044 25.1587C81.8323 25.0527 81.5852 24.9643 81.3029 24.8937C81.0559 24.823 80.7913 24.7877 80.509 24.7877C80.0502 24.7877 79.6091 24.876 79.1857 25.0527C78.7975 25.194 78.4446 25.4237 78.127 25.7417C77.8447 26.0597 77.6154 26.413 77.4389 26.8017C77.1214 27.7027 77.1214 28.7097 77.4389 29.5577C77.6154 29.9817 77.8447 30.3527 78.127 30.6707C78.4446 30.9533 78.7975 31.183 79.1857 31.3597C79.6091 31.5363 80.0502 31.607 80.509 31.5717C80.7913 31.5717 81.0559 31.554 81.3029 31.5187C81.55 31.448 81.797 31.3597 82.044 31.2537C82.2557 31.1123 82.4674 30.971 82.6792 30.8297C82.8556 30.653 83.0144 30.4587 83.1555 30.2467L83.6849 30.6707C83.5437 30.918 83.3496 31.13 83.1026 31.3067C82.8909 31.5187 82.6439 31.6953 82.3616 31.8367C82.0793 31.978 81.797 32.084 81.5147 32.1547C80.6148 32.3667 79.715 32.2607 78.921 31.9427C78.4446 31.7837 78.0212 31.4657 77.6507 31.1477C77.2625 30.759 76.9625 30.3173 76.7508 29.8227C76.3803 28.7627 76.3803 27.5967 76.7508 26.5367C76.9625 26.0773 77.2625 25.6533 77.6507 25.2647C78.0212 24.8937 78.4446 24.6287 78.921 24.4167C79.4503 24.2047 79.9797 24.0987 80.509 24.1517ZM85.8551 27.7557C85.9609 27.579 86.0844 27.42 86.2256 27.2787C86.3667 27.1727 86.5255 27.0667 86.702 26.9607C86.8431 26.89 87.0019 26.837 87.1784 26.8017C87.3548 26.7663 87.5489 26.7487 87.7606 26.7487C88.0429 26.7487 88.3428 26.8017 88.6604 26.9077C88.9074 26.9783 89.1368 27.1197 89.3485 27.3317C89.5603 27.5083 89.7191 27.738 89.8249 28.0207C89.9308 28.3033 89.9837 28.586 89.9837 28.8687V32.1547H89.3485V29.0807C89.3485 28.8333 89.3133 28.6037 89.2427 28.3917C89.1721 28.1797 89.0486 27.9853 88.8722 27.8087C88.731 27.6673 88.5546 27.5613 88.3428 27.4907C88.0958 27.3847 87.8488 27.3317 87.6018 27.3317C87.3901 27.3317 87.1607 27.3847 86.9137 27.4907C86.702 27.5613 86.5255 27.685 86.3844 27.8617C86.2079 28.003 86.0668 28.1797 85.9609 28.3917C85.8903 28.639 85.8551 28.8863 85.8551 29.1337V32.1547H85.2199V23.9927H85.8551V27.7557ZM93.7948 26.7487C94.1477 26.7487 94.4829 26.8193 94.8005 26.9607C95.0828 27.0667 95.3475 27.2433 95.5945 27.4907C95.8062 27.738 95.9826 28.0383 96.1238 28.3917C96.2296 28.745 96.2826 29.0983 96.2826 29.4517C96.2826 29.5223 96.2826 29.5753 96.2826 29.6107C96.2826 29.646 96.2826 29.6813 96.2826 29.7167H91.8363C91.8363 30.0347 91.9069 30.3173 92.048 30.5647C92.1539 30.812 92.2951 31.024 92.4715 31.2007C92.6832 31.342 92.895 31.4657 93.1067 31.5717C93.3537 31.6423 93.6184 31.6777 93.9007 31.6777C94.2535 31.6777 94.5888 31.607 94.9064 31.4657C95.1887 31.3597 95.4533 31.183 95.7003 30.9357L96.0179 31.3597C95.8768 31.5363 95.7003 31.6777 95.4886 31.7837C95.3475 31.925 95.171 32.031 94.9593 32.1017C94.7828 32.137 94.6064 32.1723 94.43 32.2077C94.2182 32.243 94.0242 32.2607 93.8477 32.2607C93.4949 32.2607 93.142 32.19 92.7891 32.0487C92.4715 31.9073 92.1892 31.713 91.9422 31.4657C91.6952 31.2183 91.5011 30.9357 91.3599 30.6177C91.2188 30.2643 91.1659 29.8933 91.2012 29.5047C91.1659 29.116 91.2188 28.745 91.3599 28.3917C91.5011 28.0737 91.6952 27.791 91.9422 27.5437C92.1892 27.261 92.4715 27.0667 92.7891 26.9607C93.1067 26.8193 93.4419 26.7487 93.7948 26.7487ZM93.7948 27.3317C93.5478 27.3317 93.3008 27.367 93.0538 27.4377C92.842 27.5437 92.6479 27.685 92.4715 27.8617C92.2951 28.003 92.1539 28.1973 92.048 28.4447C91.9422 28.6567 91.8716 28.904 91.8363 29.1867H95.6474C95.6121 28.904 95.5592 28.6567 95.4886 28.4447C95.3827 28.1973 95.2416 27.9853 95.0652 27.8087C94.8887 27.6673 94.6946 27.5437 94.4829 27.4377C94.2712 27.367 94.0418 27.3317 93.7948 27.3317ZM99.9878 26.7487C100.376 26.7487 100.746 26.8193 101.099 26.9607C101.452 27.102 101.752 27.314 101.999 27.5967L101.576 28.0207C101.364 27.8087 101.117 27.6497 100.835 27.5437C100.588 27.4023 100.305 27.3317 99.9878 27.3317C99.7055 27.3317 99.4408 27.3847 99.1938 27.4907C98.9468 27.5967 98.7351 27.7557 98.5586 27.9677C98.3469 28.1443 98.1881 28.374 98.0823 28.6567C97.8705 29.1867 97.8705 29.8227 98.0823 30.3527C98.1881 30.6 98.3293 30.8297 98.5057 31.0417C98.7174 31.2183 98.9468 31.3597 99.1938 31.4657C99.4408 31.607 99.7055 31.66 99.9878 31.6247C100.305 31.66 100.605 31.607 100.888 31.4657C101.135 31.3597 101.364 31.2007 101.576 30.9887L101.999 31.4127C101.752 31.6953 101.452 31.9073 101.099 32.0487C100.411 32.3137 99.6173 32.3137 98.9292 32.0487C98.5763 31.9073 98.2763 31.713 98.0293 31.4657C97.7823 31.2183 97.6059 30.9357 97.5 30.6177C97.253 29.8757 97.253 29.1337 97.5 28.3917C97.6059 28.0737 97.7823 27.791 98.0293 27.5437C98.2763 27.2963 98.5763 27.102 98.9292 26.9607C99.282 26.8193 99.6349 26.7487 99.9878 26.7487ZM103.905 29.0807H104.805L107.028 26.8017H107.822L105.281 29.3457L107.875 32.1547H107.081L104.805 29.6637H103.905V32.1547H103.27V23.9927H103.905V29.0807Z"
      fill="#1D1D1B"/>
<path d="M74.4748 12.015H68.6523V1.521H74.4748V12.015Z" fill="#FF5F00"/>
<path d="M69.7109 9.68271C70.1344 10.5837 70.7696 11.3787 71.5635 12.0147C70.5578 12.8097 69.3934 13.2867 68.1759 13.3927C66.9056 13.5517 65.6881 13.3397 64.5766 12.7567C63.4121 12.2267 62.5122 11.3787 61.8241 10.3187C61.189 9.25871 60.8184 8.03971 60.8184 6.76771C60.8184 5.54871 61.189 4.27671 61.8241 3.21671C62.5122 2.15671 63.4121 1.30871 64.5766 0.778711C65.6881 0.248711 66.9056 0.0367109 68.1759 0.142711C69.3934 0.301711 70.5578 0.778711 71.5635 1.52071C70.7696 2.15671 70.1344 2.95171 69.7109 3.85271C69.2346 4.75371 69.0228 5.76071 69.0228 6.76771C69.0228 7.77471 69.2346 8.78171 69.7109 9.68271Z"
      fill="#EB001B"/>
<path d="M82.3086 6.76771C82.3086 8.03971 81.9381 9.25871 81.3029 10.3187C80.6148 11.3787 79.6621 12.2267 78.5505 12.7567C77.4389 13.3397 76.1686 13.5517 74.9512 13.3927C73.7337 13.2867 72.5163 12.8097 71.5635 12.0147C72.3575 11.3787 72.9927 10.5837 73.4161 9.68271C73.8396 8.78171 74.1042 7.77471 74.1042 6.76771C74.1042 5.76071 73.8396 4.75371 73.4161 3.85271C72.9927 2.95171 72.3575 2.15671 71.5635 1.52071C72.5163 0.778711 73.7337 0.301711 74.9512 0.142711C76.1686 0.0367109 77.4389 0.248711 78.5505 0.778711C79.6621 1.30871 80.6148 2.15671 81.3029 3.21671C81.9381 4.27671 82.3086 5.54871 82.3086 6.76771Z"
      fill="#F79E1B"/>
<path d="M81.6205 10.9017V10.6897H81.5146V10.6367H81.7264V10.6897H81.6735V10.9017H81.6205ZM82.044 10.9017V10.6897L81.9381 10.9017L81.8322 10.7427V10.9017H81.7793V10.6367H81.8852L81.9381 10.8487L81.991 10.6367H82.0969V10.9017H82.044Z"
      fill="#F79E1B"/>
</svg>
