<svg width="77" height="63" viewBox="0 0 77 63" fill="none" xmlns="http://www.w3.org/2000/svg">
<g clip-path="url(#clip0_312_1726)">
<path d="M1.16663 5.83333L1.16663 61.8333L17.5 61.8333L17.5 5.83333L1.16663 5.83333Z" fill="#F1F2F1"/>
<path d="M1.08636 6.41668C2.19865 7.00001 4.37635 7.5424 5.32942 8.57452C6.46162 9.92916 4.36164 11.0111 3.71659 11.3694C3.07154 11.7277 4.23236 13.7417 6.33928 14.7237C8.5322 15.7846 8.60369 17.433 8.63228 18.0924C8.57488 18.6729 6.98372 20.063 6.35297 20.751C5.72222 21.4389 9.19865 24.5 10.0216 27.2803C10.8028 29.9193 9.25424 32.4331 7.2474 33.7588C5.24056 35.0844 5.92114 37.4495 6.69508 38.1591C7.555 38.9475 6.35805 39.9078 5.21849 40.2875C3.99294 40.5884 5.36148 43.5842 6.72306 44.5161C8.08465 45.4479 10.3207 45.5986 9.40313 47.2899C8.4856 48.9811 6.55045 50.0559 6.42851 51.0521C6.22772 52.1343 8.43494 53.5249 10.5631 56.9007C11.6308 58.671 10.9569 60.2691 9.93194 61.387C8.99297 62.5837 7.68667 62.4383 6.28199 62.4167C5.03499 62.223 1.97797 63.284 1.03205 62.4167C0.823457 62.0459 0.816103 58.7271 0.823458 56.9928L1.08636 11.6486C0.986279 9.34089 0.448653 8.16667 1.08636 6.41668Z" fill="#C3D21F"/>
<path d="M38.1169 26.25L68.8279 26.25C72.3554 26.25 75.4508 29.5526 75.4509 33.833C75.4509 38.1024 72.3654 41.417 68.6218 41.417L38.1169 41.417L38.1169 26.25Z" fill="#08BFD3" stroke="#1D1D1B" stroke-width="1.16667"/>
<path d="M17.9486 6.2817L17.9486 62.3275C17.9486 62.7758 17.7663 63 17.584 63L0.813195 63C0.630903 63 0.448611 62.7758 0.448611 62.3275L0.448609 6.2817C0.448609 6.05752 0.6309 5.83334 0.813192 5.83334L17.4017 5.83334C17.7663 5.83334 17.9486 6.05752 17.9486 6.2817ZM17.0372 61.8791L17.0372 6.95425L1.36007 6.95425L1.36007 61.8791L17.0372 61.8791Z" fill="#1D1D1B"/>
<path d="M17.904 6.28171L17.904 62.3275C17.904 62.7758 17.6885 63 17.2575 63C17.042 63 16.8265 62.7758 16.8265 62.5516L16.8265 6.50589C16.8265 6.28171 17.042 6.05753 17.2575 6.05753C17.6885 5.83334 17.904 6.05753 17.904 6.28171Z" fill="#1D1D1B"/>
<path d="M5.62067 12.783L5.62067 26.6824C5.62067 26.9065 5.40517 27.1307 5.18967 27.1307C4.97417 27.1307 4.75867 26.9065 4.75867 26.6824L4.75867 12.783C4.75867 12.5588 4.97417 12.3346 5.18967 12.3346C5.40517 12.1105 5.62067 12.3346 5.62067 12.783Z" fill="#1D1D1B"/>
<path d="M8.2066 12.783L8.2066 19.7327C8.2066 19.9569 7.9911 20.181 7.77561 20.181C7.56011 20.181 7.34461 19.9569 7.34461 19.7327L7.34461 12.783C7.34461 12.5588 7.56011 12.3346 7.7756 12.3346C7.9911 12.1105 8.2066 12.3346 8.2066 12.783Z" fill="#1D1D1B"/>
<path d="M8.61524 5.83334V3.5C8.61524 2.85567 9.13757 2.33334 9.7819 2.33334H21.3603C22.4386 2.33334 23.3764 3.0722 23.6288 4.12054L30.5668 32.9397C30.693 33.4639 31.1619 33.8333 31.701 33.8333H37.9166" stroke="#1D1D1B" stroke-width="1.16667"/>
</g>
<defs>
<clipPath id="clip0_312_1726">
<rect width="63" height="77" fill="white" transform="translate(2.75382e-06 63) rotate(-90)"/>
</clipPath>
</defs>
</svg>
