<svg viewBox="0 0 79 79" fill="none" xmlns="http://www.w3.org/2000/svg">
    <rect x="44" y="45" width="7" height="6" rx="0.5" stroke="#1D1D1B"/>
    <path d="M13.5 12C13.5 14.4853 15.5147 16.5 18 16.5C20.4853 16.5 22.5 14.4853 22.5 12V8.5V5C22.5 2.51472 20.4853 0.5 18 0.5C15.5147 0.5 13.5 2.51472 13.5 5V8.5V12Z" fill="#C8E600"/>
    <path d="M34.5 12C34.5 14.4853 36.5147 16.5 39 16.5C41.4853 16.5 43.5 14.4853 43.5 12V8.5V5C43.5 2.51472 41.4853 0.5 39 0.5C36.5147 0.5 34.5 2.51472 34.5 5V8.5V12Z" fill="#C8E600"/>
    <path d="M55.5 8.5V12C55.5 14.4853 57.5147 16.5 60 16.5C62.4853 16.5 64.5 14.4853 64.5 12V8.5V5C64.5 2.51472 62.4853 0.5 60 0.5C57.5147 0.5 55.5 2.51472 55.5 5V8.5Z" fill="#C8E600"/>
    <path d="M77.5 48.5V24.5M64.5 8.5V12C64.5 14.4853 62.4853 16.5 60 16.5C57.5147 16.5 55.5 14.4853 55.5 12V8.5M64.5 8.5H72.5M64.5 8.5V5M55.5 8.5H43.5M55.5 8.5V5M43.5 8.5V12C43.5 14.4853 41.4853 16.5 39 16.5C36.5147 16.5 34.5 14.4853 34.5 12V8.5M43.5 8.5V5M34.5 8.5H22.5M34.5 8.5V5M22.5 8.5V12C22.5 14.4853 20.4853 16.5 18 16.5C15.5147 16.5 13.5 14.4853 13.5 12V8.5M22.5 8.5V5M13.5 8.5H5.5M13.5 8.5V5M43.5 71.5H5.5C2.73858 71.5 0.5 69.2614 0.5 66.5V24.5M0.5 24.5H77.5M0.5 24.5V13.5M77.5 24.5V13.5M72.5 8.5C75.2614 8.5 77.5 10.7386 77.5 13.5M72.5 8.5C75.2614 8.5 77.5 10.7386 77.5 13.5M0.5 13.5C0.5 10.7386 2.73858 8.5 5.5 8.5M0.5 13.5C0.5 10.7386 2.73858 8.5 5.5 8.5M13.5 5C13.5 2.51472 15.5147 0.5 18 0.5M13.5 5C13.5 2.51472 15.5147 0.5 18 0.5M18 0.5C20.4853 0.5 22.5 2.51472 22.5 5M18 0.5C20.4853 0.5 22.5 2.51472 22.5 5M34.5 5C34.5 2.51472 36.5147 0.5 39 0.5M34.5 5C34.5 2.51472 36.5147 0.5 39 0.5M39 0.5C41.4853 0.5 43.5 2.51472 43.5 5M39 0.5C41.4853 0.5 43.5 2.51472 43.5 5M55.5 5C55.5 2.51472 57.5147 0.5 60 0.5M55.5 5C55.5 2.51472 57.5147 0.5 60 0.5M60 0.5C62.4853 0.5 64.5 2.51472 64.5 5M60 0.5C62.4853 0.5 64.5 2.51472 64.5 5" stroke="#1D1D1B"/>
    <path fill-rule="evenodd" clip-rule="evenodd" d="M72.5 8.5H64.5V12C64.5 14.4853 62.4853 16.5 60 16.5C57.5147 16.5 55.5 14.4853 55.5 12V8.5H43.5V12C43.5 14.4853 41.4853 16.5 39 16.5C36.5147 16.5 34.5 14.4853 34.5 12V8.5H22.5V12C22.5 14.4853 20.4853 16.5 18 16.5C15.5147 16.5 13.5 14.4853 13.5 12V8.5H5.5C2.73858 8.5 0.5 10.7386 0.5 13.5V24.5H77.5V13.5C77.5 10.7386 75.2614 8.5 72.5 8.5Z" fill="#00D3E8"/>
    <path d="M77.5 48.5V24.5M64.5 8.5V12C64.5 14.4853 62.4853 16.5 60 16.5C57.5147 16.5 55.5 14.4853 55.5 12V8.5M64.5 8.5H72.5M64.5 8.5V5M55.5 8.5H43.5M55.5 8.5V5M43.5 8.5V12C43.5 14.4853 41.4853 16.5 39 16.5C36.5147 16.5 34.5 14.4853 34.5 12V8.5M43.5 8.5V5M34.5 8.5H22.5M34.5 8.5V5M22.5 8.5V12C22.5 14.4853 20.4853 16.5 18 16.5C15.5147 16.5 13.5 14.4853 13.5 12V8.5M22.5 8.5V5M13.5 8.5H5.5M13.5 8.5V5M43.5 71.5H5.5C2.73858 71.5 0.5 69.2614 0.5 66.5V24.5M0.5 24.5H77.5M0.5 24.5V13.5M77.5 24.5V13.5M72.5 8.5C75.2614 8.5 77.5 10.7386 77.5 13.5M72.5 8.5C75.2614 8.5 77.5 10.7386 77.5 13.5M0.5 13.5C0.5 10.7386 2.73858 8.5 5.5 8.5M0.5 13.5C0.5 10.7386 2.73858 8.5 5.5 8.5M13.5 5C13.5 2.51472 15.5147 0.5 18 0.5M13.5 5C13.5 2.51472 15.5147 0.5 18 0.5M18 0.5C20.4853 0.5 22.5 2.51472 22.5 5M18 0.5C20.4853 0.5 22.5 2.51472 22.5 5M34.5 5C34.5 2.51472 36.5147 0.5 39 0.5M34.5 5C34.5 2.51472 36.5147 0.5 39 0.5M39 0.5C41.4853 0.5 43.5 2.51472 43.5 5M39 0.5C41.4853 0.5 43.5 2.51472 43.5 5M55.5 5C55.5 2.51472 57.5147 0.5 60 0.5M55.5 5C55.5 2.51472 57.5147 0.5 60 0.5M60 0.5C62.4853 0.5 64.5 2.51472 64.5 5M60 0.5C62.4853 0.5 64.5 2.51472 64.5 5" stroke="#1D1D1B"/>
    <path d="M77.5 48.5V24.5M64.5 8.5H72.5C75.2614 8.5 77.5 10.7386 77.5 13.5V24.5M64.5 8.5V5C64.5 2.51472 62.4853 0.5 60 0.5C57.5147 0.5 55.5 2.51472 55.5 5V8.5M64.5 8.5V12C64.5 14.4853 62.4853 16.5 60 16.5C57.5147 16.5 55.5 14.4853 55.5 12V8.5M55.5 8.5H43.5M43.5 8.5V5C43.5 2.51472 41.4853 0.5 39 0.5C36.5147 0.5 34.5 2.51472 34.5 5V8.5M43.5 8.5V12C43.5 14.4853 41.4853 16.5 39 16.5C36.5147 16.5 34.5 14.4853 34.5 12V8.5M34.5 8.5H22.5M22.5 8.5V5C22.5 2.51472 20.4853 0.5 18 0.5C15.5147 0.5 13.5 2.51472 13.5 5V8.5M22.5 8.5V12C22.5 14.4853 20.4853 16.5 18 16.5C15.5147 16.5 13.5 14.4853 13.5 12V8.5M13.5 8.5H5.5C2.73858 8.5 0.5 10.7386 0.5 13.5V24.5M43.5 71.5H5.5C2.73858 71.5 0.5 69.2614 0.5 66.5V24.5M0.5 24.5H77.5" stroke="#1D1D1B"/>
    <circle cx="61" cy="61" r="17" fill="#C8E600" stroke="#1D1D1B"/>
    <path d="M51.5 60.5L58 67L69.5 55.5" stroke="#1D1D1B"/>
    <rect x="12" y="34" width="7" height="6" rx="0.5" stroke="#1D1D1B"/>
    <rect x="28" y="34" width="7" height="6" rx="0.5" stroke="#1D1D1B"/>
    <rect x="44" y="34" width="7" height="6" rx="0.5" stroke="#1D1D1B"/>
    <rect x="60" y="34" width="7" height="6" rx="0.5" stroke="#1D1D1B"/>
    <rect x="12" y="45" width="7" height="6" rx="0.5" stroke="#1D1D1B"/>
    <rect x="12" y="56" width="7" height="6" rx="0.5" fill="#00D3E8" stroke="#1D1D1B"/>
    <rect x="28" y="45" width="7" height="6" rx="0.5" fill="#00D3E8" stroke="#1D1D1B"/>
    <rect x="28" y="56" width="7" height="6" rx="0.5" stroke="#1D1D1B"/>
</svg>