<svg viewBox="0 0 103 85" fill="none"
     xmlns="http://www.w3.org/2000/svg">
    <path d="M38.5374 47.6366C37.5565 47.076 34.6253 44.2499 33.2823 42.907L32.2313 41.8559L37.3113 35.7249L40.4643 38.3525C41.6321 36.7759 45.8245 32.9572 47.6463 30.2947C49.9235 26.9666 49.2228 27.3169 49.7483 24.8645C49.5732 22.5873 51.6752 21.0107 52.3759 21.1859C52.9364 21.326 53.0766 23.1127 53.0766 23.9886L55.1786 30.2947L52.3759 32.2216L46.2449 43.958C44.0845 45.4177 39.5184 48.1971 38.5374 47.6366Z"
          fill="white" stroke="#1D1D1B"/>
    <path d="M37.6616 35.3748C34.1582 30.9956 30.8299 26.7915 29.2534 26.7915L26.801 36.601L32.7568 43.0823C33.2239 42.5568 35.2793 39.7191 37.6616 35.3748Z"
          fill="#C8E600" stroke="#1D1D1B"/>
    <path d="M21.5459 24.3393C19.1636 24.6196 16.6995 26.3246 15.7653 27.142C13.3129 33.0394 8.30306 45.0093 7.88265 45.71C7.35714 46.5858 5.2551 50.0893 5.2551 51.841C5.2551 53.5927 7.53231 67.2559 7.53231 68.3069C7.53231 69.358 0 84.0722 0 84.4226C0 84.7029 0.23356 84.8897 0.35034 84.9481H14.5391C15.2398 84.9481 15.9405 84.9481 15.5901 84.4226C15.2398 83.8971 11.2109 82.3205 9.98469 81.6199C9.98469 81.0944 18.0425 71.8103 18.3929 70.5841C18.6731 69.6032 17.4586 63.4022 16.8163 60.4243L22.9473 56.3954L23.2976 56.5705C21.1956 58.3222 17.4469 60.6695 17.8673 60.9498C18.3929 61.3001 24.699 67.7814 24.699 68.6573C24.699 69.358 22.8305 79.8098 21.8963 84.9481H33.2823C33.8078 84.9481 34.8588 85.1233 34.5085 84.4226C34.1582 83.7219 31.3554 82.4957 31.0051 81.2695C30.6548 80.0433 34.8588 67.6063 34.5085 65.5042C34.2282 63.8226 29.2534 57.68 26.801 54.8188V50.0893C27.5601 48.3959 29.2184 44.3086 29.7789 41.5059C30.4796 38.0025 31.5306 29.9447 30.4796 27.8427C29.4286 25.7407 24.5238 23.989 21.5459 24.3393Z"
          fill="#1D1D1B"/>
    <path d="M21.7213 25.0398C22.0132 24.2808 22.7723 22.1671 23.473 19.7847C21.9963 19.6505 20.4167 17.7673 20.7842 16.1062L19.4439 13.1283L26.8012 11.5517L36.4354 9.09937C36.4354 10.7343 36.4704 14.1793 36.6106 14.88C36.7857 15.7558 39.063 16.982 38.8878 17.8579C38.7477 18.5585 37.6616 18.8505 37.1361 18.9089C37.1361 19.2008 36.8908 20.3453 35.9099 22.5875C35.0963 24.4471 32.3789 24.5876 30.476 24.3483C30.1162 25.259 28.1982 31.6951 26.9762 31.346C25.9953 31.0657 23.0642 27.0251 21.7213 25.0398Z"
          fill="white"/>
    <path d="M20.7842 16.1062C20.4167 17.7673 21.9963 19.6505 23.473 19.7847C22.7723 22.1671 22.0132 24.2808 21.7213 25.0398C23.0642 27.0251 25.9953 31.0657 26.9762 31.346C28.2024 31.6963 30.1293 25.215 30.4796 24.3392C30.1994 24.3392 29.6622 24.2224 29.4286 24.164C31.1803 24.5727 34.9289 24.8296 35.9099 22.5875C36.8908 20.3453 37.1361 19.2008 37.1361 18.9089C37.6616 18.8505 38.7476 18.5585 38.8878 17.8579C39.063 16.982 36.7857 15.7558 36.6106 14.88C36.4704 14.1793 36.4354 10.7343 36.4354 9.09937L26.8012 11.5517C26.6844 12.6612 26.3808 14.9851 26.1005 15.4055C25.7502 15.931 23.9985 12.9531 21.7213 14.7048C21.1892 15.1141 20.8963 15.5998 20.7842 16.1062ZM26.8012 11.5517L19.4439 13.1283L20.7842 16.1062M34.3334 21.0109C33.8662 20.9525 32.897 20.7307 32.7568 20.3102"
          stroke="#1D1D1B" stroke-linecap="round"/>
    <path d="M23.4733 0.691406C31.3257 -1.87254 34.6333 3.33362 35.8102 5.98242C35.9869 6.37961 36.3726 6.6471 36.8073 6.64062C39.5257 6.60009 42.0403 6.39596 42.0407 7.52246C42.0407 8.7486 38.3626 9.27432 35.2097 9.7998C32.8478 10.1934 24.1585 12.256 19.3229 13.4277C18.7956 13.5555 18.2548 13.2635 18.1188 12.7383C17.1742 9.08969 17.1741 2.74829 23.4733 0.691406ZM28.8239 1.40527C28.6381 1.35246 28.4446 1.45987 28.3913 1.64551C28.3382 1.83151 28.4465 2.02596 28.6325 2.0791C29.2149 2.24556 30.1637 2.62583 31.0827 3.21875C32.0049 3.81371 32.8637 4.60132 33.3151 5.56836C33.3969 5.74363 33.6056 5.81997 33.7809 5.73828C33.9562 5.65648 34.0326 5.44776 33.9509 5.27246C33.4213 4.13772 32.4408 3.26101 31.4626 2.62988C30.4814 1.99684 29.4678 1.58924 28.8239 1.40527Z"
          fill="#1D1D1B"/>
    <mask id="path-7-inside-1_465_7215" fill="white">
        <rect x="52.9014" y="11.5518" width="25.9252" height="22.4218" rx="0.70068"/>
    </mask>
    <rect x="52.9014" y="11.5518" width="25.9252" height="22.4218" rx="0.70068" fill="#00D3E8"
          stroke="#1D1D1B" stroke-width="2" mask="url(#path-7-inside-1_465_7215)"/>
    <mask id="path-8-inside-2_465_7215" fill="white">
        <rect x="61.6599" y="11.5518" width="8.40816" height="4.90476" rx="0.70068"/>
    </mask>
    <rect x="61.6599" y="11.5518" width="8.40816" height="4.90476" rx="0.70068" fill="#C8E600"
          stroke="#1D1D1B" stroke-width="2" mask="url(#path-8-inside-2_465_7215)"/>
    <mask id="path-9-inside-3_465_7215" fill="white">
        <rect x="39.9388" y="36.0754" width="24.8741" height="22.4218" rx="0.70068"/>
    </mask>
    <rect x="39.9388" y="36.0754" width="24.8741" height="22.4218" rx="0.70068" fill="#00D3E8"
          stroke="#1D1D1B" stroke-width="2" mask="url(#path-9-inside-3_465_7215)"/>
    <mask id="path-10-inside-4_465_7215" fill="white">
        <rect x="48.3422" y="36.0754" width="8.06729" height="4.90476" rx="0.70068"/>
    </mask>
    <rect x="48.3422" y="36.0754" width="8.06729" height="4.90476" rx="0.70068" fill="#C8E600"
          stroke="#1D1D1B" stroke-width="2" mask="url(#path-10-inside-4_465_7215)"/>
    <path d="M22.5969 27.6672C24.1384 29.2087 27.2097 37.7687 28.5527 41.856L19.2687 47.8117L7.18195 46.4103C8.93365 41.3888 12.8925 30.7152 14.7143 28.1927C16.9915 25.0396 20.67 25.7403 22.5969 27.6672Z"
          fill="#C8E600" stroke="#1D1D1B" stroke-linecap="round"/>
    <path d="M23.1225 54.1181C21.8612 53.5576 19.7942 48.7462 18.9184 46.4106L28.3776 42.0314C28.7279 43.3159 29.6038 45.9902 30.3044 46.4106C31.1803 46.9361 41.3402 47.4616 41.8657 47.4616C42.3912 47.4616 45.3691 45.7099 46.2449 45.1844C47.1208 44.6589 48.1718 44.4837 48.6973 45.1844C49.1177 45.745 47.9382 47.2865 47.2959 47.9871C48.7557 47.9871 51.9905 48.0922 53.2517 48.5127C54.8282 49.0382 52.2007 53.4174 50.9745 54.1181C49.7483 54.8188 46.7704 54.1181 44.318 54.1181C41.8657 54.1181 24.699 54.8188 23.1225 54.1181Z"
          fill="white"/>
    <path d="M15.5901 40.4548L18.9184 46.4106M18.9184 46.4106C19.7942 48.7462 21.8612 53.5576 23.1225 54.1181C24.699 54.8188 41.8657 54.1181 44.318 54.1181C46.7704 54.1181 49.7483 54.8188 50.9745 54.1181C52.2007 53.4174 54.8282 49.0382 53.2517 48.5127C51.9905 48.0922 48.7557 47.9871 47.2959 47.9871C47.9382 47.2865 49.1177 45.745 48.6973 45.1844C48.1718 44.4837 47.1208 44.6589 46.2449 45.1844C45.3691 45.7099 42.3912 47.4616 41.8657 47.4616C41.3402 47.4616 31.1803 46.9361 30.3044 46.4106C29.6038 45.9902 28.7279 43.3159 28.3776 42.0314L18.9184 46.4106Z"
          stroke="#1D1D1B" stroke-linecap="round"/>
    <mask id="path-14-inside-5_465_7215" fill="white">
        <rect x="37.4864" y="60.5994" width="37.1361" height="22.4218" rx="0.70068"/>
    </mask>
    <rect x="37.4864" y="60.5994" width="37.1361" height="22.4218" rx="0.70068" fill="#C8E600"
          stroke="#1D1D1B" stroke-width="2" mask="url(#path-14-inside-5_465_7215)"/>
    <mask id="path-15-inside-6_465_7215" fill="white">
        <rect x="51.6854" y="60.5994" width="8.7379" height="4.90476" rx="0.70068"/>
    </mask>
    <rect x="51.6854" y="60.5994" width="8.7379" height="4.90476" rx="0.70068" fill="#00D3E8"
          stroke="#1D1D1B" stroke-width="2" mask="url(#path-15-inside-6_465_7215)"/>
    <mask id="path-16-inside-7_465_7215" fill="white">
        <rect x="66.9149" y="36.0754" width="25.9252" height="22.4218" rx="0.70068"/>
    </mask>
    <rect x="66.9149" y="36.0754" width="25.9252" height="22.4218" rx="0.70068" fill="#C8E600"
          stroke="#1D1D1B" stroke-width="2" mask="url(#path-16-inside-7_465_7215)"/>
    <mask id="path-17-inside-8_465_7215" fill="white">
        <rect x="75.6735" y="36.0754" width="8.40816" height="4.90476" rx="0.70068"/>
    </mask>
    <rect x="75.6735" y="36.0754" width="8.40816" height="4.90476" rx="0.70068" fill="#00D3E8"
          stroke="#1D1D1B" stroke-width="2" mask="url(#path-17-inside-8_465_7215)"/>
    <mask id="path-18-inside-9_465_7215" fill="white">
        <rect x="77.0748" y="60.5994" width="25.9252" height="22.4218" rx="0.70068"/>
    </mask>
    <rect x="77.0748" y="60.5994" width="25.9252" height="22.4218" rx="0.70068" fill="#00D3E8"
          stroke="#1D1D1B" stroke-width="2" mask="url(#path-18-inside-9_465_7215)"/>
    <mask id="path-19-inside-10_465_7215" fill="white">
        <rect x="85.8333" y="60.5994" width="8.40816" height="4.90476" rx="0.70068"/>
    </mask>
    <rect x="85.8333" y="60.5994" width="8.40816" height="4.90476" rx="0.70068" fill="#C8E600"
          stroke="#1D1D1B" stroke-width="2" mask="url(#path-19-inside-10_465_7215)"/>
    <ellipse cx="32.5817" cy="14.1793" rx="0.70068" ry="0.87585" fill="#1D1D1B"/>
</svg>
