<svg viewBox="0 0 112 32" fill="none" xmlns="http://www.w3.org/2000/svg">
    <path d="M24.0309 5.77686L15.7207 25.6519H10.3217L6.24593 9.80485C6.193 9.43385 6.08713 9.06285 5.87541 8.74485C5.66368 8.42685 5.34609 8.21486 5.0285 8.05586C3.44055 7.26086 1.74674 6.73085 0 6.35985L0.105863 5.77686H8.83958C9.42182 5.77686 9.95114 5.98885 10.3746 6.35985C10.798 6.73085 11.1156 7.26086 11.1686 7.79086L13.3388 19.2919L18.6849 5.77686H24.0309Z"
          fill="#1434CB"/>
    <path d="M31.3884 5.77686L27.1539 25.5989H22.0195L26.2541 5.77686H31.3884Z" fill="#1434CB"/>
    <path d="M38.1108 11.2888C38.0578 13.6738 45.2565 13.9388 45.2565 19.1858C45.2565 23.2668 41.763 25.9698 36.364 25.9698C34.4055 25.9698 32.4471 25.5988 30.6474 24.9098L31.6002 20.5638C33.1881 21.4118 34.9878 21.8358 36.8404 21.7828C38.3225 21.7828 39.9104 21.1998 39.9104 19.8748C39.9634 18.9738 39.1694 18.3378 37.2638 17.3838C35.3054 16.4298 32.7647 14.8398 32.7647 11.9778C32.8176 8.10876 36.364 5.40576 41.4454 5.40576C43.0863 5.40576 44.6743 5.72376 46.2093 6.30676L45.3095 10.4938C43.7215 9.75176 41.9748 9.43376 40.281 9.59276C38.7459 9.80476 38.1108 10.5468 38.1108 11.2888Z"
          fill="#1434CB"/>
    <path fill-rule="evenodd" clip-rule="evenodd"
          d="M59.2305 5.77686L63.4121 25.6519H58.7011L58.066 22.6839H51.5025L50.4438 25.6519H45.0448L52.6669 7.20786C52.8787 6.78386 53.1433 6.41285 53.5668 6.14785C53.9373 5.93585 54.4137 5.77686 54.8901 5.77686H59.2305ZM57.1661 18.6029L55.6311 11.1299L52.9316 18.6029H57.1661Z"
          fill="#1434CB"/>
    <path fill-rule="evenodd" clip-rule="evenodd" d="M75.5334 13.25H111.844V31.429H75.5334V13.25Z"
          fill="#1434CB"/>
    <path fill-rule="evenodd" clip-rule="evenodd"
          d="M92.895 0.159001L91.1482 8.321H89.031L90.7777 0.159001H92.895ZM103.852 7.102H101.152L100.729 8.321H98.5057L101.682 0.742001C101.84 0.424001 102.158 0.159001 102.581 0.159001H104.381L106.075 8.321H104.116L103.852 7.102ZM103.534 5.459L102.846 2.385L101.735 5.459H103.534ZM95.0122 8.48C94.0595 8.427 93.1596 8.268 92.6303 8.003L93.0538 6.254C93.5302 6.466 94.1124 6.784 95.171 6.731C95.8062 6.731 96.4414 6.519 96.4414 5.936C96.4414 5.618 96.1767 5.353 95.3828 4.929C94.5358 4.558 93.4772 3.869 93.5301 2.703C93.5301 1.113 95.0122 0 97.0766 0C97.8705 0 98.5587 0.212 99.035 0.371L98.6645 2.12C97.7118 1.696 96.9178 1.696 96.6002 1.749C95.965 1.802 95.7003 2.12 95.7003 2.438C95.7003 3.392 98.6645 3.498 98.6645 5.671C98.6645 7.367 97.1824 8.48 95.0122 8.48ZM89.9308 0.159001L86.4903 8.321H84.2671L82.6262 1.802C82.5204 1.431 82.4145 1.272 82.0969 1.113C81.5676 0.795 80.7736 0.583001 80.0326 0.424001L80.0855 0.159001H83.6319C84.1083 0.159001 84.5318 0.477001 84.6376 1.007L85.5375 5.724L87.7077 0.159001H89.9308Z"
          fill="#1434CB"/>
    <path fill-rule="evenodd" clip-rule="evenodd"
          d="M84.0024 23.32C84.2142 23.479 84.5847 23.585 84.9552 23.585C85.4316 23.585 85.7492 23.373 85.7492 23.002C85.7492 22.737 85.5375 22.525 85.0081 22.366C84.32 22.101 83.8966 21.73 83.8966 21.147C83.8966 20.458 84.4259 19.981 85.3257 19.981C85.8021 19.981 86.1197 20.087 86.3314 20.14L86.1197 20.776C86.0138 20.723 85.6962 20.564 85.3257 20.564C84.8493 20.564 84.6376 20.829 84.6376 21.094C84.6376 21.412 84.9023 21.518 85.4316 21.73C86.1197 22.048 86.4902 22.366 86.4902 22.949C86.4902 23.638 86.0138 24.221 84.9552 24.221C84.4788 24.221 84.0554 24.062 83.7907 23.956L84.0024 23.32Z"
          fill="#FFFFFE"/>
    <path fill-rule="evenodd" clip-rule="evenodd"
          d="M89.4015 22.3132H87.8665V23.5322H89.6132V24.1682H87.1254V20.0342H89.5073V20.6172H87.8665V21.7302H89.4015V22.3132Z"
          fill="#FFFFFE"/>
    <path fill-rule="evenodd" clip-rule="evenodd"
          d="M93.1596 24.009C92.9479 24.115 92.5774 24.221 92.048 24.221C90.7777 24.221 89.9837 23.373 89.9837 22.154C89.9837 20.776 90.9365 19.981 92.1539 19.981C92.6832 19.981 93.0008 20.087 93.1596 20.14L93.0008 20.723C92.842 20.67 92.5244 20.564 92.2068 20.564C91.3599 20.564 90.7777 21.094 90.7777 22.101C90.7777 23.002 91.307 23.585 92.2068 23.585C92.4715 23.585 92.842 23.532 93.0008 23.426L93.1596 24.009Z"
          fill="#FFFFFE"/>
    <path fill-rule="evenodd" clip-rule="evenodd"
          d="M94.4829 20.0342V22.4192C94.4829 23.2142 94.8005 23.5852 95.3298 23.5852C95.8591 23.5852 96.1767 23.2142 96.1767 22.4192V20.0342H96.9177V22.3662C96.9177 23.6382 96.2826 24.2212 95.2769 24.2212C94.3241 24.2212 93.6889 23.6912 93.6889 22.3662V20.0342H94.4829Z"
          fill="#FFFFFE"/>
    <path fill-rule="evenodd" clip-rule="evenodd"
          d="M97.7117 20.087C98.0293 20.034 98.4528 19.981 98.8762 19.981C99.4585 19.981 99.829 20.087 100.147 20.299C100.358 20.511 100.464 20.776 100.464 21.147C100.464 21.677 100.147 22.048 99.7231 22.207C100.041 22.313 100.2 22.578 100.305 23.002C100.464 23.532 100.57 24.009 100.623 24.168H99.8819C99.7761 24.009 99.7231 23.691 99.5643 23.161C99.4585 22.631 99.2997 22.472 98.8762 22.472H98.4528V24.168H97.7117V20.087ZM98.4528 21.889H98.9292C99.4055 21.889 99.7231 21.624 99.7231 21.2C99.7231 20.776 99.4055 20.564 98.9292 20.564C98.6821 20.564 98.5233 20.564 98.4528 20.564V21.889Z"
          fill="#FFFFFE"/>
    <path fill-rule="evenodd" clip-rule="evenodd"
          d="M103.428 22.3132H101.893V23.5322H103.64V24.1682H101.152V20.0342H103.534V20.6172H101.893V21.7302H103.428V22.3132Z"
          fill="#FFFFFE"/>
</svg>
