<svg viewBox="0 0 64 64" fill="none" xmlns="http://www.w3.org/2000/svg">
    <path d="M5.44 32.0002C5.44 17.2722 17.376 5.3335 32.1067 5.3335C46.832 5.3335 58.7733 17.2722 58.7733 32.0002C58.7733 46.7282 46.832 58.6668 32.1067 58.6668C17.376 58.6668 5.44 46.7282 5.44 32.0002Z"
          fill="#FC3F1D"/>
    <path d="M35.52 20.4428H33.056C28.5387 20.4428 26.1627 22.7308 26.1627 26.1042C26.1627 29.9175 27.8053 31.7042 31.1787 33.9948L33.9653 35.8722L25.9573 47.8375H19.9733L27.16 37.1335C23.0267 34.1708 20.7067 31.2935 20.7067 26.4268C20.7067 20.3255 24.96 16.1602 33.0267 16.1602H41.0347V47.8082H35.52V20.4428Z"
          fill="white"/>
</svg>
