<svg viewBox="0 0 60 22" fill="none" xmlns="http://www.w3.org/2000/svg">
    <path opacity="0.9"
          d="M37.7402 2.43799V18.603H34.9348V4.61099H29.9063V18.603H27.1539V2.43799H37.7402ZM42.3982 18.815C41.1631 18.815 40.2103 18.5677 39.5399 18.073V15.847C39.8928 16.0943 40.2986 16.271 40.7573 16.377C41.1455 16.5183 41.6219 16.589 42.1865 16.589C43.0686 16.589 43.7568 16.3417 44.2508 15.847C44.6743 15.317 44.9389 14.5927 45.0448 13.674H41.022V11.501H45.0448C44.7625 9.73432 43.845 8.85099 42.2923 8.85099C41.8336 8.85099 41.3396 8.92165 40.8102 9.06299C40.3515 9.20432 39.9986 9.38099 39.7516 9.59299V7.20799C40.0339 7.06665 40.4397 6.94299 40.969 6.83699C41.4278 6.69566 42.0276 6.62499 42.7687 6.62499C43.6156 6.62499 44.3566 6.78399 44.9918 7.10199C45.133 7.17266 45.2918 7.24332 45.4682 7.31399C45.6094 7.45532 45.7329 7.54365 45.8387 7.57899C46.0152 7.72032 46.1563 7.84399 46.2622 7.94999C46.3681 8.12666 46.4739 8.26799 46.5798 8.37399C47.0385 8.90399 47.3914 9.53999 47.6384 10.282C47.8854 11.0593 48.0089 11.8897 48.0089 12.773C48.0089 14.7163 47.5325 16.218 46.5798 17.278C45.6623 18.3027 44.2684 18.815 42.3982 18.815ZM54.5195 5.35299C53.3903 5.35299 52.5434 5.07032 51.9788 4.50499C51.4142 3.97499 51.1319 3.28599 51.1319 2.43799H53.4609C53.4609 2.86199 53.5668 3.14466 53.7785 3.28599C53.9549 3.46266 54.2019 3.55099 54.5195 3.55099C54.8018 3.55099 55.0312 3.46266 55.2076 3.28599C55.3841 3.10932 55.4723 2.82665 55.4723 2.43799H57.8013C57.8013 2.86199 57.7131 3.23299 57.5366 3.55099C57.3955 3.93966 57.1837 4.25766 56.9014 4.50499C56.6544 4.75232 56.3368 4.96432 55.9487 5.14099C55.5252 5.28232 55.0488 5.35299 54.5195 5.35299ZM52.4552 6.88999V14.151L56.6897 6.88999H59.1246V18.603H56.478V11.342L52.2435 18.603H49.8086V6.88999H52.4552Z"
          fill="#1D1D1B"/>
    <path opacity="0.9"
          d="M10.6393 21.412C4.76386 21.412 0 16.642 0 10.706C0 4.77 4.76386 0 10.6393 0C16.5676 0 21.3314 4.77 21.3314 10.706C21.3314 16.642 16.5676 21.412 10.6393 21.412Z"
          fill="#1D1D1B"/>
    <path d="M12.1743 17.1722H14.3974V4.24023H11.1686C7.88683 4.24023 6.14009 5.98924 6.14009 8.42724C6.14009 10.4412 7.14579 11.6072 8.78666 12.8262L5.87543 17.1722H8.31027L11.5391 12.2962L10.4275 11.5542C9.05131 10.6002 8.41614 9.85823 8.41614 8.32123C8.41614 6.89023 9.31598 5.98923 11.1686 5.98923H12.1743V17.1722Z"
          fill="white"/>
</svg>